SplineFontDB: 3.2
FontName: Montserrat-MediumItalic
FullName: Montserrat Medium Italic
FamilyName: Montserrat Medium
Weight: Medium
Copyright: Copyright 2011 The Montserrat Project Authors (https://github.com/JulietaUla/Montserrat)
Version: 9.000
ItalicAngle: -11.3
UnderlinePosition: -125
UnderlineWidth: 50
Ascent: 800
Descent: 200
InvalidEm: 0
sfntRevision: 0x00090000
LayerCount: 2
Layer: 0 1 "Back" 1
Layer: 1 1 "Fore" 0
XUID: [1021 598 623987363 15625771]
StyleMap: 0x0001
FSType: 0
OS2Version: 4
OS2_WeightWidthSlopeOnly: 0
OS2_UseTypoMetrics: 1
CreationTime: 1624264748
ModificationTime: 1773220971
PfmFamily: 81
TTFWeight: 500
TTFWidth: 5
LineGap: 0
VLineGap: 0
Panose: 0 0 0 0 0 0 0 0 0 0
OS2TypoAscent: 968
OS2TypoAOffset: 0
OS2TypoDescent: -251
OS2TypoDOffset: 0
OS2TypoLinegap: 0
OS2WinAscent: 1109
OS2WinAOffset: 0
OS2WinDescent: 453
OS2WinDOffset: 0
HheadAscent: 968
HheadAOffset: 0
HheadDescent: -251
HheadDOffset: 0
OS2SubXSize: 650
OS2SubYSize: 600
OS2SubXOff: -15
OS2SubYOff: 75
OS2SupXSize: 650
OS2SupYSize: 600
OS2SupXOff: 70
OS2SupYOff: 350
OS2StrikeYSize: 50
OS2StrikeYPos: 318
OS2CapHeight: 700
OS2XHeight: 530
OS2Vendor: 'ULA '
OS2CodePages: 20000197.00000000
OS2UnicodeRanges: a00002ff.4000247b.00000000.00000000
Lookup: 1 0 0 "'aalt' Access All Alternates lookup 0" { "'aalt' Access All Alternates lookup 0 subtable"  } ['aalt' ('DFLT' <'NAV ' 'dflt' > 'cyrl' <'BGR ' 'BSH ' 'CHU ' 'MKD ' 'SRB ' 'dflt' > 'latn' <'AZE ' 'CAT ' 'CRT ' 'KAZ ' 'MOL ' 'NAV ' 'NLD ' 'NSM ' 'ROM ' 'TAT ' 'TOD0' 'TRK ' 'VIT ' 'XPE ' 'dflt' > ) ]
Lookup: 3 0 0 "'aalt' Access All Alternates lookup 1" { "'aalt' Access All Alternates lookup 1 subtable"  } ['aalt' ('DFLT' <'NAV ' 'dflt' > 'cyrl' <'BGR ' 'BSH ' 'CHU ' 'MKD ' 'SRB ' 'dflt' > 'latn' <'AZE ' 'CAT ' 'CRT ' 'KAZ ' 'MOL ' 'NAV ' 'NLD ' 'NSM ' 'ROM ' 'TAT ' 'TOD0' 'TRK ' 'VIT ' 'XPE ' 'dflt' > ) ]

StartChar: .notdef
Encoding: 65536 -1 0
Width: 587
GlyphClass: 1
Flags: W
LayerCount: 2
Fore
SplineSet
-13 0 m 1,0,-1
 127 700 l 1,1,-1
 634 700 l 1,2,-1
 494 0 l 1,3,-1
 -13 0 l 1,0,-1
81 70 m 1,4,-1
 428 70 l 1,5,-1
 540 630 l 1,6,-1
 193 630 l 1,7,-1
 81 70 l 1,4,-1
EndSplineSet
EndChar

StartChar: A
Encoding: 65 65 1
Width: 732
GlyphClass: 2
Flags: W
AnchorPoint: "Anchor-3" 453 700 basechar 0
AnchorPoint: "Anchor-2" 680 0 basechar 0
AnchorPoint: "Anchor-0" 313 0 basechar 0
LayerCount: 2
Fore
SplineSet
-54 0 m 1,0,-1
 404 700 l 1,1,-1
 503 700 l 1,2,-1
 680 0 l 1,3,-1
 581 0 l 1,4,-1
 425 646 l 1,5,-1
 465 646 l 1,6,-1
 54 0 l 1,7,-1
 -54 0 l 1,0,-1
116 175 m 1,8,-1
 160 255 l 1,9,-1
 553 255 l 1,10,-1
 567 175 l 1,11,-1
 116 175 l 1,8,-1
EndSplineSet
Substitution2: "'ss01' Style Set 1 lookup 50 subtable" A.ss01
Substitution2: "'c2sc' Capitals to Small Capitals lookup 45 subtable" a.sc
Substitution2: "Single Substitution lookup 39 subtable" ordfeminine
AlternateSubs2: "'aalt' Access All Alternates lookup 1 subtable" ordfeminine a.sc A.ss01
EndChar

StartChar: uni2C6D
Encoding: 11373 11373 25
Width: 895
GlyphClass: 2
Flags: W
AnchorPoint: "Anchor-3" 532 700 basechar 0
AnchorPoint: "Anchor-2" 737 0 basechar 0
AnchorPoint: "Anchor-0" 392 0 basechar 0
LayerCount: 2
Fore
SplineSet
370 -8 m 0,0,1
 276 -8 276 -8 207 30 c 128,-1,2
 138 68 138 68 99.5 137.5 c 128,-1,3
 61 207 61 207 61 299 c 0,4,5
 61 386 61 386 93.5 460.5 c 128,-1,6
 126 535 126 535 183.5 590.5 c 128,-1,7
 241 646 241 646 317.5 677 c 128,-1,8
 394 708 394 708 484 708 c 0,9,10
 591 708 591 708 661.5 663 c 128,-1,11
 732 618 732 618 759.5 536.5 c 128,-1,12
 787 455 787 455 765 344 c 0,13,14
 744 236 744 236 688.5 157 c 128,-1,15
 633 78 633 78 551 35 c 128,-1,16
 469 -8 469 -8 370 -8 c 0,0,1
382 81 m 0,17,18
 463 81 463 81 533 117.5 c 128,-1,19
 603 154 603 154 650 217 c 128,-1,20
 697 280 697 280 710 359 c 0,21,22
 723 435 723 435 697.5 493.5 c 128,-1,23
 672 552 672 552 616 585.5 c 128,-1,24
 560 619 560 619 480 619 c 0,25,26
 413 619 413 619 354.5 595 c 128,-1,27
 296 571 296 571 252.5 528 c 128,-1,28
 209 485 209 485 185 427.5 c 128,-1,29
 161 370 161 370 161 303 c 0,30,31
 161 200 161 200 220 140.5 c 128,-1,32
 279 81 279 81 382 81 c 0,17,18
641 0 m 1,33,-1
 682 208 l 1,34,-1
 722 353 l 1,35,-1
 737 498 l 1,36,-1
 777 700 l 1,37,-1
 877 700 l 1,38,-1
 737 0 l 1,39,-1
 641 0 l 1,33,-1
EndSplineSet
Substitution2: "'c2sc' Capitals to Small Capitals lookup 45 subtable" uni0251.sc
Substitution2: "'aalt' Access All Alternates lookup 0 subtable" uni0251.sc
EndChar

StartChar: uni023A
Encoding: 570 570 31
Width: 732
GlyphClass: 1
Flags: W
LayerCount: 2
Fore
SplineSet
117 -70 m 1,0,-1
 651 770 l 1,1,-1
 734 770 l 1,2,-1
 200 -70 l 1,3,-1
 117 -70 l 1,0,-1
116 178 m 1,4,-1
 159 253 l 1,5,-1
 552 253 l 1,6,-1
 566 178 l 1,7,-1
 116 178 l 1,4,-1
-54 0 m 1,8,-1
 403 700 l 1,9,-1
 502 700 l 1,10,-1
 680 0 l 1,11,-1
 578 0 l 1,12,-1
 424 649 l 1,13,-1
 465 649 l 1,14,-1
 52 0 l 1,15,-1
 -54 0 l 1,8,-1
EndSplineSet
Substitution2: "'ss01' Style Set 1 lookup 50 subtable" uni023A.ss01
Substitution2: "'c2sc' Capitals to Small Capitals lookup 45 subtable" uni2C65.sc
AlternateSubs2: "'aalt' Access All Alternates lookup 1 subtable" uni2C65.sc uni023A.ss01
EndChar

StartChar: uni2C6F
Encoding: 11375 11375 33
Width: 732
GlyphClass: 2
Flags: W
AnchorPoint: "Anchor-3" 453 700 basechar 0
AnchorPoint: "Anchor-0" 313 0 basechar 0
LayerCount: 2
Fore
SplineSet
820 700 m 1,0,-1
 362 0 l 1,1,-1
 264 0 l 1,2,-1
 86 700 l 1,3,-1
 186 700 l 1,4,-1
 341 54 l 1,5,-1
 301 54 l 1,6,-1
 713 700 l 1,7,-1
 820 700 l 1,0,-1
650 525 m 1,8,-1
 607 445 l 1,9,-1
 213 445 l 1,10,-1
 199 525 l 1,11,-1
 650 525 l 1,8,-1
EndSplineSet
Substitution2: "'ss01' Style Set 1 lookup 50 subtable" uni2C6F.ss01
Substitution2: "'c2sc' Capitals to Small Capitals lookup 45 subtable" uni0250.sc
AlternateSubs2: "'aalt' Access All Alternates lookup 1 subtable" uni0250.sc uni2C6F.ss01
EndChar

StartChar: AE
Encoding: 198 198 34
Width: 1047
GlyphClass: 2
Flags: W
AnchorPoint: "Anchor-3" 694 700 basechar 0
AnchorPoint: "Anchor-2" 938 0 basechar 0
AnchorPoint: "Anchor-0" 480 0 basechar 0
LayerCount: 2
Fore
SplineSet
-55 0 m 1,0,-1
 498 700 l 1,1,-1
 604 700 l 1,2,-1
 589 616 l 1,3,-1
 501 616 l 1,4,-1
 572 657 l 1,5,-1
 57 0 l 1,6,-1
 -55 0 l 1,0,-1
162 175 m 1,7,-1
 183 255 l 1,8,-1
 515 255 l 1,9,-1
 500 175 l 1,10,-1
 162 175 l 1,7,-1
431 0 m 1,11,-1
 571 700 l 1,12,-1
 1064 700 l 1,13,-1
 1046 613 l 1,14,-1
 652 613 l 1,15,-1
 547 87 l 1,16,-1
 956 87 l 1,17,-1
 938 0 l 1,18,-1
 431 0 l 1,11,-1
582 313 m 1,19,-1
 601 398 l 1,20,-1
 960 398 l 1,21,-1
 943 313 l 1,22,-1
 582 313 l 1,19,-1
EndSplineSet
Substitution2: "'ss01' Style Set 1 lookup 50 subtable" AE.ss01
Substitution2: "'c2sc' Capitals to Small Capitals lookup 45 subtable" ae.sc
AlternateSubs2: "'aalt' Access All Alternates lookup 1 subtable" ae.sc AE.ss01
EndChar

StartChar: B
Encoding: 66 66 37
Width: 757
GlyphClass: 2
Flags: W
AnchorPoint: "Anchor-3" 464 700 basechar 0
AnchorPoint: "Anchor-0" 324 0 basechar 0
LayerCount: 2
Fore
SplineSet
52 0 m 1,0,-1
 192 700 l 1,1,-1
 502 700 l 2,2,3
 607 700 607 700 665 661 c 128,-1,4
 723 622 723 622 723 546 c 0,5,6
 723 480 723 480 690.5 434.5 c 128,-1,7
 658 389 658 389 606 366 c 128,-1,8
 554 343 554 343 496 343 c 1,9,-1
 519 372 l 1,10,11
 597 372 597 372 645 333 c 128,-1,12
 693 294 693 294 693 219 c 0,13,14
 693 147 693 147 655.5 98 c 128,-1,15
 618 49 618 49 549.5 24.5 c 128,-1,16
 481 0 481 0 389 0 c 2,17,-1
 52 0 l 1,0,-1
168 81 m 1,18,-1
 396 81 l 2,19,20
 490 81 490 81 542 116 c 128,-1,21
 594 151 594 151 594 218 c 0,22,23
 594 271 594 271 556 292.5 c 128,-1,24
 518 314 518 314 448 314 c 2,25,-1
 198 314 l 1,26,-1
 214 395 l 1,27,-1
 435 395 l 2,28,29
 490 395 490 395 531.5 410 c 128,-1,30
 573 425 573 425 596 455 c 128,-1,31
 619 485 619 485 619 530 c 0,32,33
 619 576 619 576 583 597.5 c 128,-1,34
 547 619 547 619 481 619 c 2,35,-1
 275 619 l 1,36,-1
 168 81 l 1,18,-1
EndSplineSet
Substitution2: "'c2sc' Capitals to Small Capitals lookup 45 subtable" b.sc
Substitution2: "'aalt' Access All Alternates lookup 0 subtable" b.sc
EndChar

StartChar: uniA7B4
Encoding: 42932 42932 40
Width: 757
GlyphClass: 2
Flags: W
AnchorPoint: "Anchor-3" 468 700 basechar 0
AnchorPoint: "Anchor-0" 328 0 basechar 0
LayerCount: 2
Fore
SplineSet
113 81 m 1,0,-1
 396 81 l 2,1,2
 491 81 491 81 542.5 116 c 128,-1,3
 594 151 594 151 594 218 c 0,4,5
 594 271 594 271 556.5 292.5 c 128,-1,6
 519 314 519 314 448 314 c 2,7,-1
 198 314 l 1,8,-1
 214 395 l 1,9,-1
 435 395 l 2,10,11
 490 395 490 395 531.5 410 c 128,-1,12
 573 425 573 425 596.5 455 c 128,-1,13
 620 485 620 485 620 530 c 0,14,15
 620 576 620 576 583.5 597.5 c 128,-1,16
 547 619 547 619 481 619 c 2,17,-1
 275 619 l 1,18,-1
 113 -194 l 1,19,-1
 13 -194 l 1,20,-1
 192 700 l 1,21,-1
 502 700 l 2,22,23
 607 700 607 700 665 661 c 128,-1,24
 723 622 723 622 723 546 c 0,25,26
 723 480 723 480 690.5 434.5 c 128,-1,27
 658 389 658 389 606 366 c 128,-1,28
 554 343 554 343 496 343 c 1,29,-1
 519 372 l 1,30,31
 597 372 597 372 645 333 c 128,-1,32
 693 294 693 294 693 219 c 0,33,34
 693 147 693 147 655.5 98 c 128,-1,35
 618 49 618 49 549.5 24.5 c 128,-1,36
 481 0 481 0 389 0 c 2,37,-1
 113 0 l 1,38,-1
 113 81 l 1,0,-1
EndSplineSet
Substitution2: "'c2sc' Capitals to Small Capitals lookup 45 subtable" uniA7B5.sc
Substitution2: "'aalt' Access All Alternates lookup 0 subtable" uniA7B5.sc
EndChar

StartChar: uni0181
Encoding: 385 385 41
Width: 927
GlyphClass: 2
Flags: W
AnchorPoint: "Anchor-3" 634 700 basechar 0
AnchorPoint: "Anchor-0" 494 0 basechar 0
LayerCount: 2
Fore
SplineSet
129 383 m 1,0,1
 92 439 92 439 87 495 c 128,-1,2
 82 551 82 551 104 597.5 c 128,-1,3
 126 644 126 644 171.5 672 c 128,-1,4
 217 700 217 700 280 700 c 2,5,-1
 371 700 l 1,6,-1
 353 613 l 1,7,-1
 281 613 l 2,8,9
 238 613 238 613 212 586 c 128,-1,10
 186 559 186 559 183.5 518.5 c 128,-1,11
 181 478 181 478 209 438 c 1,12,-1
 129 383 l 1,0,1
222 0 m 1,13,-1
 362 700 l 1,14,-1
 672 700 l 2,15,16
 777 700 777 700 835 661 c 128,-1,17
 893 622 893 622 893 546 c 0,18,19
 893 480 893 480 860.5 434.5 c 128,-1,20
 828 389 828 389 776 366 c 128,-1,21
 724 343 724 343 666 343 c 1,22,-1
 689 372 l 1,23,24
 767 372 767 372 815 333 c 128,-1,25
 863 294 863 294 863 219 c 0,26,27
 863 147 863 147 825 98 c 128,-1,28
 787 49 787 49 719 24.5 c 128,-1,29
 651 0 651 0 559 0 c 2,30,-1
 222 0 l 1,13,-1
338 81 m 1,31,-1
 566 81 l 2,32,33
 660 81 660 81 712 116 c 128,-1,34
 764 151 764 151 764 218 c 0,35,36
 764 271 764 271 726 292.5 c 128,-1,37
 688 314 688 314 618 314 c 2,38,-1
 368 314 l 1,39,-1
 384 395 l 1,40,-1
 605 395 l 2,41,42
 660 395 660 395 701.5 410 c 128,-1,43
 743 425 743 425 766 455 c 128,-1,44
 789 485 789 485 789 530 c 0,45,46
 789 576 789 576 753 597.5 c 128,-1,47
 717 619 717 619 651 619 c 2,48,-1
 445 619 l 1,49,-1
 338 81 l 1,31,-1
EndSplineSet
Substitution2: "'c2sc' Capitals to Small Capitals lookup 45 subtable" uni0253.sc
Substitution2: "'locl' Localized Forms in Latin lookup 19 subtable" uni0181.loclXPE
AlternateSubs2: "'aalt' Access All Alternates lookup 1 subtable" uni0181.loclXPE uni0253.sc
EndChar

StartChar: uni0243
Encoding: 579 579 43
Width: 776
GlyphClass: 2
Flags: W
AnchorPoint: "Anchor-3" 484 700 basechar 0
AnchorPoint: "Anchor-0" 344 0 basechar 0
LayerCount: 2
Fore
SplineSet
70 0 m 1,0,-1
 210 700 l 1,1,-1
 524 700 l 2,2,3
 605 700 605 700 656.5 676 c 128,-1,4
 708 652 708 652 729.5 609.5 c 128,-1,5
 751 567 751 567 739 510 c 0,6,7
 727 454 727 454 693.5 417 c 128,-1,8
 660 380 660 380 613.5 362 c 128,-1,9
 567 344 567 344 517 344 c 1,10,-1
 541 374 l 1,11,12
 600 374 600 374 641.5 349 c 128,-1,13
 683 324 683 324 702 281 c 128,-1,14
 721 238 721 238 709 183 c 0,15,16
 691 93 691 93 614 46.5 c 128,-1,17
 537 0 537 0 404 0 c 2,18,-1
 70 0 l 1,0,-1
-1 161 m 1,19,-1
 14 238 l 1,20,-1
 151 238 l 1,21,-1
 172 238 l 1,22,-1
 369 238 l 1,23,-1
 354 161 l 1,24,-1
 157 161 l 1,25,-1
 136 161 l 1,26,-1
 -1 161 l 1,19,-1
185 81 m 1,27,-1
 416 81 l 2,28,29
 499 81 499 81 549 109 c 128,-1,30
 599 137 599 137 611 197 c 0,31,32
 623 258 623 258 584.5 287 c 128,-1,33
 546 316 546 316 463 316 c 2,34,-1
 224 316 l 1,35,-1
 241 398 l 1,36,-1
 454 398 l 2,37,38
 531 398 531 398 578.5 424.5 c 128,-1,39
 626 451 626 451 637 507 c 256,40,41
 648 563 648 563 611 591 c 128,-1,42
 574 619 574 619 498 619 c 2,43,-1
 293 619 l 1,44,-1
 185 81 l 1,27,-1
EndSplineSet
Substitution2: "'c2sc' Capitals to Small Capitals lookup 45 subtable" uni0180.sc
Substitution2: "'aalt' Access All Alternates lookup 0 subtable" uni0180.sc
EndChar

StartChar: uni0182
Encoding: 386 386 44
Width: 757
GlyphClass: 2
Flags: W
AnchorPoint: "Anchor-3" 464 700 basechar 0
AnchorPoint: "Anchor-0" 324 0 basechar 0
LayerCount: 2
Fore
SplineSet
52 0 m 1,0,-1
 192 700 l 1,1,-1
 732 700 l 1,2,-1
 715 619 l 1,3,-1
 275 619 l 1,4,-1
 168 81 l 1,5,-1
 399 81 l 2,6,7
 459 81 459 81 503 98 c 128,-1,8
 547 115 547 115 571 147 c 128,-1,9
 595 179 595 179 595 223 c 0,10,11
 595 276 595 276 558.5 298.5 c 128,-1,12
 522 321 522 321 447 321 c 2,13,-1
 208 321 l 1,14,-1
 224 403 l 1,15,-1
 463 403 l 2,16,17
 572 403 572 403 633.5 361.5 c 128,-1,18
 695 320 695 320 695 230 c 0,19,20
 695 157 695 157 655.5 105.5 c 128,-1,21
 616 54 616 54 546.5 27 c 128,-1,22
 477 0 477 0 386 0 c 2,23,-1
 52 0 l 1,0,-1
EndSplineSet
Substitution2: "'c2sc' Capitals to Small Capitals lookup 45 subtable" uni0183.sc
Substitution2: "'aalt' Access All Alternates lookup 0 subtable" uni0183.sc
EndChar

StartChar: C
Encoding: 67 67 45
Width: 723
GlyphClass: 2
Flags: W
AnchorPoint: "Anchor-3" 498 700 basechar 0
AnchorPoint: "Anchor-0" 359 0 basechar 0
LayerCount: 2
Fore
SplineSet
394 -8 m 0,0,1
 288 -8 288 -8 213.5 29 c 128,-1,2
 139 66 139 66 99.5 132.5 c 128,-1,3
 60 199 60 199 60 287 c 0,4,5
 60 374 60 374 90 450.5 c 128,-1,6
 120 527 120 527 176.5 585 c 128,-1,7
 233 643 233 643 311.5 675.5 c 128,-1,8
 390 708 390 708 489 708 c 0,9,10
 576 708 576 708 643 680 c 128,-1,11
 710 652 710 652 746 599 c 1,12,-1
 674 537 l 1,13,14
 643 577 643 577 595 598 c 128,-1,15
 547 619 547 619 482 619 c 0,16,17
 407 619 407 619 347.5 593.5 c 128,-1,18
 288 568 288 568 246 522.5 c 128,-1,19
 204 477 204 477 182 418 c 128,-1,20
 160 359 160 359 160 293 c 0,21,22
 160 230 160 230 187.5 182.5 c 128,-1,23
 215 135 215 135 268.5 108 c 128,-1,24
 322 81 322 81 401 81 c 0,25,26
 465 81 465 81 518.5 102 c 128,-1,27
 572 123 572 123 613 164 c 1,28,-1
 671 98 l 1,29,30
 623 45 623 45 551 18.5 c 128,-1,31
 479 -8 479 -8 394 -8 c 0,0,1
EndSplineSet
Substitution2: "'c2sc' Capitals to Small Capitals lookup 45 subtable" c.sc
Substitution2: "'aalt' Access All Alternates lookup 0 subtable" c.sc
EndChar

StartChar: uniA792
Encoding: 42898 42898 47
Width: 793
GlyphClass: 2
Flags: W
AnchorPoint: "Anchor-3" 567 700 basechar 0
AnchorPoint: "Anchor-0" 429 0 basechar 0
LayerCount: 2
Fore
SplineSet
464 -8 m 0,0,1
 358 -8 358 -8 283.5 29 c 128,-1,2
 209 66 209 66 169.5 132.5 c 128,-1,3
 130 199 130 199 130 287 c 0,4,5
 130 374 130 374 160 450.5 c 128,-1,6
 190 527 190 527 246.5 585 c 128,-1,7
 303 643 303 643 381.5 675.5 c 128,-1,8
 460 708 460 708 559 708 c 0,9,10
 646 708 646 708 713 680 c 128,-1,11
 780 652 780 652 816 599 c 1,12,-1
 744 537 l 1,13,14
 713 577 713 577 665 598 c 128,-1,15
 617 619 617 619 551 619 c 0,16,17
 477 619 477 619 417.5 593.5 c 128,-1,18
 358 568 358 568 316 522.5 c 128,-1,19
 274 477 274 477 252 418 c 128,-1,20
 230 359 230 359 230 293 c 0,21,22
 230 230 230 230 257.5 182.5 c 128,-1,23
 285 135 285 135 338.5 108 c 128,-1,24
 392 81 392 81 471 81 c 0,25,26
 535 81 535 81 588.5 102 c 128,-1,27
 642 123 642 123 683 164 c 1,28,-1
 741 98 l 1,29,30
 693 45 693 45 620.5 18.5 c 128,-1,31
 548 -8 548 -8 464 -8 c 0,0,1
24 319 m 1,32,-1
 39 398 l 1,33,-1
 418 398 l 1,34,-1
 403 319 l 1,35,-1
 24 319 l 1,32,-1
EndSplineSet
Substitution2: "'c2sc' Capitals to Small Capitals lookup 45 subtable" uniA793.sc
Substitution2: "'aalt' Access All Alternates lookup 0 subtable" uniA793.sc
EndChar

StartChar: uniA7B3
Encoding: 42931 42931 53
Width: 554
GlyphClass: 1
Flags: W
LayerCount: 2
Fore
SplineSet
597 -140 m 1,0,1
 561 -171 561 -171 523 -187 c 128,-1,2
 485 -203 485 -203 450.5 -201 c 128,-1,3
 416 -199 416 -199 390 -177.5 c 128,-1,4
 364 -156 364 -156 351 -113 c 2,5,-1
 249 202 l 1,6,-1
 227 245 l 1,7,-1
 113 569 l 2,8,9
 101 605 101 605 81 614.5 c 128,-1,10
 61 624 61 624 37 615 c 128,-1,11
 13 606 13 606 -10 585 c 1,12,-1
 -47 646 l 1,13,14
 -11 677 -11 677 27 693 c 128,-1,15
 65 709 65 709 99 707 c 128,-1,16
 133 705 133 705 159.5 683.5 c 128,-1,17
 186 662 186 662 200 619 c 2,18,-1
 297 327 l 1,19,-1
 316 286 l 1,20,-1
 437 -63 l 2,21,22
 450 -98 450 -98 470.5 -108 c 128,-1,23
 491 -118 491 -118 514 -108.5 c 128,-1,24
 537 -99 537 -99 559 -78 c 1,25,-1
 597 -140 l 1,0,1
-143 -194 m 1,26,-1
 239 303 l 1,27,-1
 254 300 l 1,28,-1
 548 702 l 1,29,-1
 664 702 l 1,30,-1
 300 236 l 1,31,-1
 287 235 l 1,32,-1
 -25 -194 l 1,33,-1
 -143 -194 l 1,26,-1
EndSplineSet
Substitution2: "'c2sc' Capitals to Small Capitals lookup 45 subtable" uniAB53.sc
Substitution2: "'aalt' Access All Alternates lookup 0 subtable" uniAB53.sc
EndChar

StartChar: uni0187
Encoding: 391 391 54
Width: 723
GlyphClass: 2
Flags: W
AnchorPoint: "Anchor-3" 469 700 basechar 0
AnchorPoint: "Anchor-0" 327 0 basechar 0
LayerCount: 2
Fore
SplineSet
401 -8 m 0,0,1
 296 -8 296 -8 221 29 c 128,-1,2
 146 66 146 66 107 132.5 c 128,-1,3
 68 199 68 199 68 287 c 0,4,5
 68 374 68 374 98 450.5 c 128,-1,6
 128 527 128 527 184 585 c 128,-1,7
 240 643 240 643 319 675.5 c 128,-1,8
 398 708 398 708 496 708 c 0,9,10
 584 708 584 708 650.5 679.5 c 128,-1,11
 717 651 717 651 753 599 c 1,12,-1
 682 537 l 1,13,14
 651 577 651 577 603 598 c 128,-1,15
 555 619 555 619 489 619 c 0,16,17
 415 619 415 619 355.5 593.5 c 128,-1,18
 296 568 296 568 254 522.5 c 128,-1,19
 212 477 212 477 190 418 c 128,-1,20
 168 359 168 359 168 293 c 0,21,22
 168 230 168 230 195 182.5 c 128,-1,23
 222 135 222 135 276 108 c 128,-1,24
 330 81 330 81 408 81 c 0,25,26
 473 81 473 81 526.5 102 c 128,-1,27
 580 123 580 123 620 164 c 1,28,-1
 679 98 l 1,29,30
 631 45 631 45 558.5 18.5 c 128,-1,31
 486 -8 486 -8 401 -8 c 0,0,1
661 599 m 1,32,-1
 675 674 l 2,33,34
 684 720 684 720 709 753 c 128,-1,35
 734 786 734 786 768 804.5 c 128,-1,36
 802 823 802 823 840.5 825.5 c 128,-1,37
 879 828 879 828 913 815 c 1,38,-1
 890 739 l 1,39,40
 860 749 860 749 834 742 c 128,-1,41
 808 735 808 735 789.5 713 c 128,-1,42
 771 691 771 691 764 655 c 2,43,-1
 753 599 l 1,44,-1
 661 599 l 1,32,-1
EndSplineSet
Substitution2: "'c2sc' Capitals to Small Capitals lookup 45 subtable" uni0188.sc
Substitution2: "'aalt' Access All Alternates lookup 0 subtable" uni0188.sc
EndChar

StartChar: uni023B
Encoding: 571 571 55
Width: 723
GlyphClass: 2
Flags: W
AnchorPoint: "Anchor-3" 500 700 basechar 0
AnchorPoint: "Anchor-0" 349 0 basechar 0
LayerCount: 2
Fore
SplineSet
108 -70 m 1,0,-1
 659 770 l 1,1,-1
 740 770 l 1,2,-1
 190 -70 l 1,3,-1
 108 -70 l 1,0,-1
394 -8 m 0,4,5
 288 -8 288 -8 213.5 29 c 128,-1,6
 139 66 139 66 99.5 132.5 c 128,-1,7
 60 199 60 199 60 287 c 0,8,9
 60 374 60 374 90 450.5 c 128,-1,10
 120 527 120 527 176.5 585 c 128,-1,11
 233 643 233 643 311.5 675.5 c 128,-1,12
 390 708 390 708 489 708 c 0,13,14
 576 708 576 708 643 680 c 128,-1,15
 710 652 710 652 746 599 c 1,16,-1
 674 537 l 1,17,18
 643 577 643 577 595 598 c 128,-1,19
 547 619 547 619 482 619 c 0,20,21
 407 619 407 619 347.5 593.5 c 128,-1,22
 288 568 288 568 246 522.5 c 128,-1,23
 204 477 204 477 182 418 c 128,-1,24
 160 359 160 359 160 293 c 0,25,26
 160 230 160 230 187.5 182.5 c 128,-1,27
 215 135 215 135 268.5 108 c 128,-1,28
 322 81 322 81 401 81 c 0,29,30
 465 81 465 81 518.5 102 c 128,-1,31
 572 123 572 123 613 164 c 1,32,-1
 671 98 l 1,33,34
 623 45 623 45 551 18.5 c 128,-1,35
 479 -8 479 -8 394 -8 c 0,4,5
EndSplineSet
Substitution2: "'c2sc' Capitals to Small Capitals lookup 45 subtable" uni023C.sc
Substitution2: "'aalt' Access All Alternates lookup 0 subtable" uni023C.sc
EndChar

StartChar: D
Encoding: 68 68 56
Width: 826
GlyphClass: 2
Flags: W
AnchorPoint: "Anchor-3" 465 699 basechar 0
AnchorPoint: "Anchor-1" 220 356 basechar 0
AnchorPoint: "Anchor-0" 329 0 basechar 0
LayerCount: 2
Fore
SplineSet
52 0 m 1,0,-1
 192 700 l 1,1,-1
 466 700 l 2,2,3
 572 700 572 700 647 664.5 c 128,-1,4
 722 629 722 629 761.5 565 c 128,-1,5
 801 501 801 501 801 413 c 0,6,7
 801 321 801 321 770 244.5 c 128,-1,8
 739 168 739 168 681.5 113.5 c 128,-1,9
 624 59 624 59 544 29.5 c 128,-1,10
 464 0 464 0 365 0 c 2,11,-1
 52 0 l 1,0,-1
169 87 m 1,12,-1
 368 87 l 2,13,14
 472 87 472 87 546 128.5 c 128,-1,15
 620 170 620 170 660 242.5 c 128,-1,16
 700 315 700 315 700 407 c 0,17,18
 700 470 700 470 673 516.5 c 128,-1,19
 646 563 646 563 591.5 588 c 128,-1,20
 537 613 537 613 456 613 c 2,21,-1
 274 613 l 1,22,-1
 169 87 l 1,12,-1
EndSplineSet
Substitution2: "'c2sc' Capitals to Small Capitals lookup 45 subtable" d.sc
Substitution2: "'aalt' Access All Alternates lookup 0 subtable" d.sc
EndChar

StartChar: uni018A
Encoding: 394 394 65
Width: 996
GlyphClass: 2
Flags: W
AnchorPoint: "Anchor-3" 635 699 basechar 0
AnchorPoint: "Anchor-1" 390 356 basechar 0
AnchorPoint: "Anchor-0" 499 0 basechar 0
LayerCount: 2
Fore
SplineSet
129 383 m 1,0,1
 92 439 92 439 87 495 c 128,-1,2
 82 551 82 551 104 597.5 c 128,-1,3
 126 644 126 644 171.5 672 c 128,-1,4
 217 700 217 700 280 700 c 2,5,-1
 371 700 l 1,6,-1
 353 613 l 1,7,-1
 281 613 l 2,8,9
 238 613 238 613 212 586 c 128,-1,10
 186 559 186 559 183.5 518.5 c 128,-1,11
 181 478 181 478 209 438 c 1,12,-1
 129 383 l 1,0,1
222 0 m 1,13,-1
 362 700 l 1,14,-1
 636 700 l 2,15,16
 742 700 742 700 817 664.5 c 128,-1,17
 892 629 892 629 931 565 c 128,-1,18
 970 501 970 501 970 413 c 0,19,20
 970 321 970 321 939.5 244.5 c 128,-1,21
 909 168 909 168 851.5 113.5 c 128,-1,22
 794 59 794 59 714 29.5 c 128,-1,23
 634 0 634 0 535 0 c 2,24,-1
 222 0 l 1,13,-1
339 87 m 1,25,-1
 538 87 l 2,26,27
 642 87 642 87 716 128.5 c 128,-1,28
 790 170 790 170 830 242.5 c 128,-1,29
 870 315 870 315 870 407 c 0,30,31
 870 470 870 470 843 516.5 c 128,-1,32
 816 563 816 563 761.5 588 c 128,-1,33
 707 613 707 613 626 613 c 2,34,-1
 444 613 l 1,35,-1
 339 87 l 1,25,-1
EndSplineSet
Substitution2: "'c2sc' Capitals to Small Capitals lookup 45 subtable" uni0257.sc
Substitution2: "'aalt' Access All Alternates lookup 0 subtable" uni0257.sc
EndChar

StartChar: uni018B
Encoding: 395 395 68
Width: 751
GlyphClass: 1
Flags: W
LayerCount: 2
Fore
SplineSet
269 0 m 2,0,1
 186 0 186 0 129 29.5 c 128,-1,2
 72 59 72 59 47 112 c 128,-1,3
 22 165 22 165 35 235 c 0,4,5
 52 325 52 325 122 370.5 c 128,-1,6
 192 416 192 416 315 416 c 2,7,-1
 577 416 l 1,8,-1
 617 613 l 1,9,-1
 190 613 l 1,10,-1
 208 700 l 1,11,-1
 733 700 l 1,12,-1
 593 0 l 1,13,-1
 269 0 l 2,0,1
285 81 m 2,14,-1
 510 81 l 1,15,-1
 561 334 l 1,16,-1
 326 334 l 2,17,18
 239 334 239 334 193 307.5 c 128,-1,19
 147 281 147 281 135 224 c 0,20,21
 122 159 122 159 163 120 c 128,-1,22
 204 81 204 81 285 81 c 2,14,-1
EndSplineSet
Substitution2: "'c2sc' Capitals to Small Capitals lookup 45 subtable" uni018C.sc
Substitution2: "'aalt' Access All Alternates lookup 0 subtable" uni018C.sc
EndChar

StartChar: E
Encoding: 69 69 72
Width: 670
GlyphClass: 2
Flags: W
AnchorPoint: "Anchor-3" 439 700 basechar 0
AnchorPoint: "Anchor-2" 561 0 basechar 0
AnchorPoint: "Anchor-0" 310 0 basechar 0
LayerCount: 2
Fore
SplineSet
223 398 m 1,0,-1
 583 398 l 1,1,-1
 566 313 l 1,2,-1
 206 313 l 1,3,-1
 223 398 l 1,0,-1
169 87 m 1,4,-1
 578 87 l 1,5,-1
 561 0 l 1,6,-1
 52 0 l 1,7,-1
 192 700 l 1,8,-1
 686 700 l 1,9,-1
 669 613 l 1,10,-1
 274 613 l 1,11,-1
 169 87 l 1,4,-1
EndSplineSet
Substitution2: "'ss01' Style Set 1 lookup 50 subtable" E.ss01
Substitution2: "'c2sc' Capitals to Small Capitals lookup 45 subtable" e.sc
AlternateSubs2: "'aalt' Access All Alternates lookup 1 subtable" e.sc E.ss01
EndChar

StartChar: uni0190
Encoding: 400 400 96
Width: 632
GlyphClass: 2
Flags: W
AnchorPoint: "Anchor-3" 443 700 basechar 0
AnchorPoint: "Anchor-2" 388 0 basechar 0
AnchorPoint: "Anchor-0" 310 0 basechar 0
LayerCount: 2
Fore
SplineSet
311 -9 m 0,0,1
 237 -9 237 -9 175 11 c 128,-1,2
 113 31 113 31 76 72 c 128,-1,3
 39 113 39 113 39 177 c 0,4,5
 39 237 39 237 70 283 c 128,-1,6
 101 329 101 329 156 354.5 c 128,-1,7
 211 380 211 380 281 380 c 1,8,-1
 281 350 l 1,9,10
 215 350 215 350 174 389 c 128,-1,11
 133 428 133 428 133 491 c 0,12,13
 133 546 133 546 159.5 586.5 c 128,-1,14
 186 627 186 627 230.5 654 c 128,-1,15
 275 681 275 681 330.5 694 c 128,-1,16
 386 707 386 707 444 707 c 0,17,18
 510 707 510 707 570 691 c 128,-1,19
 630 675 630 675 669 644 c 1,20,-1
 634 564 l 1,21,22
 595 592 595 592 541 606.5 c 128,-1,23
 487 621 487 621 432 621 c 0,24,25
 379 621 379 621 333.5 606.5 c 128,-1,26
 288 592 288 592 261 564 c 128,-1,27
 234 536 234 536 234 492 c 0,28,29
 234 449 234 449 265.5 425.5 c 128,-1,30
 297 402 297 402 355 402 c 2,31,-1
 516 402 l 1,32,-1
 499 321 l 1,33,-1
 326 321 l 2,34,35
 240 321 240 321 189.5 286.5 c 128,-1,36
 139 252 139 252 139 188 c 0,37,38
 139 150 139 150 162.5 125.5 c 128,-1,39
 186 101 186 101 226 89.5 c 128,-1,40
 266 78 266 78 314 78 c 256,41,42
 362 78 362 78 410 87 c 128,-1,43
 458 96 458 96 500 113 c 128,-1,44
 542 130 542 130 571 152 c 1,45,-1
 603 74 l 1,46,47
 547 34 547 34 468.5 12.5 c 128,-1,48
 390 -9 390 -9 311 -9 c 0,0,1
EndSplineSet
Substitution2: "'c2sc' Capitals to Small Capitals lookup 45 subtable" uni025B.sc
Substitution2: "'aalt' Access All Alternates lookup 0 subtable" uni025B.sc
EndChar

StartChar: uni018E
Encoding: 398 398 97
Width: 670
GlyphClass: 2
Flags: W
AnchorPoint: "Anchor-3" 394 700 basechar 0
AnchorPoint: "Anchor-0" 265 0 basechar 0
LayerCount: 2
Fore
SplineSet
483 313 m 1,0,-1
 123 313 l 1,1,-1
 140 398 l 1,2,-1
 500 398 l 1,3,-1
 483 313 l 1,0,-1
535 613 m 1,4,-1
 138 613 l 1,5,-1
 155 700 l 1,6,-1
 652 700 l 1,7,-1
 512 0 l 1,8,-1
 6 0 l 1,9,-1
 23 87 l 1,10,-1
 430 87 l 1,11,-1
 535 613 l 1,4,-1
EndSplineSet
Substitution2: "'ss01' Style Set 1 lookup 50 subtable" uni018E.ss01
Substitution2: "'c2sc' Capitals to Small Capitals lookup 45 subtable" uni0258.sc
AlternateSubs2: "'aalt' Access All Alternates lookup 1 subtable" uni0258.sc uni018E.ss01
EndChar

StartChar: uni01A9
Encoding: 425 425 99
Width: 506
GlyphClass: 1
Flags: W
LayerCount: 2
Fore
SplineSet
73 -6 m 256,0,1
 42 -3 42 -3 15 8 c 128,-1,2
 -12 19 -12 19 -28 34 c 1,3,-1
 19 108 l 1,4,5
 46 83 46 83 84 80 c 0,6,7
 117 77 117 77 145.5 94.5 c 128,-1,8
 174 112 174 112 183 156 c 2,9,-1
 260 555 l 2,10,11
 268 601 268 601 290 632 c 128,-1,12
 312 663 312 663 342 680.5 c 128,-1,13
 372 698 372 698 405.5 704.5 c 128,-1,14
 439 711 439 711 471 708 c 0,15,16
 501 704 501 704 527 694 c 128,-1,17
 553 684 553 684 569 669 c 1,18,-1
 522 592 l 1,19,20
 495 617 495 617 456 621 c 0,21,22
 424 624 424 624 396 606.5 c 128,-1,23
 368 589 368 589 359 545 c 2,24,-1
 281 146 l 2,25,26
 273 99 273 99 251 68.5 c 128,-1,27
 229 38 229 38 199 20.5 c 128,-1,28
 169 3 169 3 136.5 -3 c 128,-1,29
 104 -9 104 -9 73 -6 c 256,0,1
EndSplineSet
Substitution2: "'c2sc' Capitals to Small Capitals lookup 45 subtable" uni0283.sc
Substitution2: "'aalt' Access All Alternates lookup 0 subtable" uni0283.sc
EndChar

StartChar: uni0246
Encoding: 582 582 100
Width: 670
GlyphClass: 2
Flags: W
AnchorPoint: "Anchor-3" 440 700 basechar 0
AnchorPoint: "Anchor-2" 561 0 basechar 0
AnchorPoint: "Anchor-0" 310 0 basechar 0
LayerCount: 2
Fore
SplineSet
72 -70 m 1,0,-1
 620 770 l 1,1,-1
 701 770 l 1,2,-1
 154 -70 l 1,3,-1
 72 -70 l 1,0,-1
52 0 m 1,4,-1
 192 700 l 1,5,-1
 686 700 l 1,6,-1
 669 613 l 1,7,-1
 274 613 l 1,8,-1
 169 87 l 1,9,-1
 578 87 l 1,10,-1
 561 0 l 1,11,-1
 52 0 l 1,4,-1
206 313 m 1,12,-1
 223 398 l 1,13,-1
 583 398 l 1,14,-1
 565 313 l 1,15,-1
 206 313 l 1,12,-1
EndSplineSet
Substitution2: "'ss01' Style Set 1 lookup 50 subtable" uni0246.ss01
Substitution2: "'c2sc' Capitals to Small Capitals lookup 45 subtable" uni0247.sc
AlternateSubs2: "'aalt' Access All Alternates lookup 1 subtable" uni0247.sc uni0246.ss01
EndChar

StartChar: uni018F
Encoding: 399 399 103
Width: 817
GlyphClass: 2
Flags: W
AnchorPoint: "Anchor-3" 497 700 basechar 0
AnchorPoint: "Anchor-2" 409 0 basechar 0
AnchorPoint: "Anchor-0" 357 0 basechar 0
LayerCount: 2
Fore
SplineSet
378 -8 m 0,0,1
 278 -8 278 -8 206 29 c 128,-1,2
 134 66 134 66 95.5 132.5 c 128,-1,3
 57 199 57 199 57 286 c 0,4,5
 57 307 57 307 60 328 c 128,-1,6
 63 349 63 349 70 382 c 1,7,-1
 705 382 l 1,8,-1
 689 297 l 1,9,-1
 122 297 l 1,10,-1
 160 343 l 1,11,12
 158 327 158 327 156.5 317.5 c 128,-1,13
 155 308 155 308 155 292 c 0,14,15
 155 225 155 225 182 177 c 128,-1,16
 209 129 209 129 261 103.5 c 128,-1,17
 313 78 313 78 387 78 c 0,18,19
 456 78 456 78 512.5 104.5 c 128,-1,20
 569 131 569 131 608.5 176.5 c 128,-1,21
 648 222 648 222 669.5 281.5 c 128,-1,22
 691 341 691 341 691 407 c 0,23,24
 691 470 691 470 665 517.5 c 128,-1,25
 639 565 639 565 587.5 592 c 128,-1,26
 536 619 536 619 458 619 c 0,27,28
 393 619 393 619 334 598.5 c 128,-1,29
 275 578 275 578 232 540 c 1,30,-1
 183 613 l 1,31,32
 234 658 234 658 308 683 c 128,-1,33
 382 708 382 708 466 708 c 0,34,35
 571 708 571 708 643 671 c 128,-1,36
 715 634 715 634 753 567.5 c 128,-1,37
 791 501 791 501 791 413 c 0,38,39
 791 326 791 326 762 249.5 c 128,-1,40
 733 173 733 173 678.5 115 c 128,-1,41
 624 57 624 57 548 24.5 c 128,-1,42
 472 -8 472 -8 378 -8 c 0,0,1
EndSplineSet
Substitution2: "'ss01' Style Set 1 lookup 50 subtable" uni018F.ss01
Substitution2: "'c2sc' Capitals to Small Capitals lookup 45 subtable" uni0259.sc
AlternateSubs2: "'aalt' Access All Alternates lookup 1 subtable" uni0259.sc uni018F.ss01
EndChar

StartChar: uni01B8
Encoding: 440 440 106
Width: 633
GlyphClass: 2
Flags: W
AnchorPoint: "Anchor-3" 408 700 basechar 0
AnchorPoint: "Anchor-0" 268 0 basechar 0
LayerCount: 2
Fore
SplineSet
292 -8 m 0,0,1
 222 -8 222 -8 172 11.5 c 128,-1,2
 122 31 122 31 91 64.5 c 128,-1,3
 60 98 60 98 49 139.5 c 128,-1,4
 38 181 38 181 47 226 c 0,5,6
 65 315 65 315 143.5 360.5 c 128,-1,7
 222 406 222 406 355 406 c 2,8,-1
 388 406 l 1,9,-1
 343 377 l 1,10,-1
 165 632 l 1,11,-1
 179 700 l 1,12,-1
 662 700 l 1,13,-1
 645 615 l 1,14,-1
 238 615 l 1,15,-1
 256 660 l 1,16,-1
 436 405 l 1,17,-1
 420 328 l 1,18,-1
 349 328 l 2,19,20
 253 328 253 328 205 300.5 c 128,-1,21
 157 273 157 273 145 217 c 0,22,23
 137 178 137 178 153.5 146.5 c 128,-1,24
 170 115 170 115 208 97 c 128,-1,25
 246 79 246 79 304 79 c 0,26,27
 374 79 374 79 436.5 100.5 c 128,-1,28
 499 122 499 122 543 155 c 1,29,-1
 563 76 l 1,30,31
 514 38 514 38 443.5 15 c 128,-1,32
 373 -8 373 -8 292 -8 c 0,0,1
EndSplineSet
Substitution2: "'c2sc' Capitals to Small Capitals lookup 45 subtable" uni01B9.sc
Substitution2: "'aalt' Access All Alternates lookup 0 subtable" uni01B9.sc
EndChar

StartChar: F
Encoding: 70 70 107
Width: 635
GlyphClass: 2
Flags: W
AnchorPoint: "Anchor-3" 405 700 basechar 0
AnchorPoint: "Anchor-0" 265 0 basechar 0
LayerCount: 2
Fore
SplineSet
217 369 m 1,0,-1
 577 369 l 1,1,-1
 560 283 l 1,2,-1
 199 283 l 1,3,-1
 217 369 l 1,0,-1
152 0 m 1,4,-1
 52 0 l 1,5,-1
 192 700 l 1,6,-1
 686 700 l 1,7,-1
 669 613 l 1,8,-1
 274 613 l 1,9,-1
 152 0 l 1,4,-1
EndSplineSet
Substitution2: "'ss01' Style Set 1 lookup 50 subtable" F.ss01
Substitution2: "'c2sc' Capitals to Small Capitals lookup 45 subtable" f.sc
AlternateSubs2: "'aalt' Access All Alternates lookup 1 subtable" f.sc F.ss01
EndChar

StartChar: uni0191
Encoding: 401 401 109
Width: 636
GlyphClass: 1
Flags: W
LayerCount: 2
Fore
SplineSet
-119 -181 m 1,0,-1
 -86 -104 l 1,1,2
 -51 -118 -51 -118 -23 -115 c 128,-1,3
 5 -112 5 -112 24 -92.5 c 128,-1,4
 43 -73 43 -73 49 -39 c 2,5,-1
 197 700 l 1,6,-1
 692 700 l 1,7,-1
 674 613 l 1,8,-1
 279 613 l 1,9,-1
 146 -55 l 2,10,11
 137 -101 137 -101 110.5 -133.5 c 128,-1,12
 84 -166 84 -166 46.5 -183.5 c 128,-1,13
 9 -201 9 -201 -34 -201 c 128,-1,14
 -77 -201 -77 -201 -119 -181 c 1,0,-1
204 283 m 1,15,-1
 222 369 l 1,16,-1
 582 369 l 1,17,-1
 565 283 l 1,18,-1
 204 283 l 1,15,-1
EndSplineSet
Substitution2: "'ss01' Style Set 1 lookup 50 subtable" uni0191.ss01
Substitution2: "'c2sc' Capitals to Small Capitals lookup 45 subtable" florin.sc
AlternateSubs2: "'aalt' Access All Alternates lookup 1 subtable" florin.sc uni0191.ss01
EndChar

StartChar: G
Encoding: 71 71 110
Width: 772
GlyphClass: 2
Flags: W
AnchorPoint: "Anchor-3" 497 700 basechar 0
AnchorPoint: "Anchor-0" 352 0 basechar 0
LayerCount: 2
Fore
SplineSet
394 -8 m 0,0,1
 290 -8 290 -8 215.5 29 c 128,-1,2
 141 66 141 66 100.5 132.5 c 128,-1,3
 60 199 60 199 60 287 c 0,4,5
 60 374 60 374 90 450.5 c 128,-1,6
 120 527 120 527 176.5 585 c 128,-1,7
 233 643 233 643 312.5 675.5 c 128,-1,8
 392 708 392 708 491 708 c 0,9,10
 583 708 583 708 651.5 680 c 128,-1,11
 720 652 720 652 761 600 c 1,12,-1
 689 539 l 1,13,14
 654 580 654 580 603.5 599.5 c 128,-1,15
 553 619 553 619 487 619 c 0,16,17
 412 619 412 619 352 593.5 c 128,-1,18
 292 568 292 568 249 523.5 c 128,-1,19
 206 479 206 479 183 419.5 c 128,-1,20
 160 360 160 360 160 293 c 0,21,22
 160 230 160 230 187.5 182.5 c 128,-1,23
 215 135 215 135 269.5 108 c 128,-1,24
 324 81 324 81 405 81 c 0,25,26
 464 81 464 81 514.5 101 c 128,-1,27
 565 121 565 121 610 159 c 1,28,-1
 649 79 l 1,29,30
 598 38 598 38 531.5 15 c 128,-1,31
 465 -8 465 -8 394 -8 c 0,0,1
557 94 m 1,32,-1
 608 354 l 1,33,-1
 704 354 l 1,34,-1
 649 79 l 1,35,-1
 557 94 l 1,32,-1
EndSplineSet
Substitution2: "'ss01' Style Set 1 lookup 50 subtable" G.ss01
Substitution2: "'c2sc' Capitals to Small Capitals lookup 45 subtable" g.sc
AlternateSubs2: "'aalt' Access All Alternates lookup 1 subtable" g.sc G.ss01
EndChar

StartChar: uni0193
Encoding: 403 403 117
Width: 764
GlyphClass: 2
Flags: W
AnchorPoint: "Anchor-3" 521 700 basechar 0
AnchorPoint: "Anchor-0" 375 0 basechar 0
LayerCount: 2
Fore
SplineSet
394 -8 m 0,0,1
 290 -8 290 -8 215.5 29 c 128,-1,2
 141 66 141 66 100.5 132.5 c 128,-1,3
 60 199 60 199 60 287 c 0,4,5
 60 374 60 374 90 450.5 c 128,-1,6
 120 527 120 527 176.5 585 c 128,-1,7
 233 643 233 643 312.5 675.5 c 128,-1,8
 392 708 392 708 491 708 c 0,9,10
 583 708 583 708 651.5 679.5 c 128,-1,11
 720 651 720 651 761 599 c 1,12,-1
 689 539 l 1,13,14
 654 580 654 580 603.5 599.5 c 128,-1,15
 553 619 553 619 487 619 c 0,16,17
 412 619 412 619 352 593.5 c 128,-1,18
 292 568 292 568 249 523.5 c 128,-1,19
 206 479 206 479 183 419.5 c 128,-1,20
 160 360 160 360 160 293 c 0,21,22
 160 230 160 230 187.5 182.5 c 128,-1,23
 215 135 215 135 269.5 108 c 128,-1,24
 324 81 324 81 405 81 c 0,25,26
 464 81 464 81 514.5 101 c 128,-1,27
 565 121 565 121 610 159 c 1,28,-1
 649 79 l 1,29,30
 598 38 598 38 531.5 15 c 128,-1,31
 465 -8 465 -8 394 -8 c 0,0,1
649 79 m 1,32,-1
 557 94 l 1,33,-1
 608 354 l 1,34,-1
 704 354 l 1,35,-1
 649 79 l 1,32,-1
669 599 m 1,36,-1
 683 674 l 2,37,38
 692 720 692 720 716.5 753 c 128,-1,39
 741 786 741 786 775.5 804.5 c 128,-1,40
 810 823 810 823 848 825.5 c 128,-1,41
 886 828 886 828 921 815 c 1,42,-1
 898 739 l 1,43,44
 868 748 868 748 841.5 741.5 c 128,-1,45
 815 735 815 735 797 713 c 128,-1,46
 779 691 779 691 771 655 c 2,47,-1
 761 599 l 1,48,-1
 669 599 l 1,36,-1
EndSplineSet
Substitution2: "'ss01' Style Set 1 lookup 50 subtable" uni0193.ss01
Substitution2: "'c2sc' Capitals to Small Capitals lookup 45 subtable" uni0260.sc
AlternateSubs2: "'aalt' Access All Alternates lookup 1 subtable" uni0260.sc uni0193.ss01
EndChar

StartChar: uni0241
Encoding: 577 577 118
Width: 571
GlyphClass: 2
Flags: W
AnchorPoint: "Anchor-3" 339 700 basechar 0
AnchorPoint: "Anchor-0" 199 0 basechar 0
LayerCount: 2
Fore
SplineSet
149 0 m 1,0,-1
 180 157 l 2,1,2
 191 209 191 209 216 243.5 c 128,-1,3
 241 278 241 278 274.5 301.5 c 128,-1,4
 308 325 308 325 343.5 344 c 128,-1,5
 379 363 379 363 411.5 382 c 128,-1,6
 444 401 444 401 468 426.5 c 128,-1,7
 492 452 492 452 499 490 c 0,8,9
 509 536 509 536 487.5 564.5 c 128,-1,10
 466 593 466 593 426 607.5 c 128,-1,11
 386 622 386 622 339 622 c 0,12,13
 298 622 298 622 254.5 610.5 c 128,-1,14
 211 599 211 599 171.5 575.5 c 128,-1,15
 132 552 132 552 101 516 c 1,16,-1
 34 573 l 1,17,18
 75 618 75 618 128 648 c 128,-1,19
 181 678 181 678 239.5 693 c 128,-1,20
 298 708 298 708 356 708 c 0,21,22
 412 708 412 708 460 694.5 c 128,-1,23
 508 681 508 681 543.5 654.5 c 128,-1,24
 579 628 579 628 594.5 587 c 128,-1,25
 610 546 610 546 599 491 c 0,26,27
 589 442 589 442 564 407.5 c 128,-1,28
 539 373 539 373 505.5 348.5 c 128,-1,29
 472 324 472 324 436 304.5 c 128,-1,30
 400 285 400 285 367 264.5 c 128,-1,31
 334 244 334 244 310 217 c 128,-1,32
 286 190 286 190 279 152 c 2,33,-1
 248 0 l 1,34,-1
 149 0 l 1,0,-1
EndSplineSet
Substitution2: "'c2sc' Capitals to Small Capitals lookup 45 subtable" uni0294.sc
Substitution2: "'aalt' Access All Alternates lookup 0 subtable" uni0294.sc
EndChar

StartChar: uni01E4
Encoding: 484 484 120
Width: 807
GlyphClass: 2
Flags: W
AnchorPoint: "Anchor-3" 514 700 basechar 0
AnchorPoint: "Anchor-0" 369 0 basechar 0
LayerCount: 2
Fore
SplineSet
394 -8 m 0,0,1
 290 -8 290 -8 215.5 29 c 128,-1,2
 141 66 141 66 100.5 132.5 c 128,-1,3
 60 199 60 199 60 287 c 0,4,5
 60 374 60 374 90 450.5 c 128,-1,6
 120 527 120 527 176.5 585 c 128,-1,7
 233 643 233 643 312.5 675.5 c 128,-1,8
 392 708 392 708 491 708 c 0,9,10
 583 708 583 708 651.5 680 c 128,-1,11
 720 652 720 652 761 600 c 1,12,-1
 689 539 l 1,13,14
 654 580 654 580 603.5 599.5 c 128,-1,15
 553 619 553 619 487 619 c 0,16,17
 412 619 412 619 352 593.5 c 128,-1,18
 292 568 292 568 249 523.5 c 128,-1,19
 206 479 206 479 183 419.5 c 128,-1,20
 160 360 160 360 160 293 c 0,21,22
 160 230 160 230 187.5 182.5 c 128,-1,23
 215 135 215 135 269.5 108 c 128,-1,24
 324 81 324 81 405 81 c 0,25,26
 464 81 464 81 514.5 101 c 128,-1,27
 565 121 565 121 610 159 c 1,28,-1
 649 79 l 1,29,30
 598 38 598 38 531.5 15 c 128,-1,31
 465 -8 465 -8 394 -8 c 0,0,1
557 94 m 1,32,-1
 608 354 l 1,33,-1
 704 354 l 1,34,-1
 649 79 l 1,35,-1
 557 94 l 1,32,-1
426 209 m 1,36,-1
 441 288 l 1,37,-1
 795 288 l 1,38,-1
 779 209 l 1,39,-1
 426 209 l 1,36,-1
EndSplineSet
Substitution2: "'ss01' Style Set 1 lookup 50 subtable" uni01E4.ss01
Substitution2: "'c2sc' Capitals to Small Capitals lookup 45 subtable" uni01E5.sc
AlternateSubs2: "'aalt' Access All Alternates lookup 1 subtable" uni01E5.sc uni01E4.ss01
EndChar

StartChar: uni021C
Encoding: 540 540 121
Width: 625
GlyphClass: 1
Flags: W
LayerCount: 2
Fore
SplineSet
-83 -107 m 1,0,-1
 -72 -22 l 1,1,2
 -3 -14 -3 -14 62 -2 c 128,-1,3
 127 10 127 10 185 26 c 128,-1,4
 243 42 243 42 291 62.5 c 128,-1,5
 339 83 339 83 374.5 108 c 128,-1,6
 410 133 410 133 429 163 c 128,-1,7
 448 193 448 193 448 227 c 0,8,9
 448 283 448 283 403.5 298 c 128,-1,10
 359 313 359 313 284 297 c 2,11,-1
 144 266 l 1,12,-1
 150 350 l 1,13,-1
 266 376 l 2,14,15
 301 384 301 384 338.5 397 c 128,-1,16
 376 410 376 410 408.5 429.5 c 128,-1,17
 441 449 441 449 460.5 475.5 c 128,-1,18
 480 502 480 502 480 537 c 0,19,20
 480 561 480 561 469.5 580.5 c 128,-1,21
 459 600 459 600 434.5 611.5 c 128,-1,22
 410 623 410 623 369 623 c 0,23,24
 334 623 334 623 289 613.5 c 128,-1,25
 244 604 244 604 192 584.5 c 128,-1,26
 140 565 140 565 83 537 c 1,27,-1
 63 613 l 1,28,29
 118 644 118 644 175.5 665 c 128,-1,30
 233 686 233 686 288.5 697 c 128,-1,31
 344 708 344 708 391 708 c 0,32,33
 462 708 462 708 504.5 686.5 c 128,-1,34
 547 665 547 665 566 629.5 c 128,-1,35
 585 594 585 594 585 552 c 0,36,37
 585 503 585 503 562 466 c 128,-1,38
 539 429 539 429 500 402 c 128,-1,39
 461 375 461 375 411 357 c 128,-1,40
 361 339 361 339 307 327 c 1,41,-1
 308 347 l 1,42,43
 375 366 375 366 430 358.5 c 128,-1,44
 485 351 485 351 518 318.5 c 128,-1,45
 551 286 551 286 551 227 c 0,46,47
 551 175 551 175 522.5 131 c 128,-1,48
 494 87 494 87 444 52 c 128,-1,49
 394 17 394 17 330.5 -10.5 c 128,-1,50
 267 -38 267 -38 196 -57 c 128,-1,51
 125 -76 125 -76 53.5 -88.5 c 128,-1,52
 -18 -101 -18 -101 -83 -107 c 1,0,-1
EndSplineSet
Substitution2: "'c2sc' Capitals to Small Capitals lookup 45 subtable" uni021D.sc
Substitution2: "'aalt' Access All Alternates lookup 0 subtable" uni021D.sc
EndChar

StartChar: H
Encoding: 72 72 122
Width: 812
GlyphClass: 2
Flags: W
AnchorPoint: "Anchor-3" 493 700 basechar 0
AnchorPoint: "Anchor-1" 463 553 basechar 0
AnchorPoint: "Anchor-0" 353 0 basechar 0
LayerCount: 2
Fore
SplineSet
694 700 m 1,0,-1
 794 700 l 1,1,-1
 654 0 l 1,2,-1
 554 0 l 1,3,-1
 694 700 l 1,0,-1
152 0 m 1,4,-1
 52 0 l 1,5,-1
 192 700 l 1,6,-1
 292 700 l 1,7,-1
 152 0 l 1,4,-1
626 312 m 1,8,-1
 206 312 l 1,9,-1
 223 399 l 1,10,-1
 643 399 l 1,11,-1
 626 312 l 1,8,-1
EndSplineSet
Substitution2: "'c2sc' Capitals to Small Capitals lookup 45 subtable" h.sc
Substitution2: "'aalt' Access All Alternates lookup 0 subtable" h.sc
EndChar

StartChar: Hbar
Encoding: 294 294 123
Width: 829
GlyphClass: 2
Flags: W
AnchorPoint: "Anchor-3" 500 700 basechar 0
AnchorPoint: "Anchor-1" 471 553 basechar 0
AnchorPoint: "Anchor-0" 360 0 basechar 0
LayerCount: 2
Fore
SplineSet
702 700 m 1,0,-1
 801 700 l 1,1,-1
 661 0 l 1,2,-1
 562 0 l 1,3,-1
 702 700 l 1,0,-1
159 0 m 1,4,-1
 60 0 l 1,5,-1
 200 700 l 1,6,-1
 299 700 l 1,7,-1
 159 0 l 1,4,-1
633 312 m 1,8,-1
 214 312 l 1,9,-1
 231 399 l 1,10,-1
 651 399 l 1,11,-1
 633 312 l 1,8,-1
58 505 m 1,12,-1
 73 584 l 1,13,-1
 882 584 l 1,14,-1
 867 505 l 1,15,-1
 58 505 l 1,12,-1
EndSplineSet
Substitution2: "'c2sc' Capitals to Small Capitals lookup 45 subtable" hbar.sc
Substitution2: "'aalt' Access All Alternates lookup 0 subtable" hbar.sc
EndChar

StartChar: uni1E28
Encoding: 7720 7720 126
Width: 812
GlyphClass: 2
Flags: W
AnchorPoint: "Anchor-3" 493 700 basechar 0
AnchorPoint: "Anchor-1" 463 553 basechar 0
AnchorPoint: "Anchor-0" 353 0 basechar 0
LayerCount: 2
Fore
SplineSet
554 0 m 1,0,-1
 694 700 l 1,1,-1
 794 700 l 1,2,-1
 654 0 l 1,3,-1
 554 0 l 1,0,-1
55 -224 m 0,4,5
 27 -224 27 -224 6 -218.5 c 128,-1,6
 -15 -213 -15 -213 -32 -202 c 1,7,-1
 -1 -153 l 1,8,9
 12 -162 12 -162 28 -166 c 128,-1,10
 44 -170 44 -170 62 -170 c 0,11,12
 91 -170 91 -170 108 -160 c 128,-1,13
 125 -150 125 -150 128 -131 c 256,14,15
 131 -112 131 -112 118.5 -101.5 c 128,-1,16
 106 -91 106 -91 78 -91 c 2,17,-1
 39 -91 l 1,18,-1
 83 6 l 1,19,-1
 137 6 l 1,20,-1
 113 -50 l 1,21,22
 157 -53 157 -53 180 -76.5 c 128,-1,23
 203 -100 203 -100 195 -138 c 0,24,25
 186 -179 186 -179 149 -201.5 c 128,-1,26
 112 -224 112 -224 55 -224 c 0,4,5
52 0 m 1,27,-1
 192 700 l 1,28,-1
 292 700 l 1,29,-1
 152 0 l 1,30,-1
 52 0 l 1,27,-1
205 312 m 1,31,-1
 222 399 l 1,32,-1
 643 399 l 1,33,-1
 625 312 l 1,34,-1
 205 312 l 1,31,-1
EndSplineSet
Substitution2: "'c2sc' Capitals to Small Capitals lookup 45 subtable" uni1E29.sc
Substitution2: "'aalt' Access All Alternates lookup 0 subtable" uni1E29.sc
EndChar

StartChar: uniA7AA
Encoding: 42922 42922 132
Width: 982
GlyphClass: 2
Flags: W
AnchorPoint: "Anchor-3" 663 700 basechar 0
AnchorPoint: "Anchor-1" 633 553 basechar 0
AnchorPoint: "Anchor-0" 523 0 basechar 0
LayerCount: 2
Fore
SplineSet
129 383 m 1,0,1
 92 439 92 439 87 495 c 128,-1,2
 82 551 82 551 104 597.5 c 128,-1,3
 126 644 126 644 171.5 672 c 128,-1,4
 217 700 217 700 280 700 c 2,5,-1
 371 700 l 1,6,-1
 353 613 l 1,7,-1
 281 613 l 2,8,9
 238 613 238 613 212 586 c 128,-1,10
 186 559 186 559 183.5 518.5 c 128,-1,11
 181 478 181 478 209 438 c 1,12,-1
 129 383 l 1,0,1
864 700 m 1,13,-1
 964 700 l 1,14,-1
 824 0 l 1,15,-1
 724 0 l 1,16,-1
 864 700 l 1,13,-1
322 0 m 1,17,-1
 222 0 l 1,18,-1
 362 700 l 1,19,-1
 462 700 l 1,20,-1
 322 0 l 1,17,-1
796 312 m 1,21,-1
 376 312 l 1,22,-1
 393 399 l 1,23,-1
 813 399 l 1,24,-1
 796 312 l 1,21,-1
EndSplineSet
Substitution2: "'c2sc' Capitals to Small Capitals lookup 45 subtable" uni0266.sc
Substitution2: "'aalt' Access All Alternates lookup 0 subtable" uni0266.sc
EndChar

StartChar: uniA78D
Encoding: 42893 42893 133
Width: 751
GlyphClass: 2
Flags: W
AnchorPoint: "Anchor-3" 419 700 basechar 0
AnchorPoint: "Anchor-0" 279 0 basechar 0
LayerCount: 2
Fore
SplineSet
496 0 m 1,0,-1
 576 398 l 1,1,-1
 603 380 l 1,2,3
 559 297 559 297 496.5 258 c 128,-1,4
 434 219 434 219 341 219 c 256,5,6
 248 219 248 219 188.5 255.5 c 128,-1,7
 129 292 129 292 106 358.5 c 128,-1,8
 83 425 83 425 101 516 c 2,9,-1
 138 700 l 1,10,-1
 238 700 l 1,11,-1
 202 519 l 2,12,13
 181 419 181 419 224 363.5 c 128,-1,14
 267 308 267 308 363 308 c 0,15,16
 455 308 455 308 515.5 360.5 c 128,-1,17
 576 413 576 413 595 509 c 2,18,-1
 633 700 l 1,19,-1
 732 700 l 1,20,-1
 592 0 l 1,21,-1
 496 0 l 1,0,-1
EndSplineSet
Substitution2: "'c2sc' Capitals to Small Capitals lookup 45 subtable" uni0265.sc
Substitution2: "'aalt' Access All Alternates lookup 0 subtable" uni0265.sc
EndChar

StartChar: I
Encoding: 73 73 134
Width: 310
GlyphClass: 2
Flags: W
AnchorPoint: "Anchor-3" 242 700 basechar 0
AnchorPoint: "Anchor-2" 152 0 basechar 0
AnchorPoint: "Anchor-1" 171 350 basechar 0
AnchorPoint: "Anchor-0" 102 0 basechar 0
LayerCount: 2
Fore
SplineSet
52 0 m 1,0,-1
 192 700 l 1,1,-1
 292 700 l 1,2,-1
 152 0 l 1,3,-1
 52 0 l 1,0,-1
EndSplineSet
Substitution2: "'ss01' Style Set 1 lookup 50 subtable" I.ss01
Substitution2: "'c2sc' Capitals to Small Capitals lookup 45 subtable" i.sc
AlternateSubs2: "'aalt' Access All Alternates lookup 1 subtable" i.sc I.ss01
EndChar

StartChar: IJ
Encoding: 306 306 135
Width: 709
GlyphClass: 2
Flags: W
AnchorPoint: "Anchor-3" 256 700 basechar 0
LayerCount: 2
Fore
SplineSet
295 -8 m 0,0,1
 215 -8 215 -8 153 11.5 c 128,-1,2
 91 31 91 31 48 64 c 1,3,-1
 98 144 l 1,4,5
 140 113 140 113 192 97 c 128,-1,6
 244 81 244 81 302 81 c 0,7,8
 396 81 396 81 450.5 133.5 c 128,-1,9
 505 186 505 186 528 302 c 2,10,-1
 608 700 l 1,11,-1
 707 700 l 1,12,-1
 627 296 l 2,13,14
 596 141 596 141 514 66.5 c 128,-1,15
 432 -8 432 -8 295 -8 c 0,0,1
108 309 m 1,16,-1
 186 700 l 1,17,-1
 286 700 l 1,18,-1
 207 309 l 1,19,-1
 108 309 l 1,16,-1
EndSplineSet
Substitution2: "'ss01' Style Set 1 lookup 50 subtable" IJ.ss01
Substitution2: "'c2sc' Capitals to Small Capitals lookup 45 subtable" ij.sc
AlternateSubs2: "'aalt' Access All Alternates lookup 1 subtable" ij.sc IJ.ss01
EndChar

StartChar: Iacute_J.loclNLD
Encoding: 65537 -1 136
Width: 720
GlyphClass: 1
Flags: W
LayerCount: 2
Fore
SplineSet
292 -8 m 0,0,1
 213 -8 213 -8 152.5 12 c 128,-1,2
 92 32 92 32 48 64 c 1,3,-1
 98 144 l 1,4,5
 139 113 139 113 189.5 96.5 c 128,-1,6
 240 80 240 80 296 80 c 0,7,8
 392 80 392 80 448.5 133 c 128,-1,9
 505 186 505 186 528 302 c 2,10,-1
 608 700 l 1,11,-1
 707 700 l 1,12,-1
 627 296 l 2,13,14
 596 141 596 141 512.5 66.5 c 128,-1,15
 429 -8 429 -8 292 -8 c 0,0,1
107 309 m 1,16,-1
 185 700 l 1,17,-1
 286 700 l 1,18,-1
 207 309 l 1,19,-1
 107 309 l 1,16,-1
198 757 m 1,20,-1
 361 887 l 1,21,-1
 466 887 l 1,22,-1
 273 757 l 1,23,-1
 198 757 l 1,20,-1
622 757 m 1,24,-1
 784 887 l 1,25,-1
 889 887 l 1,26,-1
 696 757 l 1,27,-1
 622 757 l 1,24,-1
EndSplineSet
Substitution2: "'ss01' Style Set 1 lookup 50 subtable" Iacute_J.loclNLD.ss01
Substitution2: "'c2sc' Capitals to Small Capitals lookup 45 subtable" iacute_j.loclNLD.sc
Ligature2: "'locl' Localized Forms in Latin lookup 16 subtable" Iacute J
AlternateSubs2: "'aalt' Access All Alternates lookup 1 subtable" iacute_j.loclNLD.sc Iacute_J.loclNLD.ss01
EndChar

StartChar: uni0196
Encoding: 406 406 151
Width: 384
GlyphClass: 2
Flags: W
AnchorPoint: "Anchor-3" 237 700 basechar 0
AnchorPoint: "Anchor-2" 273 0 basechar 0
AnchorPoint: "Anchor-0" 147 0 basechar 0
LayerCount: 2
Fore
SplineSet
229 -8 m 0,0,1
 183 -8 183 -8 145 13 c 128,-1,2
 107 34 107 34 88 71 c 128,-1,3
 69 108 69 108 79 156 c 2,4,-1
 188 700 l 1,5,-1
 287 700 l 1,6,-1
 180 164 l 2,7,8
 172 125 172 125 191 102 c 128,-1,9
 210 79 210 79 247 79 c 0,10,11
 264 79 264 79 284 85 c 128,-1,12
 304 91 304 91 325 103 c 1,13,-1
 342 29 l 1,14,15
 315 10 315 10 286 1 c 128,-1,16
 257 -8 257 -8 229 -8 c 0,0,1
EndSplineSet
Substitution2: "'c2sc' Capitals to Small Capitals lookup 45 subtable" uni0269.sc
Substitution2: "'aalt' Access All Alternates lookup 0 subtable" uni0269.sc
EndChar

StartChar: uni0197
Encoding: 407 407 152
Width: 368
GlyphClass: 2
Flags: W
AnchorPoint: "Anchor-3" 271 700 basechar 0
AnchorPoint: "Anchor-2" 181 0 basechar 0
AnchorPoint: "Anchor-0" 131 0 basechar 0
LayerCount: 2
Fore
SplineSet
82 0 m 1,0,-1
 222 700 l 1,1,-1
 321 700 l 1,2,-1
 181 0 l 1,3,-1
 82 0 l 1,0,-1
42 319 m 1,4,-1
 57 398 l 1,5,-1
 363 398 l 1,6,-1
 348 319 l 1,7,-1
 42 319 l 1,4,-1
EndSplineSet
Substitution2: "'ss01' Style Set 1 lookup 50 subtable" uni0197.ss01
Substitution2: "'c2sc' Capitals to Small Capitals lookup 45 subtable" uni0268.sc
AlternateSubs2: "'aalt' Access All Alternates lookup 1 subtable" uni0268.sc uni0197.ss01
EndChar

StartChar: J
Encoding: 74 74 155
Width: 502
GlyphClass: 2
Flags: W
AnchorPoint: "Anchor-3" 326 700 basechar 0
LayerCount: 2
Fore
SplineSet
162 -8 m 0,0,1
 91 -8 91 -8 38.5 19 c 128,-1,2
 -14 46 -14 46 -41 94 c 1,3,-1
 28 159 l 1,4,5
 48 122 48 122 82.5 100 c 128,-1,6
 117 78 117 78 164 78 c 0,7,8
 221 78 221 78 257 110 c 128,-1,9
 293 142 293 142 307 215 c 2,10,-1
 386 613 l 1,11,-1
 133 613 l 1,12,-1
 151 700 l 1,13,-1
 501 700 l 1,14,-1
 405 219 l 2,15,16
 389 135 389 135 357 85.5 c 128,-1,17
 325 36 325 36 276.5 14 c 128,-1,18
 228 -8 228 -8 162 -8 c 0,0,1
EndSplineSet
Substitution2: "'ss01' Style Set 1 lookup 50 subtable" J.ss01
Substitution2: "'c2sc' Capitals to Small Capitals lookup 45 subtable" j.sc
AlternateSubs2: "'aalt' Access All Alternates lookup 1 subtable" j.sc J.ss01
EndChar

StartChar: uniA7B2
Encoding: 42930 42930 157
Width: 511
GlyphClass: 1
Flags: W
LayerCount: 2
Fore
SplineSet
167 -8 m 0,0,1
 107 -8 107 -8 64 14 c 128,-1,2
 21 36 21 36 2 75 c 128,-1,3
 -17 114 -17 114 -7 162 c 0,4,5
 6 221 6 221 57.5 253 c 128,-1,6
 109 285 109 285 193 285 c 2,7,-1
 494 285 l 1,8,-1
 477 205 l 1,9,-1
 191 205 l 2,10,11
 148 205 148 205 120.5 191 c 128,-1,12
 93 177 93 177 86 150 c 0,13,14
 77 117 77 117 100.5 94.5 c 128,-1,15
 124 72 124 72 167 72 c 0,16,17
 199 72 199 72 225.5 87 c 128,-1,18
 252 102 252 102 270 130.5 c 128,-1,19
 288 159 288 159 296 199 c 2,20,-1
 382 613 l 1,21,-1
 129 613 l 1,22,-1
 147 700 l 1,23,-1
 499 700 l 1,24,-1
 392 178 l 2,25,26
 380 121 380 121 349.5 79.5 c 128,-1,27
 319 38 319 38 272.5 15 c 128,-1,28
 226 -8 226 -8 167 -8 c 0,0,1
EndSplineSet
Substitution2: "'ss01' Style Set 1 lookup 50 subtable" uniA7B2.ss01
Substitution2: "'c2sc' Capitals to Small Capitals lookup 45 subtable" uni029D.sc
AlternateSubs2: "'aalt' Access All Alternates lookup 1 subtable" uni029D.sc uniA7B2.ss01
EndChar

StartChar: uni0248
Encoding: 584 584 158
Width: 513
GlyphClass: 2
Flags: W
AnchorPoint: "Anchor-3" 326 700 basechar 0
LayerCount: 2
Fore
SplineSet
162 -8 m 0,0,1
 91 -8 91 -8 38.5 19 c 128,-1,2
 -14 46 -14 46 -41 94 c 1,3,-1
 28 159 l 1,4,5
 48 122 48 122 82.5 100 c 128,-1,6
 117 78 117 78 164 78 c 0,7,8
 221 78 221 78 257 110 c 128,-1,9
 293 142 293 142 307 215 c 2,10,-1
 386 613 l 1,11,-1
 133 613 l 1,12,-1
 151 700 l 1,13,-1
 501 700 l 1,14,-1
 405 219 l 2,15,16
 389 135 389 135 357 85.5 c 128,-1,17
 325 36 325 36 276.5 14 c 128,-1,18
 228 -8 228 -8 162 -8 c 0,0,1
175 319 m 1,19,-1
 190 398 l 1,20,-1
 545 398 l 1,21,-1
 530 319 l 1,22,-1
 175 319 l 1,19,-1
EndSplineSet
Substitution2: "'ss01' Style Set 1 lookup 50 subtable" uni0248.ss01
Substitution2: "'c2sc' Capitals to Small Capitals lookup 45 subtable" uni0249.sc
AlternateSubs2: "'aalt' Access All Alternates lookup 1 subtable" uni0249.sc uni0248.ss01
EndChar

StartChar: K
Encoding: 75 75 159
Width: 719
GlyphClass: 2
Flags: W
AnchorPoint: "Anchor-3" 462 700 basechar 0
AnchorPoint: "Anchor-0" 322 0 basechar 0
LayerCount: 2
Fore
SplineSet
178 173 m 1,0,-1
 191 293 l 1,1,-1
 663 700 l 1,2,-1
 793 700 l 1,3,-1
 416 375 l 1,4,-1
 354 324 l 1,5,-1
 178 173 l 1,0,-1
52 0 m 1,6,-1
 192 700 l 1,7,-1
 292 700 l 1,8,-1
 152 0 l 1,9,-1
 52 0 l 1,6,-1
555 0 m 1,10,-1
 328 334 l 1,11,-1
 395 401 l 1,12,-1
 667 0 l 1,13,-1
 555 0 l 1,10,-1
EndSplineSet
Substitution2: "'c2sc' Capitals to Small Capitals lookup 45 subtable" k.sc
Substitution2: "'aalt' Access All Alternates lookup 0 subtable" k.sc
EndChar

StartChar: uni0198
Encoding: 408 408 164
Width: 708
GlyphClass: 2
Flags: W
AnchorPoint: "Anchor-3" 462 700 basechar 0
AnchorPoint: "Anchor-0" 322 0 basechar 0
LayerCount: 2
Fore
SplineSet
178 187 m 1,0,-1
 189 307 l 1,1,-1
 594 676 l 2,2,3
 644 722 644 722 686.5 737 c 128,-1,4
 729 752 729 752 762 744.5 c 128,-1,5
 795 737 795 737 818 713 c 1,6,-1
 769 649 l 1,7,8
 750 665 750 665 723 660 c 128,-1,9
 696 655 696 655 658 621 c 2,10,-1
 178 187 l 1,0,-1
52 0 m 1,11,-1
 192 700 l 1,12,-1
 290 700 l 1,13,-1
 150 0 l 1,14,-1
 52 0 l 1,11,-1
555 0 m 1,15,-1
 326 337 l 1,16,-1
 393 405 l 1,17,-1
 667 0 l 1,18,-1
 555 0 l 1,15,-1
EndSplineSet
Substitution2: "'c2sc' Capitals to Small Capitals lookup 45 subtable" uni0199.sc
Substitution2: "'aalt' Access All Alternates lookup 0 subtable" uni0199.sc
EndChar

StartChar: uniA740
Encoding: 42816 42816 166
Width: 756
GlyphClass: 2
Flags: W
AnchorPoint: "Anchor-3" 483 700 basechar 0
AnchorPoint: "Anchor-0" 343 0 basechar 0
LayerCount: 2
Fore
SplineSet
202 173 m 1,0,-1
 215 293 l 1,1,-1
 688 700 l 1,2,-1
 817 700 l 1,3,-1
 202 173 l 1,0,-1
77 0 m 1,4,-1
 217 700 l 1,5,-1
 316 700 l 1,6,-1
 176 0 l 1,7,-1
 77 0 l 1,4,-1
580 0 m 1,8,-1
 353 334 l 1,9,-1
 419 401 l 1,10,-1
 692 0 l 1,11,-1
 580 0 l 1,8,-1
79 528 m 1,12,-1
 94 605 l 1,13,-1
 450 605 l 1,14,-1
 435 528 l 1,15,-1
 79 528 l 1,12,-1
EndSplineSet
Substitution2: "'c2sc' Capitals to Small Capitals lookup 45 subtable" uniA741.sc
Substitution2: "'aalt' Access All Alternates lookup 0 subtable" uniA741.sc
EndChar

StartChar: L
Encoding: 76 76 167
Width: 594
GlyphClass: 2
Flags: W
AnchorPoint: "Anchor-4" 526 700 basechar 0
AnchorPoint: "Anchor-3" 243 700 basechar 0
AnchorPoint: "Anchor-1" 192 374 basechar 0
AnchorPoint: "Anchor-0" 303 0 basechar 0
LayerCount: 2
Fore
SplineSet
52 0 m 1,0,-1
 192 700 l 1,1,-1
 292 700 l 1,2,-1
 169 87 l 1,3,-1
 549 87 l 1,4,-1
 532 0 l 1,5,-1
 52 0 l 1,0,-1
EndSplineSet
Substitution2: "'c2sc' Capitals to Small Capitals lookup 45 subtable" l.sc
Substitution2: "'aalt' Access All Alternates lookup 0 subtable" l.sc
EndChar

StartChar: uni023D
Encoding: 573 573 170
Width: 604
GlyphClass: 2
Flags: W
AnchorPoint: "Anchor-4" 536 700 basechar 0
AnchorPoint: "Anchor-3" 253 700 basechar 0
AnchorPoint: "Anchor-1" 202 374 basechar 0
AnchorPoint: "Anchor-0" 313 0 basechar 0
LayerCount: 2
Fore
SplineSet
63 0 m 1,0,-1
 203 700 l 1,1,-1
 302 700 l 1,2,-1
 179 87 l 1,3,-1
 559 87 l 1,4,-1
 542 0 l 1,5,-1
 63 0 l 1,0,-1
23 319 m 1,6,-1
 38 398 l 1,7,-1
 396 398 l 1,8,-1
 381 319 l 1,9,-1
 23 319 l 1,6,-1
EndSplineSet
Substitution2: "'c2sc' Capitals to Small Capitals lookup 45 subtable" uni019A.sc
Substitution2: "'aalt' Access All Alternates lookup 0 subtable" uni019A.sc
EndChar

StartChar: uniA7AD
Encoding: 42925 42925 171
Width: 637
GlyphClass: 2
Flags: W
AnchorPoint: "Anchor-4" 568 700 basechar 0
AnchorPoint: "Anchor-3" 285 700 basechar 0
AnchorPoint: "Anchor-1" 220 376 basechar 0
AnchorPoint: "Anchor-0" 346 0 basechar 0
LayerCount: 2
Fore
SplineSet
95 0 m 1,0,-1
 235 700 l 1,1,-1
 335 700 l 1,2,-1
 212 87 l 1,3,-1
 592 87 l 1,4,-1
 575 0 l 1,5,-1
 95 0 l 1,0,-1
136 319 m 2,6,7
 66 319 66 319 28.5 358 c 128,-1,8
 -9 397 -9 397 3 458 c 0,9,10
 12 504 12 504 44.5 530.5 c 128,-1,11
 77 557 77 557 123 557 c 0,12,13
 183 557 183 557 211.5 513.5 c 128,-1,14
 240 470 240 470 226 398 c 1,15,-1
 175 398 l 1,16,17
 183 436 183 436 168 461.5 c 128,-1,18
 153 487 153 487 126 487 c 0,19,20
 108 487 108 487 97 477.5 c 128,-1,21
 86 468 86 468 83 452 c 0,22,23
 79 426 79 426 100 412 c 128,-1,24
 121 398 121 398 155 398 c 2,25,-1
 491 398 l 1,26,-1
 476 319 l 1,27,-1
 136 319 l 2,6,7
EndSplineSet
Substitution2: "'c2sc' Capitals to Small Capitals lookup 45 subtable" uni026C.sc
Substitution2: "'aalt' Access All Alternates lookup 0 subtable" uni026C.sc
EndChar

StartChar: uni2C60
Encoding: 11360 11360 178
Width: 628
GlyphClass: 2
Flags: W
AnchorPoint: "Anchor-4" 560 700 basechar 0
AnchorPoint: "Anchor-3" 277 700 basechar 0
AnchorPoint: "Anchor-1" 226 374 basechar 0
AnchorPoint: "Anchor-0" 338 0 basechar 0
LayerCount: 2
Fore
SplineSet
87 0 m 1,0,-1
 227 700 l 1,1,-1
 326 700 l 1,2,-1
 204 87 l 1,3,-1
 583 87 l 1,4,-1
 566 0 l 1,5,-1
 87 0 l 1,0,-1
72 433 m 1,6,-1
 86 510 l 1,7,-1
 444 510 l 1,8,-1
 429 433 l 1,9,-1
 72 433 l 1,6,-1
38 273 m 1,10,-1
 53 351 l 1,11,-1
 411 351 l 1,12,-1
 396 273 l 1,13,-1
 38 273 l 1,10,-1
EndSplineSet
Substitution2: "'c2sc' Capitals to Small Capitals lookup 45 subtable" uni2C61.sc
Substitution2: "'aalt' Access All Alternates lookup 0 subtable" uni2C61.sc
EndChar

StartChar: uni2C62
Encoding: 11362 11362 181
Width: 613
GlyphClass: 2
Flags: W
AnchorPoint: "Anchor-4" 540 700 basechar 0
AnchorPoint: "Anchor-3" 257 700 basechar 0
AnchorPoint: "Anchor-0" 307 0 basechar 0
LayerCount: 2
Fore
SplineSet
67 0 m 1,0,-1
 207 700 l 1,1,-1
 307 700 l 1,2,-1
 184 87 l 1,3,-1
 564 87 l 1,4,-1
 546 0 l 1,5,-1
 67 0 l 1,0,-1
284 330 m 0,6,7
 257 330 257 330 234.5 340 c 128,-1,8
 212 350 212 350 192.5 363 c 128,-1,9
 173 376 173 376 156 386 c 128,-1,10
 139 396 139 396 121 396 c 0,11,12
 96 396 96 396 78.5 380 c 128,-1,13
 61 364 61 364 54 336 c 1,14,-1
 1 336 l 1,15,16
 14 389 14 389 44 421.5 c 128,-1,17
 74 454 74 454 122 454 c 0,18,19
 148 454 148 454 171 444 c 128,-1,20
 194 434 194 434 213 421 c 128,-1,21
 232 408 232 408 250 398 c 128,-1,22
 268 388 268 388 286 388 c 0,23,24
 312 388 312 388 328.5 404 c 128,-1,25
 345 420 345 420 352 446 c 1,26,-1
 405 446 l 1,27,28
 393 394 393 394 362.5 362 c 128,-1,29
 332 330 332 330 284 330 c 0,6,7
EndSplineSet
Substitution2: "'c2sc' Capitals to Small Capitals lookup 45 subtable" uni026B.sc
Substitution2: "'aalt' Access All Alternates lookup 0 subtable" uni026B.sc
EndChar

StartChar: M
Encoding: 77 77 183
Width: 955
GlyphClass: 2
Flags: W
AnchorPoint: "Anchor-3" 565 700 basechar 0
AnchorPoint: "Anchor-0" 425 0 basechar 0
LayerCount: 2
Fore
SplineSet
52 0 m 1,0,-1
 192 700 l 1,1,-1
 273 700 l 1,2,-1
 483 170 l 1,3,-1
 440 171 l 1,4,-1
 851 700 l 1,5,-1
 937 700 l 1,6,-1
 797 0 l 1,7,-1
 701 0 l 1,8,-1
 812 552 l 1,9,-1
 837 550 l 1,10,-1
 472 85 l 1,11,-1
 426 85 l 1,12,-1
 237 552 l 1,13,-1
 258 549 l 1,14,-1
 148 0 l 1,15,-1
 52 0 l 1,0,-1
EndSplineSet
Substitution2: "'ss01' Style Set 1 lookup 50 subtable" M.ss01
Substitution2: "'c2sc' Capitals to Small Capitals lookup 45 subtable" m.sc
AlternateSubs2: "'aalt' Access All Alternates lookup 1 subtable" m.sc M.ss01
EndChar

StartChar: uni2C6E
Encoding: 11374 11374 187
Width: 959
GlyphClass: 2
Flags: W
AnchorPoint: "Anchor-3" 569 700 basechar 0
AnchorPoint: "Anchor-0" 429 0 basechar 0
LayerCount: 2
Fore
SplineSet
487 -167 m 1,0,-1
 530 -94 l 1,1,2
 552 -112 552 -112 578.5 -116 c 128,-1,3
 605 -120 605 -120 630 -112.5 c 128,-1,4
 655 -105 655 -105 673.5 -85 c 128,-1,5
 692 -65 692 -65 698 -34 c 2,6,-1
 814 549 l 1,7,-1
 843 548 l 1,8,-1
 476 85 l 1,9,-1
 430 85 l 1,10,-1
 244 549 l 1,11,-1
 262 549 l 1,12,-1
 152 0 l 1,13,-1
 56 0 l 1,14,-1
 196 700 l 1,15,-1
 278 700 l 1,16,-1
 487 171 l 1,17,-1
 443 172 l 1,18,-1
 858 700 l 1,19,-1
 940 700 l 1,20,-1
 794 -38 l 2,21,22
 782 -98 782 -98 747.5 -135.5 c 128,-1,23
 713 -173 713 -173 666.5 -188.5 c 128,-1,24
 620 -204 620 -204 572.5 -199 c 128,-1,25
 525 -194 525 -194 487 -167 c 1,0,-1
EndSplineSet
Substitution2: "'c2sc' Capitals to Small Capitals lookup 45 subtable" uni0271.sc
Substitution2: "'aalt' Access All Alternates lookup 0 subtable" uni0271.sc
EndChar

StartChar: uni019C
Encoding: 412 412 188
Width: 1197
GlyphClass: 2
Flags: W
AnchorPoint: "Anchor-3" 668 700 basechar 0
AnchorPoint: "Anchor-0" 528 0 basechar 0
LayerCount: 2
Fore
SplineSet
1179 700 m 1,0,-1
 1037 0 l 1,1,-1
 942 0 l 1,2,-1
 970 140 l 1,3,-1
 989 126 l 1,4,5
 951 63 951 63 887.5 27.5 c 128,-1,6
 824 -8 824 -8 740 -8 c 0,7,8
 650 -8 650 -8 593.5 32 c 128,-1,9
 537 72 537 72 531 141 c 1,10,-1
 562 139 l 1,11,12
 520 68 520 68 453.5 30 c 128,-1,13
 387 -8 387 -8 299 -8 c 0,14,15
 219 -8 219 -8 165.5 23 c 128,-1,16
 112 54 112 54 91.5 115 c 128,-1,17
 71 176 71 176 89 265 c 2,18,-1
 176 700 l 1,19,-1
 275 700 l 1,20,-1
 188 268 l 2,21,22
 169 172 169 172 207.5 126.5 c 128,-1,23
 246 81 246 81 324 81 c 0,24,25
 403 81 403 81 463 129.5 c 128,-1,26
 523 178 523 178 544 282 c 2,27,-1
 628 700 l 1,28,-1
 727 700 l 1,29,-1
 640 268 l 2,30,31
 621 172 621 172 657.5 126.5 c 128,-1,32
 694 81 694 81 772 81 c 0,33,34
 824 81 824 81 869.5 101.5 c 128,-1,35
 915 122 915 122 948 165.5 c 128,-1,36
 981 209 981 209 995 278 c 2,37,-1
 1080 700 l 1,38,-1
 1179 700 l 1,0,-1
EndSplineSet
Substitution2: "'c2sc' Capitals to Small Capitals lookup 45 subtable" uni026F.sc
Substitution2: "'aalt' Access All Alternates lookup 0 subtable" uni026F.sc
EndChar

StartChar: N
Encoding: 78 78 189
Width: 812
GlyphClass: 2
Flags: W
AnchorPoint: "Anchor-3" 493 700 basechar 0
AnchorPoint: "Anchor-0" 353 0 basechar 0
LayerCount: 2
Fore
SplineSet
52 0 m 1,0,-1
 192 700 l 1,1,-1
 274 700 l 1,2,-1
 610 122 l 1,3,-1
 580 126 l 1,4,-1
 694 700 l 1,5,-1
 794 700 l 1,6,-1
 654 0 l 1,7,-1
 572 0 l 1,8,-1
 236 578 l 1,9,-1
 266 574 l 1,10,-1
 152 0 l 1,11,-1
 52 0 l 1,0,-1
EndSplineSet
Substitution2: "'ss01' Style Set 1 lookup 50 subtable" N.ss01
Substitution2: "'c2sc' Capitals to Small Capitals lookup 45 subtable" n.sc
AlternateSubs2: "'aalt' Access All Alternates lookup 1 subtable" n.sc N.ss01
EndChar

StartChar: uni019D
Encoding: 413 413 198
Width: 792
GlyphClass: 2
Flags: W
AnchorPoint: "Anchor-3" 493 700 basechar 0
AnchorPoint: "Anchor-0" 351 0 basechar 0
LayerCount: 2
Fore
SplineSet
-119 -181 m 1,0,-1
 -86 -104 l 1,1,2
 -51 -118 -51 -118 -23 -115 c 128,-1,3
 5 -112 5 -112 24 -92.5 c 128,-1,4
 43 -73 43 -73 49 -39 c 2,5,-1
 197 700 l 1,6,-1
 293 700 l 1,7,-1
 259 529 l 1,8,-1
 248 572 l 1,9,10
 290 639 290 639 355.5 673.5 c 128,-1,11
 421 708 421 708 506 708 c 0,12,13
 590 708 590 708 647.5 671.5 c 128,-1,14
 705 635 705 635 728 566.5 c 128,-1,15
 751 498 751 498 731 398 c 2,16,-1
 651 0 l 1,17,-1
 552 0 l 1,18,-1
 632 402 l 2,19,20
 654 511 654 511 613.5 565 c 128,-1,21
 573 619 573 619 478 619 c 0,22,23
 391 619 391 619 325.5 568 c 128,-1,24
 260 517 260 517 238 408 c 2,25,-1
 146 -55 l 2,26,27
 137 -101 137 -101 110.5 -133.5 c 128,-1,28
 84 -166 84 -166 46.5 -183.5 c 128,-1,29
 9 -201 9 -201 -34 -201 c 128,-1,30
 -77 -201 -77 -201 -119 -181 c 1,0,-1
EndSplineSet
Substitution2: "'c2sc' Capitals to Small Capitals lookup 45 subtable" uni0272.sc
Substitution2: "'aalt' Access All Alternates lookup 0 subtable" uni0272.sc
EndChar

StartChar: uni0220
Encoding: 544 544 201
Width: 793
GlyphClass: 2
Flags: W
AnchorPoint: "Anchor-3" 502 700 basechar 0
AnchorPoint: "Anchor-0" 361 0 basechar 0
LayerCount: 2
Fore
SplineSet
505 708 m 0,0,1
 589 708 589 708 646 671.5 c 128,-1,2
 703 635 703 635 726.5 566.5 c 128,-1,3
 750 498 750 498 730 398 c 2,4,-1
 611 -194 l 1,5,-1
 512 -194 l 1,6,-1
 631 402 l 2,7,8
 653 511 653 511 612.5 565 c 128,-1,9
 572 619 572 619 477 619 c 0,10,11
 390 619 390 619 324.5 568 c 128,-1,12
 259 517 259 517 237 408 c 2,13,-1
 156 0 l 1,14,-1
 56 0 l 1,15,-1
 196 700 l 1,16,-1
 292 700 l 1,17,-1
 258 529 l 1,18,-1
 247 572 l 1,19,20
 289 639 289 639 354.5 673.5 c 128,-1,21
 420 708 420 708 505 708 c 0,0,1
EndSplineSet
EndChar

StartChar: Eng
Encoding: 330 330 203
Width: 812
GlyphClass: 2
Flags: W
AnchorPoint: "Anchor-3" 493 700 basechar 0
AnchorPoint: "Anchor-0" 314 -195 basechar 0
LayerCount: 2
Fore
SplineSet
52 0 m 1,0,-1
 192 700 l 1,1,-1
 274 700 l 1,2,-1
 610 122 l 1,3,-1
 572 0 l 1,4,-1
 236 578 l 1,5,-1
 266 574 l 1,6,-1
 152 0 l 1,7,-1
 52 0 l 1,0,-1
417 -200 m 0,8,9
 360 -200 360 -200 311 -178 c 128,-1,10
 262 -156 262 -156 237 -118 c 1,11,-1
 294 -50 l 1,12,13
 314 -79 314 -79 346 -96.5 c 128,-1,14
 378 -114 378 -114 420 -114 c 0,15,16
 476 -114 476 -114 510.5 -83 c 128,-1,17
 545 -52 545 -52 559 21 c 2,18,-1
 694 700 l 1,19,-1
 794 700 l 1,20,-1
 661 38 l 2,21,22
 643 -53 643 -53 610 -104.5 c 128,-1,23
 577 -156 577 -156 529 -178 c 128,-1,24
 481 -200 481 -200 417 -200 c 0,8,9
EndSplineSet
Substitution2: "'ss01' Style Set 1 lookup 50 subtable" Eng.ss01
Substitution2: "'c2sc' Capitals to Small Capitals lookup 45 subtable" eng.sc
Substitution2: "'locl' Localized Forms in Latin lookup 17 subtable" Eng.loclNSM
AlternateSubs2: "'aalt' Access All Alternates lookup 1 subtable" Eng.loclNSM eng.sc Eng.ss01
EndChar

StartChar: O
Encoding: 79 79 204
Width: 840
GlyphClass: 2
Flags: W
AnchorPoint: "Anchor-4" 725 700 basechar 0
AnchorPoint: "Anchor-3" 507 700 basechar 0
AnchorPoint: "Anchor-2" 445 0 basechar 0
AnchorPoint: "Anchor-1" 437 350 basechar 0
AnchorPoint: "Anchor-0" 367 0 basechar 0
LayerCount: 2
Fore
SplineSet
389 -8 m 0,0,1
 285 -8 285 -8 211 29 c 128,-1,2
 137 66 137 66 98.5 132.5 c 128,-1,3
 60 199 60 199 60 287 c 0,4,5
 60 374 60 374 90 450.5 c 128,-1,6
 120 527 120 527 176 585 c 128,-1,7
 232 643 232 643 310 675.5 c 128,-1,8
 388 708 388 708 485 708 c 0,9,10
 590 708 590 708 664 671 c 128,-1,11
 738 634 738 634 776.5 567.5 c 128,-1,12
 815 501 815 501 815 413 c 0,13,14
 815 326 815 326 785 249.5 c 128,-1,15
 755 173 755 173 699 115 c 128,-1,16
 643 57 643 57 564.5 24.5 c 128,-1,17
 486 -8 486 -8 389 -8 c 0,0,1
398 81 m 0,18,19
 470 81 470 81 529 106.5 c 128,-1,20
 588 132 588 132 629 177.5 c 128,-1,21
 670 223 670 223 692 282 c 128,-1,22
 714 341 714 341 714 407 c 0,23,24
 714 470 714 470 687 517.5 c 128,-1,25
 660 565 660 565 607 592 c 128,-1,26
 554 619 554 619 477 619 c 0,27,28
 404 619 404 619 345.5 593.5 c 128,-1,29
 287 568 287 568 245.5 522.5 c 128,-1,30
 204 477 204 477 182 418 c 128,-1,31
 160 359 160 359 160 293 c 0,32,33
 160 230 160 230 187.5 182.5 c 128,-1,34
 215 135 215 135 267.5 108 c 128,-1,35
 320 81 320 81 398 81 c 0,18,19
EndSplineSet
Substitution2: "'c2sc' Capitals to Small Capitals lookup 45 subtable" o.sc
Substitution2: "Single Substitution lookup 39 subtable" ordmasculine
AlternateSubs2: "'aalt' Access All Alternates lookup 1 subtable" ordmasculine o.sc
EndChar

StartChar: uni0222
Encoding: 546 546 205
Width: 741
GlyphClass: 1
Flags: W
LayerCount: 2
Fore
SplineSet
339 -8 m 0,0,1
 235 -8 235 -8 164.5 24 c 128,-1,2
 94 56 94 56 63.5 111.5 c 128,-1,3
 33 167 33 167 47 239 c 0,4,5
 61 306 61 306 104 352.5 c 128,-1,6
 147 399 147 399 218 424.5 c 128,-1,7
 289 450 289 450 386 450 c 0,8,9
 484 450 484 450 554.5 421.5 c 128,-1,10
 625 393 625 393 659 340.5 c 128,-1,11
 693 288 693 288 679 216 c 0,12,13
 666 147 666 147 622 97 c 128,-1,14
 578 47 578 47 506.5 19.5 c 128,-1,15
 435 -8 435 -8 339 -8 c 0,0,1
347 78 m 0,16,17
 411 78 411 78 460.5 95 c 128,-1,18
 510 112 510 112 540.5 143.5 c 128,-1,19
 571 175 571 175 579 218 c 0,20,21
 589 264 589 264 569.5 301 c 128,-1,22
 550 338 550 338 502.5 359.5 c 128,-1,23
 455 381 455 381 379 381 c 0,24,25
 316 381 316 381 267 363.5 c 128,-1,26
 218 346 218 346 187.5 314.5 c 128,-1,27
 157 283 157 283 147 240 c 0,28,29
 139 195 139 195 158.5 158 c 128,-1,30
 178 121 178 121 225.5 99.5 c 128,-1,31
 273 78 273 78 347 78 c 0,16,17
405 392 m 0,32,33
 313 392 313 392 251.5 419 c 128,-1,34
 190 446 190 446 164.5 495 c 128,-1,35
 139 544 139 544 153 612 c 2,36,-1
 171 700 l 1,37,-1
 270 700 l 1,38,-1
 250 603 l 2,39,40
 241 560 241 560 259 527.5 c 128,-1,41
 277 495 277 495 318 477.5 c 128,-1,42
 359 460 359 460 419 460 c 0,43,44
 476 460 476 460 519 476.5 c 128,-1,45
 562 493 562 493 589 524.5 c 128,-1,46
 616 556 616 556 625 601 c 2,47,-1
 645 700 l 1,48,-1
 745 700 l 1,49,-1
 723 589 l 2,50,51
 711 529 711 529 669 484.5 c 128,-1,52
 627 440 627 440 560 416 c 128,-1,53
 493 392 493 392 405 392 c 0,32,33
EndSplineSet
Substitution2: "'c2sc' Capitals to Small Capitals lookup 45 subtable" uni0223.sc
Substitution2: "'aalt' Access All Alternates lookup 0 subtable" uni0223.sc
EndChar

StartChar: Ohorn
Encoding: 416 416 224
Width: 840
GlyphClass: 2
Flags: W
AnchorPoint: "Anchor-3" 507 700 basechar 0
AnchorPoint: "Anchor-0" 367 0 basechar 0
LayerCount: 2
Fore
SplineSet
389 -8 m 0,0,1
 285 -8 285 -8 211 29 c 128,-1,2
 137 66 137 66 98.5 132.5 c 128,-1,3
 60 199 60 199 60 287 c 0,4,5
 60 374 60 374 90 450.5 c 128,-1,6
 120 527 120 527 176 585 c 128,-1,7
 232 643 232 643 310 675.5 c 128,-1,8
 388 708 388 708 485 708 c 0,9,10
 532 708 532 708 567.5 704 c 128,-1,11
 603 700 603 700 636.5 695.5 c 128,-1,12
 670 691 670 691 709 691 c 0,13,14
 757 691 757 691 782 711 c 128,-1,15
 807 731 807 731 807 766 c 0,16,17
 807 784 807 784 801.5 800 c 128,-1,18
 796 816 796 816 787 829 c 1,19,-1
 848 852 l 1,20,21
 861 834 861 834 868.5 811 c 128,-1,22
 876 788 876 788 876 763 c 0,23,24
 876 720 876 720 858 689 c 128,-1,25
 840 658 840 658 807 641 c 128,-1,26
 774 624 774 624 730 624 c 0,27,28
 716 624 716 624 702 625.5 c 128,-1,29
 688 627 688 627 675 628 c 1,30,-1
 709 640 l 1,31,32
 761 601 761 601 788 543.5 c 128,-1,33
 815 486 815 486 815 413 c 0,34,35
 815 326 815 326 785 249.5 c 128,-1,36
 755 173 755 173 699 115 c 128,-1,37
 643 57 643 57 564.5 24.5 c 128,-1,38
 486 -8 486 -8 389 -8 c 0,0,1
398 81 m 0,39,40
 470 81 470 81 529 106.5 c 128,-1,41
 588 132 588 132 629 177.5 c 128,-1,42
 670 223 670 223 692 282 c 128,-1,43
 714 341 714 341 714 407 c 0,44,45
 714 470 714 470 687 517.5 c 128,-1,46
 660 565 660 565 607 592 c 128,-1,47
 554 619 554 619 477 619 c 0,48,49
 404 619 404 619 345.5 593.5 c 128,-1,50
 287 568 287 568 245.5 522.5 c 128,-1,51
 204 477 204 477 182 418 c 128,-1,52
 160 359 160 359 160 293 c 0,53,54
 160 230 160 230 187.5 182.5 c 128,-1,55
 215 135 215 135 267.5 108 c 128,-1,56
 320 81 320 81 398 81 c 0,39,40
EndSplineSet
Substitution2: "'c2sc' Capitals to Small Capitals lookup 45 subtable" ohorn.sc
Substitution2: "'aalt' Access All Alternates lookup 0 subtable" ohorn.sc
EndChar

StartChar: uniA7B6
Encoding: 42934 42934 235
Width: 1051
GlyphClass: 2
Flags: W
AnchorPoint: "Anchor-3" 608 700 basechar 0
AnchorPoint: "Anchor-0" 468 0 basechar 0
LayerCount: 2
Fore
SplineSet
285 -6 m 0,0,1
 204 -6 204 -6 151 38 c 128,-1,2
 98 82 98 82 80 161.5 c 128,-1,3
 62 241 62 241 82 347 c 0,4,5
 95 413 95 413 121.5 477.5 c 128,-1,6
 148 542 148 542 184.5 599.5 c 128,-1,7
 221 657 221 657 264 700 c 1,8,-1
 376 700 l 1,9,10
 328 654 328 654 288.5 597 c 128,-1,11
 249 540 249 540 222 475.5 c 128,-1,12
 195 411 195 411 182 346 c 0,13,14
 166 267 166 267 175.5 208 c 128,-1,15
 185 149 185 149 218.5 116.5 c 128,-1,16
 252 84 252 84 303 84 c 0,17,18
 346 84 346 84 380.5 106 c 128,-1,19
 415 128 415 128 439 170.5 c 128,-1,20
 463 213 463 213 475 273 c 2,21,-1
 507 432 l 1,22,-1
 611 432 l 1,23,-1
 579 273 l 2,24,25
 568 217 568 217 578 174.5 c 128,-1,26
 588 132 588 132 617 108 c 128,-1,27
 646 84 646 84 692 84 c 0,28,29
 743 84 743 84 785 115 c 128,-1,30
 827 146 827 146 856.5 205.5 c 128,-1,31
 886 265 886 265 902 348 c 0,32,33
 920 449 920 449 907.5 538 c 128,-1,34
 895 627 895 627 851 700 c 1,35,-1
 963 700 l 1,36,37
 1003 630 1003 630 1012.5 541 c 128,-1,38
 1022 452 1022 452 1002 346 c 0,39,40
 981 235 981 235 937 156 c 128,-1,41
 893 77 893 77 830.5 35.5 c 128,-1,42
 768 -6 768 -6 689 -6 c 0,43,44
 619 -6 619 -6 570 26.5 c 128,-1,45
 521 59 521 59 500.5 116.5 c 128,-1,46
 480 174 480 174 495 246 c 1,47,-1
 550 246 l 1,48,49
 534 168 534 168 497 111.5 c 128,-1,50
 460 55 460 55 406 24.5 c 128,-1,51
 352 -6 352 -6 285 -6 c 0,0,1
EndSplineSet
Substitution2: "'c2sc' Capitals to Small Capitals lookup 45 subtable" uniA7B7.sc
Substitution2: "'aalt' Access All Alternates lookup 0 subtable" uniA7B7.sc
EndChar

StartChar: uni01EA
Encoding: 490 490 236
Width: 840
GlyphClass: 2
Flags: W
AnchorPoint: "Anchor-3" 507 700 basechar 0
LayerCount: 2
Fore
SplineSet
337 -224 m 0,0,1
 291 -224 291 -224 261 -201 c 128,-1,2
 231 -178 231 -178 231 -136 c 0,3,4
 231 -89 231 -89 265 -48 c 128,-1,5
 299 -7 299 -7 376 21 c 1,6,-1
 389 -8 l 1,7,8
 285 -8 285 -8 211 29 c 128,-1,9
 137 66 137 66 98.5 132.5 c 128,-1,10
 60 199 60 199 60 287 c 0,11,12
 60 374 60 374 90 450.5 c 128,-1,13
 120 527 120 527 176 585 c 128,-1,14
 232 643 232 643 310 675.5 c 128,-1,15
 388 708 388 708 485 708 c 0,16,17
 590 708 590 708 664 671 c 128,-1,18
 738 634 738 634 776.5 567.5 c 128,-1,19
 815 501 815 501 815 413 c 0,20,21
 815 312 815 312 775 226 c 128,-1,22
 735 140 735 140 662 81.5 c 128,-1,23
 589 23 589 23 491 2 c 0,24,25
 420 -12 420 -12 378.5 -33 c 128,-1,26
 337 -54 337 -54 319 -77.5 c 128,-1,27
 301 -101 301 -101 301 -123 c 256,28,29
 301 -145 301 -145 315 -156.5 c 128,-1,30
 329 -168 329 -168 352 -168 c 0,31,32
 369 -168 369 -168 387 -163 c 128,-1,33
 405 -158 405 -158 419 -150 c 1,34,-1
 431 -200 l 1,35,36
 411 -211 411 -211 388 -217.5 c 128,-1,37
 365 -224 365 -224 337 -224 c 0,0,1
398 81 m 0,38,39
 470 81 470 81 529 106.5 c 128,-1,40
 588 132 588 132 629 177.5 c 128,-1,41
 670 223 670 223 692 282 c 128,-1,42
 714 341 714 341 714 407 c 0,43,44
 714 470 714 470 687 517.5 c 128,-1,45
 660 565 660 565 607 592 c 128,-1,46
 554 619 554 619 477 619 c 0,47,48
 404 619 404 619 345.5 593.5 c 128,-1,49
 287 568 287 568 245.5 522.5 c 128,-1,50
 204 477 204 477 182 418 c 128,-1,51
 160 359 160 359 160 293 c 0,52,53
 160 230 160 230 187.5 182.5 c 128,-1,54
 215 135 215 135 267.5 108 c 128,-1,55
 320 81 320 81 398 81 c 0,38,39
EndSplineSet
Substitution2: "'c2sc' Capitals to Small Capitals lookup 45 subtable" uni01EB.sc
Substitution2: "'locl' Localized Forms in Latin lookup 15 subtable" uni01EA.loclNAV
AlternateSubs2: "'aalt' Access All Alternates lookup 1 subtable" uni01EA.loclNAV uni01EB.sc
EndChar

StartChar: uni0186
Encoding: 390 390 238
Width: 723
GlyphClass: 2
Flags: W
AnchorPoint: "Anchor-3" 408 700 basechar 0
AnchorPoint: "Anchor-2" 334 0 basechar 0
AnchorPoint: "Anchor-0" 268 0 basechar 0
LayerCount: 2
Fore
SplineSet
364 708 m 0,0,1
 469 708 469 708 544 671 c 128,-1,2
 619 634 619 634 658 567.5 c 128,-1,3
 697 501 697 501 697 413 c 0,4,5
 697 326 697 326 667 249.5 c 128,-1,6
 637 173 637 173 581 115 c 128,-1,7
 525 57 525 57 446 24.5 c 128,-1,8
 367 -8 367 -8 269 -8 c 0,9,10
 182 -8 182 -8 115 20 c 128,-1,11
 48 48 48 48 12 101 c 1,12,-1
 83 163 l 1,13,14
 114 123 114 123 162 102 c 128,-1,15
 210 81 210 81 276 81 c 0,16,17
 350 81 350 81 409.5 106.5 c 128,-1,18
 469 132 469 132 511 177.5 c 128,-1,19
 553 223 553 223 575 282 c 128,-1,20
 597 341 597 341 597 407 c 0,21,22
 597 471 597 471 570 518 c 128,-1,23
 543 565 543 565 489.5 592 c 128,-1,24
 436 619 436 619 357 619 c 0,25,26
 293 619 293 619 239.5 598 c 128,-1,27
 186 577 186 577 145 536 c 1,28,-1
 86 602 l 1,29,30
 135 656 135 656 207.5 682 c 128,-1,31
 280 708 280 708 364 708 c 0,0,1
EndSplineSet
Substitution2: "'c2sc' Capitals to Small Capitals lookup 45 subtable" uni0254.sc
Substitution2: "'aalt' Access All Alternates lookup 0 subtable" uni0254.sc
EndChar

StartChar: OE
Encoding: 338 338 245
Width: 1126
GlyphClass: 2
Flags: W
AnchorPoint: "Anchor-3" 697 700 basechar 0
AnchorPoint: "Anchor-0" 557 0 basechar 0
LayerCount: 2
Fore
SplineSet
395 0 m 2,0,1
 289 0 289 0 214 35.5 c 128,-1,2
 139 71 139 71 99.5 135.5 c 128,-1,3
 60 200 60 200 60 287 c 0,4,5
 60 379 60 379 91 455.5 c 128,-1,6
 122 532 122 532 179.5 586.5 c 128,-1,7
 237 641 237 641 317 670.5 c 128,-1,8
 397 700 397 700 495 700 c 2,9,-1
 674 700 l 1,10,-1
 658 613 l 1,11,-1
 492 613 l 2,12,13
 390 613 390 613 315 571.5 c 128,-1,14
 240 530 240 530 200 457.5 c 128,-1,15
 160 385 160 385 160 293 c 0,16,17
 160 230 160 230 187.5 183.5 c 128,-1,18
 215 137 215 137 269 112 c 128,-1,19
 323 87 323 87 405 87 c 2,20,-1
 549 87 l 1,21,-1
 534 0 l 1,22,-1
 395 0 l 2,0,1
508 0 m 1,23,-1
 648 700 l 1,24,-1
 1142 700 l 1,25,-1
 1125 613 l 1,26,-1
 730 613 l 1,27,-1
 625 87 l 1,28,-1
 1034 87 l 1,29,-1
 1016 0 l 1,30,-1
 508 0 l 1,23,-1
662 313 m 1,31,-1
 679 398 l 1,32,-1
 1039 398 l 1,33,-1
 1022 313 l 1,34,-1
 662 313 l 1,31,-1
EndSplineSet
Substitution2: "'c2sc' Capitals to Small Capitals lookup 45 subtable" oe.sc
Substitution2: "'aalt' Access All Alternates lookup 0 subtable" oe.sc
EndChar

StartChar: P
Encoding: 80 80 246
Width: 722
GlyphClass: 2
Flags: W
AnchorPoint: "Anchor-3" 448 700 basechar 0
AnchorPoint: "Anchor-0" 308 0 basechar 0
LayerCount: 2
Fore
SplineSet
52 0 m 1,0,-1
 192 700 l 1,1,-1
 452 700 l 2,2,3
 575 700 575 700 642 646 c 128,-1,4
 709 592 709 592 709 495 c 0,5,6
 709 406 709 406 669.5 342.5 c 128,-1,7
 630 279 630 279 556 245.5 c 128,-1,8
 482 212 482 212 381 212 c 2,9,-1
 151 212 l 1,10,-1
 204 260 l 1,11,-1
 152 0 l 1,12,-1
 52 0 l 1,0,-1
202 249 m 1,13,-1
 167 299 l 1,14,-1
 383 299 l 2,15,16
 490 299 490 299 549.5 346.5 c 128,-1,17
 609 394 609 394 609 486 c 0,18,19
 609 549 609 549 566 581 c 128,-1,20
 523 613 523 613 443 613 c 2,21,-1
 232 613 l 1,22,-1
 285 664 l 1,23,-1
 202 249 l 1,13,-1
EndSplineSet
Substitution2: "'c2sc' Capitals to Small Capitals lookup 45 subtable" p.sc
Substitution2: "'aalt' Access All Alternates lookup 0 subtable" p.sc
EndChar

StartChar: uni01A4
Encoding: 420 420 249
Width: 892
GlyphClass: 2
Flags: W
AnchorPoint: "Anchor-3" 618 700 basechar 0
AnchorPoint: "Anchor-0" 478 0 basechar 0
LayerCount: 2
Fore
SplineSet
129 383 m 1,0,1
 92 439 92 439 87 495 c 128,-1,2
 82 551 82 551 104 597.5 c 128,-1,3
 126 644 126 644 171.5 672 c 128,-1,4
 217 700 217 700 280 700 c 2,5,-1
 371 700 l 1,6,-1
 353 613 l 1,7,-1
 281 613 l 2,8,9
 238 613 238 613 212 586 c 128,-1,10
 186 559 186 559 183.5 518.5 c 128,-1,11
 181 478 181 478 209 438 c 1,12,-1
 129 383 l 1,0,1
222 0 m 1,13,-1
 362 700 l 1,14,-1
 622 700 l 2,15,16
 744 700 744 700 811.5 646 c 128,-1,17
 879 592 879 592 879 495 c 0,18,19
 879 406 879 406 839.5 342.5 c 128,-1,20
 800 279 800 279 726 245.5 c 128,-1,21
 652 212 652 212 550 212 c 2,22,-1
 321 212 l 1,23,-1
 374 260 l 1,24,-1
 322 0 l 1,25,-1
 222 0 l 1,13,-1
372 249 m 1,26,-1
 337 299 l 1,27,-1
 553 299 l 2,28,29
 660 299 660 299 719.5 346.5 c 128,-1,30
 779 394 779 394 779 486 c 0,31,32
 779 549 779 549 736 581 c 128,-1,33
 693 613 693 613 613 613 c 2,34,-1
 402 613 l 1,35,-1
 454 664 l 1,36,-1
 372 249 l 1,26,-1
EndSplineSet
Substitution2: "'c2sc' Capitals to Small Capitals lookup 45 subtable" uni01A5.sc
Substitution2: "'aalt' Access All Alternates lookup 0 subtable" uni01A5.sc
EndChar

StartChar: Thorn
Encoding: 222 222 250
Width: 722
GlyphClass: 2
Flags: W
AnchorPoint: "Anchor-3" 448 700 basechar 0
AnchorPoint: "Anchor-0" 308 0 basechar 0
LayerCount: 2
Fore
SplineSet
155 125 m 1,0,-1
 170 212 l 1,1,-1
 366 212 l 2,2,3
 474 212 474 212 533.5 259.5 c 128,-1,4
 593 307 593 307 593 399 c 0,5,6
 593 463 593 463 549.5 495 c 128,-1,7
 506 527 506 527 426 527 c 2,8,-1
 235 527 l 1,9,-1
 251 613 l 1,10,-1
 438 613 l 2,11,12
 559 613 559 613 626 559.5 c 128,-1,13
 693 506 693 506 693 409 c 0,14,15
 693 320 693 320 653 256.5 c 128,-1,16
 613 193 613 193 539 159 c 128,-1,17
 465 125 465 125 364 125 c 2,18,-1
 155 125 l 1,0,-1
52 0 m 1,19,-1
 192 700 l 1,20,-1
 292 700 l 1,21,-1
 152 0 l 1,22,-1
 52 0 l 1,19,-1
EndSplineSet
Substitution2: "'c2sc' Capitals to Small Capitals lookup 45 subtable" thorn.sc
Substitution2: "'aalt' Access All Alternates lookup 0 subtable" thorn.sc
EndChar

StartChar: uni2C63
Encoding: 11363 11363 251
Width: 729
GlyphClass: 2
Flags: W
LayerCount: 2
Fore
SplineSet
59 0 m 1,0,-1
 199 700 l 1,1,-1
 459 700 l 2,2,3
 582 700 582 700 649.5 646 c 128,-1,4
 717 592 717 592 717 495 c 0,5,6
 717 406 717 406 677 342.5 c 128,-1,7
 637 279 637 279 563 245.5 c 128,-1,8
 489 212 489 212 388 212 c 2,9,-1
 158 212 l 1,10,-1
 211 260 l 1,11,-1
 159 0 l 1,12,-1
 59 0 l 1,0,-1
41 419 m 1,13,-1
 56 496 l 1,14,-1
 410 496 l 1,15,-1
 395 419 l 1,16,-1
 41 419 l 1,13,-1
209 249 m 1,17,-1
 174 299 l 1,18,-1
 390 299 l 2,19,20
 498 299 498 299 557 346.5 c 128,-1,21
 616 394 616 394 616 486 c 0,22,23
 616 549 616 549 573 581 c 128,-1,24
 530 613 530 613 450 613 c 2,25,-1
 239 613 l 1,26,-1
 292 664 l 1,27,-1
 209 249 l 1,17,-1
EndSplineSet
Substitution2: "'c2sc' Capitals to Small Capitals lookup 45 subtable" uni1D7D.sc
Substitution2: "'aalt' Access All Alternates lookup 0 subtable" uni1D7D.sc
EndChar

StartChar: Q
Encoding: 81 81 252
Width: 840
GlyphClass: 2
Flags: W
AnchorPoint: "Anchor-3" 508 700 basechar 0
LayerCount: 2
Fore
SplineSet
389 -8 m 0,0,1
 285 -8 285 -8 211 29 c 128,-1,2
 137 66 137 66 98.5 132.5 c 128,-1,3
 60 199 60 199 60 287 c 0,4,5
 60 374 60 374 90 450.5 c 128,-1,6
 120 527 120 527 176 585 c 128,-1,7
 232 643 232 643 310 675.5 c 128,-1,8
 388 708 388 708 485 708 c 0,9,10
 590 708 590 708 664 671 c 128,-1,11
 738 634 738 634 776.5 567.5 c 128,-1,12
 815 501 815 501 815 413 c 0,13,14
 815 326 815 326 785 249.5 c 128,-1,15
 755 173 755 173 699 115 c 128,-1,16
 643 57 643 57 564.5 24.5 c 128,-1,17
 486 -8 486 -8 389 -8 c 0,0,1
590 -146 m 0,18,19
 508 -146 508 -146 444 -104.5 c 128,-1,20
 380 -63 380 -63 333 14 c 1,21,-1
 445 38 l 1,22,23
 473 -17 473 -17 509 -42 c 128,-1,24
 545 -67 545 -67 593 -67 c 0,25,26
 629 -67 629 -67 662.5 -52.5 c 128,-1,27
 696 -38 696 -38 722 -11 c 1,28,-1
 763 -72 l 1,29,30
 732 -110 732 -110 686.5 -128 c 128,-1,31
 641 -146 641 -146 590 -146 c 0,18,19
398 81 m 0,32,33
 470 81 470 81 529 106.5 c 128,-1,34
 588 132 588 132 629 177.5 c 128,-1,35
 670 223 670 223 692 282 c 128,-1,36
 714 341 714 341 714 407 c 0,37,38
 714 470 714 470 687 517.5 c 128,-1,39
 660 565 660 565 607 592 c 128,-1,40
 554 619 554 619 477 619 c 0,41,42
 404 619 404 619 345.5 593.5 c 128,-1,43
 287 568 287 568 245.5 522.5 c 128,-1,44
 204 477 204 477 182 418 c 128,-1,45
 160 359 160 359 160 293 c 0,46,47
 160 230 160 230 187.5 182.5 c 128,-1,48
 215 135 215 135 267.5 108 c 128,-1,49
 320 81 320 81 398 81 c 0,32,33
EndSplineSet
Substitution2: "'ss01' Style Set 1 lookup 50 subtable" Q.ss01
Substitution2: "'c2sc' Capitals to Small Capitals lookup 45 subtable" q.sc
AlternateSubs2: "'aalt' Access All Alternates lookup 1 subtable" q.sc Q.ss01
EndChar

StartChar: uni024A
Encoding: 586 586 253
Width: 905
GlyphClass: 2
Flags: W
AnchorPoint: "Anchor-4" 733 700 basechar 0
AnchorPoint: "Anchor-3" 514 700 basechar 0
AnchorPoint: "Anchor-2" 451 0 basechar 0
AnchorPoint: "Anchor-1" 444 350 basechar 0
AnchorPoint: "Anchor-0" 374 0 basechar 0
LayerCount: 2
Fore
SplineSet
376 -8 m 0,0,1
 283 -8 283 -8 213.5 30 c 128,-1,2
 144 68 144 68 105.5 137.5 c 128,-1,3
 67 207 67 207 67 299 c 0,4,5
 67 386 67 386 99.5 460.5 c 128,-1,6
 132 535 132 535 189.5 590.5 c 128,-1,7
 247 646 247 646 324 677 c 128,-1,8
 401 708 401 708 490 708 c 0,9,10
 598 708 598 708 668.5 663 c 128,-1,11
 739 618 739 618 766 536.5 c 128,-1,12
 793 455 793 455 772 344 c 0,13,14
 751 236 751 236 695 157 c 128,-1,15
 639 78 639 78 557.5 35 c 128,-1,16
 476 -8 476 -8 376 -8 c 0,0,1
388 81 m 0,17,18
 469 81 469 81 539 117.5 c 128,-1,19
 609 154 609 154 656 217 c 128,-1,20
 703 280 703 280 716 359 c 0,21,22
 729 435 729 435 704 493.5 c 128,-1,23
 679 552 679 552 622.5 585.5 c 128,-1,24
 566 619 566 619 486 619 c 0,25,26
 419 619 419 619 361 595 c 128,-1,27
 303 571 303 571 259.5 528 c 128,-1,28
 216 485 216 485 192 427.5 c 128,-1,29
 168 370 168 370 168 303 c 0,30,31
 168 200 168 200 227 140.5 c 128,-1,32
 286 81 286 81 388 81 c 0,17,18
858 -190 m 1,33,34
 814 -203 814 -203 771 -199.5 c 128,-1,35
 728 -196 728 -196 695 -176 c 128,-1,36
 662 -156 662 -156 646 -120 c 128,-1,37
 630 -84 630 -84 641 -31 c 2,38,-1
 688 208 l 1,39,-1
 728 353 l 1,40,-1
 743 498 l 1,41,-1
 783 700 l 1,42,-1
 883 700 l 1,43,-1
 738 -27 l 2,44,45
 730 -65 730 -65 744 -87 c 128,-1,46
 758 -109 758 -109 787.5 -115 c 128,-1,47
 817 -121 817 -121 852 -112 c 1,48,-1
 858 -190 l 1,33,34
EndSplineSet
Substitution2: "'c2sc' Capitals to Small Capitals lookup 45 subtable" uni024B.sc
Substitution2: "'aalt' Access All Alternates lookup 0 subtable" uni024B.sc
EndChar

StartChar: R
Encoding: 82 82 254
Width: 727
GlyphClass: 2
Flags: W
AnchorPoint: "Anchor-3" 457 700 basechar 0
AnchorPoint: "Anchor-0" 317 0 basechar 0
LayerCount: 2
Fore
SplineSet
52 0 m 1,0,-1
 192 700 l 1,1,-1
 453 700 l 2,2,3
 576 700 576 700 643.5 646 c 128,-1,4
 711 592 711 592 711 495 c 0,5,6
 711 407 711 407 671.5 344 c 128,-1,7
 632 281 632 281 558 247.5 c 128,-1,8
 484 214 484 214 382 214 c 2,9,-1
 153 214 l 1,10,-1
 204 260 l 1,11,-1
 153 0 l 1,12,-1
 52 0 l 1,0,-1
523 0 m 1,13,-1
 379 254 l 1,14,-1
 486 254 l 1,15,-1
 629 0 l 1,16,-1
 523 0 l 1,13,-1
202 249 m 1,17,-1
 168 299 l 1,18,-1
 385 299 l 2,19,20
 492 299 492 299 551.5 346.5 c 128,-1,21
 611 394 611 394 611 486 c 0,22,23
 611 549 611 549 568 581 c 128,-1,24
 525 613 525 613 444 613 c 2,25,-1
 234 613 l 1,26,-1
 285 664 l 1,27,-1
 202 249 l 1,17,-1
EndSplineSet
Substitution2: "'c2sc' Capitals to Small Capitals lookup 45 subtable" r.sc
Substitution2: "'aalt' Access All Alternates lookup 0 subtable" r.sc
EndChar

StartChar: uni024C
Encoding: 588 588 264
Width: 727
GlyphClass: 2
Flags: W
AnchorPoint: "Anchor-3" 457 700 basechar 0
AnchorPoint: "Anchor-0" 317 0 basechar 0
LayerCount: 2
Fore
SplineSet
52 0 m 1,0,-1
 192 700 l 1,1,-1
 453 700 l 2,2,3
 576 700 576 700 643.5 646 c 128,-1,4
 711 592 711 592 711 495 c 0,5,6
 711 407 711 407 671.5 344 c 128,-1,7
 632 281 632 281 558 247.5 c 128,-1,8
 484 214 484 214 382 214 c 2,9,-1
 153 214 l 1,10,-1
 204 260 l 1,11,-1
 153 0 l 1,12,-1
 52 0 l 1,0,-1
523 0 m 1,13,-1
 379 254 l 1,14,-1
 486 254 l 1,15,-1
 629 0 l 1,16,-1
 523 0 l 1,13,-1
202 249 m 1,17,-1
 168 299 l 1,18,-1
 385 299 l 2,19,20
 492 299 492 299 551.5 346.5 c 128,-1,21
 611 394 611 394 611 486 c 0,22,23
 611 549 611 549 568 581 c 128,-1,24
 525 613 525 613 444 613 c 2,25,-1
 234 613 l 1,26,-1
 285 664 l 1,27,-1
 202 249 l 1,17,-1
-8 220 m 1,28,-1
 7 299 l 1,29,-1
 332 299 l 1,30,-1
 318 220 l 1,31,-1
 -8 220 l 1,28,-1
EndSplineSet
Substitution2: "'c2sc' Capitals to Small Capitals lookup 45 subtable" uni024D.sc
Substitution2: "'aalt' Access All Alternates lookup 0 subtable" uni024D.sc
EndChar

StartChar: uni2C64
Encoding: 11364 11364 265
Width: 738
GlyphClass: 2
Flags: W
AnchorPoint: "Anchor-3" 463 700 basechar 0
AnchorPoint: "Anchor-0" 323 0 basechar 0
LayerCount: 2
Fore
SplineSet
283 -187 m 1,0,1
 245 -198 245 -198 207.5 -199 c 128,-1,2
 170 -200 170 -200 138.5 -190 c 128,-1,3
 107 -180 107 -180 84 -158.5 c 128,-1,4
 61 -137 61 -137 51.5 -104.5 c 128,-1,5
 42 -72 42 -72 51 -29 c 2,6,-1
 196 700 l 1,7,-1
 457 700 l 2,8,9
 580 700 580 700 647.5 646 c 128,-1,10
 715 592 715 592 715 495 c 0,11,12
 715 407 715 407 675.5 344 c 128,-1,13
 636 281 636 281 562 247.5 c 128,-1,14
 488 214 488 214 386 214 c 2,15,-1
 157 214 l 1,16,-1
 208 260 l 1,17,-1
 151 -27 l 2,18,19
 145 -56 145 -56 152.5 -76.5 c 128,-1,20
 160 -97 160 -97 177.5 -107 c 128,-1,21
 195 -117 195 -117 221 -117 c 128,-1,22
 247 -117 247 -117 277 -109 c 1,23,-1
 283 -187 l 1,0,1
527 0 m 1,24,-1
 383 254 l 1,25,-1
 490 254 l 1,26,-1
 633 0 l 1,27,-1
 527 0 l 1,24,-1
206 249 m 1,28,-1
 172 299 l 1,29,-1
 389 299 l 2,30,31
 496 299 496 299 555.5 346.5 c 128,-1,32
 615 394 615 394 615 486 c 0,33,34
 615 549 615 549 572 581 c 128,-1,35
 529 613 529 613 448 613 c 2,36,-1
 238 613 l 1,37,-1
 289 664 l 1,38,-1
 206 249 l 1,28,-1
EndSplineSet
Substitution2: "'c2sc' Capitals to Small Capitals lookup 45 subtable" uni027D.sc
Substitution2: "'aalt' Access All Alternates lookup 0 subtable" uni027D.sc
EndChar

StartChar: S
Encoding: 83 83 266
Width: 621
GlyphClass: 2
Flags: W
AnchorPoint: "Anchor-3" 408 700 basechar 0
AnchorPoint: "Anchor-1" 341 350 basechar 0
AnchorPoint: "Anchor-0" 268 0 basechar 0
LayerCount: 2
Fore
SplineSet
268 -8 m 0,0,1
 215 -8 215 -8 164.5 3.5 c 128,-1,2
 114 15 114 15 72.5 34 c 128,-1,3
 31 53 31 53 6 77 c 1,4,-1
 50 157 l 1,5,6
 77 133 77 133 113.5 115 c 128,-1,7
 150 97 150 97 191.5 87 c 128,-1,8
 233 77 233 77 277 77 c 0,9,10
 333 77 333 77 376 91 c 128,-1,11
 419 105 419 105 442.5 131.5 c 128,-1,12
 466 158 466 158 466 196 c 0,13,14
 466 227 466 227 446 247 c 128,-1,15
 426 267 426 267 394.5 279.5 c 128,-1,16
 363 292 363 292 324.5 302.5 c 128,-1,17
 286 313 286 313 247.5 326.5 c 128,-1,18
 209 340 209 340 177.5 360 c 128,-1,19
 146 380 146 380 126.5 411.5 c 128,-1,20
 107 443 107 443 107 491 c 0,21,22
 107 558 107 558 144 606.5 c 128,-1,23
 181 655 181 655 246.5 681.5 c 128,-1,24
 312 708 312 708 398 708 c 0,25,26
 463 708 463 708 522 693 c 128,-1,27
 581 678 581 678 623 649 c 1,28,-1
 583 567 l 1,29,30
 544 595 544 595 495 609 c 128,-1,31
 446 623 446 623 393 623 c 0,32,33
 336 623 336 623 294 608 c 128,-1,34
 252 593 252 593 229 565.5 c 128,-1,35
 206 538 206 538 205 501 c 0,36,37
 205 469 205 469 224 449 c 128,-1,38
 243 429 243 429 275 416 c 128,-1,39
 307 403 307 403 345.5 391.5 c 128,-1,40
 384 380 384 380 422 367.5 c 128,-1,41
 460 355 460 355 492.5 335.5 c 128,-1,42
 525 316 525 316 544.5 286 c 128,-1,43
 564 256 564 256 564 210 c 0,44,45
 564 143 564 143 526.5 93.5 c 128,-1,46
 489 44 489 44 422.5 18 c 128,-1,47
 356 -8 356 -8 268 -8 c 0,0,1
EndSplineSet
Substitution2: "'c2sc' Capitals to Small Capitals lookup 45 subtable" s.sc
Substitution2: "'aalt' Access All Alternates lookup 0 subtable" s.sc
EndChar

StartChar: uni1E9E
Encoding: 7838 7838 277
Width: 751
GlyphClass: 2
Flags: W
AnchorPoint: "Anchor-3" 477 700 basechar 0
AnchorPoint: "Anchor-0" 337 0 basechar 0
LayerCount: 2
Fore
SplineSet
422 -8 m 0,0,1
 381 -8 381 -8 339.5 -0.5 c 128,-1,2
 298 7 298 7 269 20 c 1,3,-1
 296 102 l 1,4,5
 324 90 324 90 356 83.5 c 128,-1,6
 388 77 388 77 424 77 c 0,7,8
 473 77 473 77 510 94.5 c 128,-1,9
 547 112 547 112 567.5 145 c 128,-1,10
 588 178 588 178 588 224 c 0,11,12
 588 276 588 276 552.5 304 c 128,-1,13
 517 332 517 332 454 332 c 0,14,15
 435 332 435 332 413.5 329 c 128,-1,16
 392 326 392 326 375 321 c 1,17,-1
 365 370 l 1,18,-1
 643 629 l 1,19,-1
 645 563 l 1,20,21
 614 593 614 593 569.5 608 c 128,-1,22
 525 623 525 623 467 623 c 0,23,24
 363 623 363 623 300 569.5 c 128,-1,25
 237 516 237 516 216 410 c 2,26,-1
 134 0 l 1,27,-1
 35 0 l 1,28,-1
 119 418 l 2,29,30
 147 561 147 561 235.5 634.5 c 128,-1,31
 324 708 324 708 475 708 c 0,32,33
 521 708 521 708 564 700 c 128,-1,34
 607 692 607 692 643.5 675.5 c 128,-1,35
 680 659 680 659 706 636 c 1,36,-1
 693 571 l 1,37,-1
 448 343 l 1,38,-1
 410 396 l 1,39,40
 429 402 429 402 448.5 404 c 128,-1,41
 468 406 468 406 485 406 c 0,42,43
 545 406 545 406 591 384.5 c 128,-1,44
 637 363 637 363 662.5 323.5 c 128,-1,45
 688 284 688 284 688 228 c 0,46,47
 688 157 688 157 655 104 c 128,-1,48
 622 51 622 51 562.5 21.5 c 128,-1,49
 503 -8 503 -8 422 -8 c 0,0,1
EndSplineSet
Substitution2: "'c2sc' Capitals to Small Capitals lookup 45 subtable" germandbls.sc
Substitution2: "'aalt' Access All Alternates lookup 0 subtable" germandbls.sc
EndChar

StartChar: uniA7A8
Encoding: 42920 42920 278
Width: 621
GlyphClass: 1
Flags: W
LayerCount: 2
Fore
SplineSet
268 -8 m 0,0,1
 215 -8 215 -8 164.5 3.5 c 128,-1,2
 114 15 114 15 72.5 34 c 128,-1,3
 31 53 31 53 6 77 c 1,4,-1
 50 157 l 1,5,6
 77 133 77 133 113.5 115 c 128,-1,7
 150 97 150 97 191.5 87 c 128,-1,8
 233 77 233 77 277 77 c 0,9,10
 333 77 333 77 376 91 c 128,-1,11
 419 105 419 105 442.5 131.5 c 128,-1,12
 466 158 466 158 466 196 c 0,13,14
 466 227 466 227 446 247 c 128,-1,15
 426 267 426 267 394.5 279.5 c 128,-1,16
 363 292 363 292 324.5 302.5 c 128,-1,17
 286 313 286 313 247.5 326.5 c 128,-1,18
 209 340 209 340 177.5 360 c 128,-1,19
 146 380 146 380 126.5 411.5 c 128,-1,20
 107 443 107 443 107 491 c 0,21,22
 107 558 107 558 144 606.5 c 128,-1,23
 181 655 181 655 246.5 681.5 c 128,-1,24
 312 708 312 708 398 708 c 0,25,26
 463 708 463 708 522 693 c 128,-1,27
 581 678 581 678 623 649 c 1,28,-1
 583 567 l 1,29,30
 544 595 544 595 495 609 c 128,-1,31
 446 623 446 623 393 623 c 0,32,33
 336 623 336 623 294 608 c 128,-1,34
 252 593 252 593 229 565.5 c 128,-1,35
 206 538 206 538 205 501 c 0,36,37
 205 469 205 469 224 449 c 128,-1,38
 243 429 243 429 275 416 c 128,-1,39
 307 403 307 403 345.5 391.5 c 128,-1,40
 384 380 384 380 422 367.5 c 128,-1,41
 460 355 460 355 492.5 335.5 c 128,-1,42
 525 316 525 316 544.5 286 c 128,-1,43
 564 256 564 256 564 210 c 0,44,45
 564 143 564 143 526.5 93.5 c 128,-1,46
 489 44 489 44 422.5 18 c 128,-1,47
 356 -8 356 -8 268 -8 c 0,0,1
233 178 m 1,48,-1
 179 217 l 1,49,-1
 403 518 l 1,50,-1
 456 479 l 1,51,-1
 233 178 l 1,48,-1
EndSplineSet
Substitution2: "'c2sc' Capitals to Small Capitals lookup 45 subtable" uniA7A9.sc
Substitution2: "'aalt' Access All Alternates lookup 0 subtable" uniA7A9.sc
EndChar

StartChar: T
Encoding: 84 84 279
Width: 587
GlyphClass: 2
Flags: W
AnchorPoint: "Anchor-3" 381 700 basechar 0
AnchorPoint: "Anchor-1" 312 358 basechar 0
AnchorPoint: "Anchor-0" 241 0 basechar 0
LayerCount: 2
Fore
SplineSet
191 0 m 1,0,-1
 313 613 l 1,1,-1
 74 613 l 1,2,-1
 91 700 l 1,3,-1
 670 700 l 1,4,-1
 652 613 l 1,5,-1
 413 613 l 1,6,-1
 290 0 l 1,7,-1
 191 0 l 1,0,-1
EndSplineSet
Substitution2: "'ss01' Style Set 1 lookup 50 subtable" T.ss01
Substitution2: "'c2sc' Capitals to Small Capitals lookup 45 subtable" t.sc
AlternateSubs2: "'aalt' Access All Alternates lookup 1 subtable" t.sc T.ss01
EndChar

StartChar: Tbar
Encoding: 358 358 280
Width: 587
GlyphClass: 1
Flags: W
LayerCount: 2
Fore
SplineSet
191 0 m 1,0,-1
 313 613 l 1,1,-1
 74 613 l 1,2,-1
 91 700 l 1,3,-1
 670 700 l 1,4,-1
 652 613 l 1,5,-1
 413 613 l 1,6,-1
 290 0 l 1,7,-1
 191 0 l 1,0,-1
100 319 m 1,8,-1
 115 398 l 1,9,-1
 526 398 l 1,10,-1
 511 319 l 1,11,-1
 100 319 l 1,8,-1
EndSplineSet
Substitution2: "'ss01' Style Set 1 lookup 50 subtable" Tbar.ss01
Substitution2: "'c2sc' Capitals to Small Capitals lookup 45 subtable" tbar.sc
AlternateSubs2: "'aalt' Access All Alternates lookup 1 subtable" tbar.sc Tbar.ss01
EndChar

StartChar: uni023E
Encoding: 574 574 285
Width: 583
GlyphClass: 1
Flags: W
LayerCount: 2
Fore
SplineSet
30 -70 m 1,0,-1
 578 770 l 1,1,-1
 655 770 l 1,2,-1
 108 -70 l 1,3,-1
 30 -70 l 1,0,-1
191 0 m 1,4,-1
 313 613 l 1,5,-1
 74 613 l 1,6,-1
 91 700 l 1,7,-1
 667 700 l 1,8,-1
 649 613 l 1,9,-1
 409 613 l 1,10,-1
 287 0 l 1,11,-1
 191 0 l 1,4,-1
EndSplineSet
Substitution2: "'ss01' Style Set 1 lookup 50 subtable" uni023E.ss01
Substitution2: "'c2sc' Capitals to Small Capitals lookup 45 subtable" uni2C66.sc
AlternateSubs2: "'aalt' Access All Alternates lookup 1 subtable" uni2C66.sc uni023E.ss01
EndChar

StartChar: uni01AC
Encoding: 428 428 288
Width: 663
GlyphClass: 2
Flags: W
AnchorPoint: "Anchor-3" 457 700 basechar 0
AnchorPoint: "Anchor-1" 385 339 basechar 0
AnchorPoint: "Anchor-0" 317 0 basechar 0
LayerCount: 2
Fore
SplineSet
267 0 m 1,0,-1
 390 613 l 1,1,-1
 289 613 l 1,2,-1
 303 700 l 1,3,-1
 747 700 l 1,4,-1
 729 613 l 1,5,-1
 489 613 l 1,6,-1
 367 0 l 1,7,-1
 267 0 l 1,0,-1
121 395 m 1,8,9
 86 450 86 450 84.5 504 c 128,-1,10
 83 558 83 558 108 602 c 128,-1,11
 133 646 133 646 181.5 673 c 128,-1,12
 230 700 230 700 295 700 c 2,13,-1
 342 700 l 1,14,-1
 324 613 l 1,15,-1
 288 613 l 2,16,17
 236 613 236 613 206 587 c 128,-1,18
 176 561 176 561 173 519 c 128,-1,19
 170 477 170 477 199 431 c 1,20,-1
 121 395 l 1,8,9
EndSplineSet
Substitution2: "'ss01' Style Set 1 lookup 50 subtable" uni01AC.ss01
Substitution2: "'c2sc' Capitals to Small Capitals lookup 45 subtable" uni01AD.sc
AlternateSubs2: "'aalt' Access All Alternates lookup 1 subtable" uni01AD.sc uni01AC.ss01
EndChar

StartChar: uni01AE
Encoding: 430 430 290
Width: 587
GlyphClass: 2
Flags: W
AnchorPoint: "Anchor-3" 381 700 basechar 0
AnchorPoint: "Anchor-1" 308 339 basechar 0
AnchorPoint: "Anchor-0" 241 0 basechar 0
LayerCount: 2
Fore
SplineSet
416 -187 m 1,0,1
 378 -198 378 -198 341 -199 c 128,-1,2
 304 -200 304 -200 271.5 -190 c 128,-1,3
 239 -180 239 -180 216.5 -159 c 128,-1,4
 194 -138 194 -138 185 -106 c 128,-1,5
 176 -74 176 -74 185 -31 c 2,6,-1
 313 613 l 1,7,-1
 74 613 l 1,8,-1
 91 700 l 1,9,-1
 670 700 l 1,10,-1
 652 613 l 1,11,-1
 413 613 l 1,12,-1
 284 -27 l 2,13,14
 278 -56 278 -56 285.5 -76.5 c 128,-1,15
 293 -97 293 -97 310.5 -107 c 128,-1,16
 328 -117 328 -117 354 -117 c 128,-1,17
 380 -117 380 -117 410 -109 c 1,18,-1
 416 -187 l 1,0,1
EndSplineSet
Substitution2: "'ss01' Style Set 1 lookup 50 subtable" uni01AE.ss01
Substitution2: "'c2sc' Capitals to Small Capitals lookup 45 subtable" uni0288.sc
AlternateSubs2: "'aalt' Access All Alternates lookup 1 subtable" uni0288.sc uni01AE.ss01
EndChar

StartChar: uniA7B1
Encoding: 42929 42929 291
Width: 587
GlyphClass: 2
Flags: W
AnchorPoint: "Anchor-3" 381 700 basechar 0
AnchorPoint: "Anchor-1" 310 342 basechar 0
AnchorPoint: "Anchor-0" 241 0 basechar 0
LayerCount: 2
Fore
SplineSet
-49 0 m 1,0,-1
 -31 87 l 1,1,-1
 208 87 l 1,2,-1
 331 700 l 1,3,-1
 430 700 l 1,4,-1
 308 87 l 1,5,-1
 548 87 l 1,6,-1
 530 0 l 1,7,-1
 -49 0 l 1,0,-1
EndSplineSet
Substitution2: "'ss01' Style Set 1 lookup 50 subtable" uniA7B1.ss01
Substitution2: "'c2sc' Capitals to Small Capitals lookup 45 subtable" uni0287.sc
AlternateSubs2: "'aalt' Access All Alternates lookup 1 subtable" uni0287.sc uniA7B1.ss01
EndChar

StartChar: U
Encoding: 85 85 292
Width: 768
GlyphClass: 2
Flags: W
AnchorPoint: "Anchor-4" 736 700 basechar 0
AnchorPoint: "Anchor-3" 471 700 basechar 0
AnchorPoint: "Anchor-2" 532 0 basechar 0
AnchorPoint: "Anchor-0" 331 0 basechar 0
LayerCount: 2
Fore
SplineSet
350 -8 m 0,0,1
 254 -8 254 -8 190.5 30 c 128,-1,2
 127 68 127 68 102 137.5 c 128,-1,3
 77 207 77 207 96 302 c 2,4,-1
 175 700 l 1,5,-1
 274 700 l 1,6,-1
 195 303 l 2,7,8
 173 193 173 193 217 137 c 128,-1,9
 261 81 261 81 360 81 c 0,10,11
 453 81 453 81 510 134.5 c 128,-1,12
 567 188 567 188 589 304 c 2,13,-1
 669 700 l 1,14,-1
 766 700 l 1,15,-1
 686 297 l 2,16,17
 655 144 655 144 571 68 c 128,-1,18
 487 -8 487 -8 350 -8 c 0,0,1
EndSplineSet
Substitution2: "'ss01' Style Set 1 lookup 50 subtable" U.ss01
Substitution2: "'c2sc' Capitals to Small Capitals lookup 45 subtable" u.sc
AlternateSubs2: "'aalt' Access All Alternates lookup 1 subtable" u.sc U.ss01
EndChar

StartChar: uni0244
Encoding: 580 580 294
Width: 781
GlyphClass: 2
Flags: W
AnchorPoint: "Anchor-4" 738 700 basechar 0
AnchorPoint: "Anchor-3" 474 700 basechar 0
AnchorPoint: "Anchor-2" 535 0 basechar 0
AnchorPoint: "Anchor-0" 334 0 basechar 0
LayerCount: 2
Fore
SplineSet
177 700 m 1,0,-1
 277 700 l 1,1,-1
 197 303 l 2,2,3
 176 193 176 193 219.5 137 c 128,-1,4
 263 81 263 81 362 81 c 0,5,6
 455 81 455 81 512 134.5 c 128,-1,7
 569 188 569 188 592 304 c 2,8,-1
 671 700 l 1,9,-1
 769 700 l 1,10,-1
 689 297 l 2,11,12
 658 144 658 144 573.5 68 c 128,-1,13
 489 -8 489 -8 353 -8 c 0,14,15
 256 -8 256 -8 193 30 c 128,-1,16
 130 68 130 68 104.5 137.5 c 128,-1,17
 79 207 79 207 98 302 c 2,18,-1
 177 700 l 1,0,-1
-3 319 m 1,19,-1
 12 398 l 1,20,-1
 812 398 l 1,21,-1
 797 319 l 1,22,-1
 -3 319 l 1,19,-1
EndSplineSet
Substitution2: "'ss01' Style Set 1 lookup 50 subtable" uni0244.ss01
Substitution2: "'c2sc' Capitals to Small Capitals lookup 45 subtable" uni0289.sc
AlternateSubs2: "'aalt' Access All Alternates lookup 1 subtable" uni0289.sc uni0244.ss01
EndChar

StartChar: Uogonek
Encoding: 370 370 319
Width: 768
GlyphClass: 2
Flags: W
AnchorPoint: "Anchor-4" 736 700 basechar 0
AnchorPoint: "Anchor-3" 471 700 basechar 0
AnchorPoint: "Anchor-0" 286 -224 basechar 0
LayerCount: 2
Fore
SplineSet
669 700 m 1,0,-1
 766 700 l 1,1,-1
 686 297 l 2,2,3
 661 173 661 173 600.5 99 c 128,-1,4
 540 25 540 25 445 3 c 0,5,6
 359 -18 359 -18 317.5 -54 c 128,-1,7
 276 -90 276 -90 276 -123 c 0,8,9
 276 -145 276 -145 290 -156.5 c 128,-1,10
 304 -168 304 -168 327 -168 c 0,11,12
 344 -168 344 -168 361.5 -163 c 128,-1,13
 379 -158 379 -158 394 -150 c 1,14,-1
 406 -200 l 1,15,16
 386 -211 386 -211 363 -217.5 c 128,-1,17
 340 -224 340 -224 312 -224 c 0,18,19
 266 -224 266 -224 236 -201 c 128,-1,20
 206 -178 206 -178 206 -136 c 0,21,22
 206 -90 206 -90 238 -52.5 c 128,-1,23
 270 -15 270 -15 332 15 c 1,24,-1
 391 -6 l 1,25,26
 382 -7 382 -7 371.5 -7.5 c 128,-1,27
 361 -8 361 -8 350 -8 c 0,28,29
 254 -8 254 -8 190.5 30 c 128,-1,30
 127 68 127 68 102 137.5 c 128,-1,31
 77 207 77 207 96 302 c 2,32,-1
 175 700 l 1,33,-1
 274 700 l 1,34,-1
 195 303 l 2,35,36
 173 193 173 193 217 137 c 128,-1,37
 261 81 261 81 360 81 c 0,38,39
 453 81 453 81 510 134.5 c 128,-1,40
 567 188 567 188 589 304 c 2,41,-1
 669 700 l 1,0,-1
EndSplineSet
Substitution2: "'ss01' Style Set 1 lookup 50 subtable" Uogonek.ss01
Substitution2: "'c2sc' Capitals to Small Capitals lookup 45 subtable" uogonek.sc
Substitution2: "'locl' Localized Forms in Latin lookup 15 subtable" Uogonek.loclNAV
AlternateSubs2: "'aalt' Access All Alternates lookup 1 subtable" Uogonek.loclNAV uogonek.sc Uogonek.ss01
EndChar

StartChar: uni01B1
Encoding: 433 433 320
Width: 898
GlyphClass: 2
Flags: W
AnchorPoint: "Anchor-3" 536 700 basechar 0
AnchorPoint: "Anchor-0" 396 0 basechar 0
LayerCount: 2
Fore
SplineSet
975 700 m 1,0,-1
 959 613 l 1,1,-1
 746 613 l 1,2,3
 797 566 797 566 818 509.5 c 128,-1,4
 839 453 839 453 839 378 c 0,5,6
 839 291 839 291 808 220 c 128,-1,7
 777 149 777 149 721.5 98 c 128,-1,8
 666 47 666 47 590 19.5 c 128,-1,9
 514 -8 514 -8 422 -8 c 0,10,11
 325 -8 325 -8 249.5 26 c 128,-1,12
 174 60 174 60 130 124.5 c 128,-1,13
 86 189 86 189 86 281 c 0,14,15
 86 341 86 341 101.5 392.5 c 128,-1,16
 117 444 117 444 144 486 c 128,-1,17
 171 528 171 528 204.5 560 c 128,-1,18
 238 592 238 592 274 613 c 1,19,-1
 81 613 l 1,20,-1
 96 700 l 1,21,-1
 443 700 l 1,22,-1
 427 619 l 1,23,24
 379 600 379 600 335.5 569.5 c 128,-1,25
 292 539 292 539 258.5 497.5 c 128,-1,26
 225 456 225 456 206 403.5 c 128,-1,27
 187 351 187 351 187 288 c 0,28,29
 187 187 187 187 253.5 134 c 128,-1,30
 320 81 320 81 429 81 c 0,31,32
 526 81 526 81 595.5 119.5 c 128,-1,33
 665 158 665 158 703 226.5 c 128,-1,34
 741 295 741 295 741 384 c 0,35,36
 741 438 741 438 727.5 480.5 c 128,-1,37
 714 523 714 523 685.5 557.5 c 128,-1,38
 657 592 657 592 612 619 c 1,39,-1
 628 700 l 1,40,-1
 975 700 l 1,0,-1
EndSplineSet
Substitution2: "'c2sc' Capitals to Small Capitals lookup 45 subtable" uni028A.sc
Substitution2: "'aalt' Access All Alternates lookup 0 subtable" uni028A.sc
EndChar

StartChar: V
Encoding: 86 86 325
Width: 712
GlyphClass: 2
Flags: W
AnchorPoint: "Anchor-3" 443 700 basechar 0
AnchorPoint: "Anchor-2" 352 0 basechar 0
AnchorPoint: "Anchor-0" 303 0 basechar 0
LayerCount: 2
Fore
SplineSet
254 0 m 1,0,-1
 86 700 l 1,1,-1
 189 700 l 1,2,-1
 342 54 l 1,3,-1
 280 54 l 1,4,-1
 696 700 l 1,5,-1
 800 700 l 1,6,-1
 352 0 l 1,7,-1
 254 0 l 1,0,-1
EndSplineSet
Substitution2: "'c2sc' Capitals to Small Capitals lookup 45 subtable" v.sc
Substitution2: "'aalt' Access All Alternates lookup 0 subtable" v.sc
EndChar

StartChar: uni0194
Encoding: 404 404 326
Width: 647
GlyphClass: 2
Flags: W
AnchorPoint: "Anchor-3" 411 700 basechar 0
AnchorPoint: "Anchor-1" 318 249 basechar 0
AnchorPoint: "Anchor-0" 271 0 basechar 0
LayerCount: 2
Fore
SplineSet
243 -203 m 0,0,1
 204 -203 204 -203 174 -184.5 c 128,-1,2
 144 -166 144 -166 130 -135 c 128,-1,3
 116 -104 116 -104 122 -68 c 0,4,5
 128 -37 128 -37 148.5 -3 c 128,-1,6
 169 31 169 31 194.5 64.5 c 128,-1,7
 220 98 220 98 244.5 128 c 128,-1,8
 269 158 269 158 284 179 c 2,9,-1
 644 700 l 1,10,-1
 749 700 l 1,11,-1
 352 124 l 2,12,13
 337 103 337 103 313.5 76.5 c 128,-1,14
 290 50 290 50 265 22 c 128,-1,15
 240 -6 240 -6 222 -32 c 128,-1,16
 204 -58 204 -58 201 -78 c 0,17,18
 197 -99 197 -99 211 -113.5 c 128,-1,19
 225 -128 225 -128 248 -128 c 0,20,21
 270 -128 270 -128 286.5 -114 c 128,-1,22
 303 -100 303 -100 307 -80 c 0,23,24
 311 -62 311 -62 305.5 -37.5 c 128,-1,25
 300 -13 300 -13 289.5 14.5 c 128,-1,26
 279 42 279 42 267.5 71 c 128,-1,27
 256 100 256 100 248 126 c 2,28,-1
 78 700 l 1,29,-1
 181 700 l 1,30,-1
 330 179 l 2,31,32
 335 161 335 161 346.5 129.5 c 128,-1,33
 358 98 358 98 369.5 61 c 128,-1,34
 381 24 381 24 387 -14 c 128,-1,35
 393 -52 393 -52 387 -85 c 0,36,37
 378 -136 378 -136 337.5 -169.5 c 128,-1,38
 297 -203 297 -203 243 -203 c 0,0,1
EndSplineSet
Substitution2: "'c2sc' Capitals to Small Capitals lookup 45 subtable" uni0263.sc
Substitution2: "'aalt' Access All Alternates lookup 0 subtable" uni0263.sc
EndChar

StartChar: uni01B2
Encoding: 434 434 328
Width: 766
GlyphClass: 2
Flags: W
AnchorPoint: "Anchor-4" 735 700 basechar 0
AnchorPoint: "Anchor-3" 470 700 basechar 0
AnchorPoint: "Anchor-2" 532 0 basechar 0
AnchorPoint: "Anchor-0" 330 0 basechar 0
LayerCount: 2
Fore
SplineSet
350 -8 m 0,0,1
 254 -8 254 -8 190.5 30 c 128,-1,2
 127 68 127 68 102 137.5 c 128,-1,3
 77 207 77 207 96 302 c 2,4,-1
 175 700 l 1,5,-1
 274 700 l 1,6,-1
 195 303 l 2,7,8
 173 193 173 193 217 137 c 128,-1,9
 261 81 261 81 360 81 c 0,10,11
 453 81 453 81 510 134.5 c 128,-1,12
 567 188 567 188 589 304 c 2,13,-1
 638 545 l 2,14,15
 645 580 645 580 633.5 601.5 c 128,-1,16
 622 623 622 623 599.5 630.5 c 128,-1,17
 577 638 577 638 548 632 c 128,-1,18
 519 626 519 626 488 607 c 1,19,-1
 471 679 l 1,20,21
 509 702 509 702 549.5 711 c 128,-1,22
 590 720 590 720 628 715 c 128,-1,23
 666 710 666 710 694 690 c 128,-1,24
 722 670 722 670 734.5 634.5 c 128,-1,25
 747 599 747 599 736 548 c 2,26,-1
 686 297 l 2,27,28
 655 143 655 143 571 67.5 c 128,-1,29
 487 -8 487 -8 350 -8 c 0,0,1
EndSplineSet
Substitution2: "'c2sc' Capitals to Small Capitals lookup 45 subtable" uni028B.sc
Substitution2: "'locl' Localized Forms in Latin lookup 18 subtable" uni01B2.loclTOD0
AlternateSubs2: "'aalt' Access All Alternates lookup 1 subtable" uni01B2.loclTOD0 uni028B.sc
EndChar

StartChar: uni0245
Encoding: 581 581 330
Width: 712
GlyphClass: 2
Flags: W
AnchorPoint: "Anchor-3" 443 700 basechar 0
AnchorPoint: "Anchor-2" 661 0 basechar 0
AnchorPoint: "Anchor-0" 303 0 basechar 0
LayerCount: 2
Fore
SplineSet
492 700 m 1,0,-1
 661 0 l 1,1,-1
 558 0 l 1,2,-1
 404 646 l 1,3,-1
 467 646 l 1,4,-1
 51 0 l 1,5,-1
 -54 0 l 1,6,-1
 395 700 l 1,7,-1
 492 700 l 1,0,-1
EndSplineSet
Substitution2: "'c2sc' Capitals to Small Capitals lookup 45 subtable" uni028C.sc
Substitution2: "'aalt' Access All Alternates lookup 0 subtable" uni028C.sc
EndChar

StartChar: W
Encoding: 87 87 331
Width: 1105
GlyphClass: 2
Flags: W
AnchorPoint: "Anchor-3" 639 700 basechar 0
AnchorPoint: "Anchor-0" 499 0 basechar 0
LayerCount: 2
Fore
SplineSet
202 0 m 1,0,-1
 108 700 l 1,1,-1
 206 700 l 1,2,-1
 293 55 l 1,3,-1
 242 55 l 1,4,-1
 593 700 l 1,5,-1
 685 700 l 1,6,-1
 773 55 l 1,7,-1
 724 55 l 1,8,-1
 1072 700 l 1,9,-1
 1171 700 l 1,10,-1
 797 0 l 1,11,-1
 691 0 l 1,12,-1
 607 597 l 1,13,-1
 636 598 l 1,14,-1
 308 0 l 1,15,-1
 202 0 l 1,0,-1
EndSplineSet
Substitution2: "'ss01' Style Set 1 lookup 50 subtable" W.ss01
Substitution2: "'c2sc' Capitals to Small Capitals lookup 45 subtable" w.sc
AlternateSubs2: "'aalt' Access All Alternates lookup 1 subtable" w.sc W.ss01
EndChar

StartChar: uni2C72
Encoding: 11378 11378 338
Width: 1139
GlyphClass: 2
Flags: W
AnchorPoint: "Anchor-3" 640 700 basechar 0
AnchorPoint: "Anchor-0" 500 0 basechar 0
LayerCount: 2
Fore
SplineSet
202 0 m 1,0,-1
 108 700 l 1,1,-1
 206 700 l 1,2,-1
 293 51 l 1,3,-1
 242 51 l 1,4,-1
 593 700 l 1,5,-1
 685 700 l 1,6,-1
 765 51 l 1,7,-1
 716 51 l 1,8,-1
 1020 634 l 2,9,10
 1046 684 1046 684 1077.5 710.5 c 128,-1,11
 1109 737 1109 737 1141 744.5 c 128,-1,12
 1173 752 1173 752 1203 745 c 128,-1,13
 1233 738 1233 738 1256 721 c 1,14,-1
 1215 650 l 1,15,16
 1198 661 1198 661 1178 660.5 c 128,-1,17
 1158 660 1158 660 1138 645.5 c 128,-1,18
 1118 631 1118 631 1101 598 c 2,19,-1
 789 0 l 1,20,-1
 683 0 l 1,21,-1
 607 605 l 1,22,-1
 636 606 l 1,23,-1
 308 0 l 1,24,-1
 202 0 l 1,0,-1
EndSplineSet
Substitution2: "'ss01' Style Set 1 lookup 50 subtable" uni2C72.ss01
Substitution2: "'c2sc' Capitals to Small Capitals lookup 45 subtable" uni2C73.sc
AlternateSubs2: "'aalt' Access All Alternates lookup 1 subtable" uni2C73.sc uni2C72.ss01
EndChar

StartChar: X
Encoding: 88 88 339
Width: 673
GlyphClass: 2
Flags: W
AnchorPoint: "Anchor-3" 424 700 basechar 0
AnchorPoint: "Anchor-0" 284 0 basechar 0
LayerCount: 2
Fore
SplineSet
-39 0 m 1,0,-1
 324 388 l 1,1,-1
 319 332 l 1,2,-1
 117 700 l 1,3,-1
 222 700 l 1,4,-1
 385 401 l 1,5,-1
 341 405 l 1,6,-1
 616 700 l 1,7,-1
 730 700 l 1,8,-1
 389 334 l 1,9,-1
 392 390 l 1,10,-1
 606 0 l 1,11,-1
 499 0 l 1,12,-1
 327 318 l 1,13,-1
 371 315 l 1,14,-1
 81 0 l 1,15,-1
 -39 0 l 1,0,-1
EndSplineSet
Substitution2: "'c2sc' Capitals to Small Capitals lookup 45 subtable" x.sc
Substitution2: "'aalt' Access All Alternates lookup 0 subtable" x.sc
EndChar

StartChar: Y
Encoding: 89 89 342
Width: 669
GlyphClass: 2
Flags: W
AnchorPoint: "Anchor-3" 422 700 basechar 0
AnchorPoint: "Anchor-2" 331 0 basechar 0
AnchorPoint: "Anchor-1" 327 236 basechar 0
AnchorPoint: "Anchor-0" 281 0 basechar 0
LayerCount: 2
Fore
SplineSet
231 0 m 1,0,-1
 285 270 l 1,1,-1
 297 204 l 1,2,-1
 95 700 l 1,3,-1
 194 700 l 1,4,-1
 363 284 l 1,5,-1
 307 283 l 1,6,-1
 643 700 l 1,7,-1
 749 700 l 1,8,-1
 351 203 l 1,9,-1
 385 270 l 1,10,-1
 331 0 l 1,11,-1
 231 0 l 1,0,-1
EndSplineSet
Substitution2: "'ss01' Style Set 1 lookup 50 subtable" Y.ss01
Substitution2: "'c2sc' Capitals to Small Capitals lookup 45 subtable" y.sc
AlternateSubs2: "'aalt' Access All Alternates lookup 1 subtable" y.sc Y.ss01
EndChar

StartChar: uni01B3
Encoding: 435 435 349
Width: 684
GlyphClass: 2
Flags: W
AnchorPoint: "Anchor-3" 440 700 basechar 0
AnchorPoint: "Anchor-1" 347 249 basechar 0
AnchorPoint: "Anchor-0" 300 0 basechar 0
LayerCount: 2
Fore
SplineSet
231 0 m 1,0,-1
 285 270 l 1,1,-1
 297 204 l 1,2,-1
 95 700 l 1,3,-1
 194 700 l 1,4,-1
 363 284 l 1,5,-1
 307 283 l 1,6,-1
 631 686 l 2,7,8
 671 736 671 736 725 746 c 128,-1,9
 779 756 779 756 826 721 c 1,10,-1
 785 650 l 1,11,12
 762 665 762 665 736.5 658.5 c 128,-1,13
 711 652 711 652 690 626 c 2,14,-1
 351 203 l 1,15,-1
 385 270 l 1,16,-1
 331 0 l 1,17,-1
 231 0 l 1,0,-1
EndSplineSet
Substitution2: "'ss01' Style Set 1 lookup 50 subtable" uni01B3.ss01
Substitution2: "'c2sc' Capitals to Small Capitals lookup 45 subtable" uni01B4.sc
AlternateSubs2: "'aalt' Access All Alternates lookup 1 subtable" uni01B4.sc uni01B3.ss01
EndChar

StartChar: uni01A6
Encoding: 422 422 352
Width: 727
GlyphClass: 2
Flags: W
AnchorPoint: "Anchor-3" 457 700 basechar 0
AnchorPoint: "Anchor-0" 317 0 basechar 0
LayerCount: 2
Fore
SplineSet
143 142 m 1,0,-1
 159 227 l 1,1,-1
 375 227 l 2,2,3
 482 227 482 227 541.5 274.5 c 128,-1,4
 601 322 601 322 601 415 c 0,5,6
 601 478 601 478 558 510 c 128,-1,7
 515 542 515 542 435 542 c 2,8,-1
 224 542 l 1,9,-1
 240 628 l 1,10,-1
 444 628 l 2,11,12
 567 628 567 628 634 574 c 128,-1,13
 701 520 701 520 701 424 c 0,14,15
 701 336 701 336 661.5 272.5 c 128,-1,16
 622 209 622 209 548 175.5 c 128,-1,17
 474 142 474 142 373 142 c 2,18,-1
 143 142 l 1,0,-1
52 0 m 1,19,-1
 192 700 l 1,20,-1
 292 700 l 1,21,-1
 153 0 l 1,22,-1
 52 0 l 1,19,-1
501 -100 m 1,23,-1
 351 165 l 1,24,-1
 458 165 l 1,25,-1
 607 -100 l 1,26,-1
 501 -100 l 1,23,-1
EndSplineSet
Substitution2: "'c2sc' Capitals to Small Capitals lookup 45 subtable" uni0280.sc
Substitution2: "'aalt' Access All Alternates lookup 0 subtable" uni0280.sc
EndChar

StartChar: uni024E
Encoding: 590 590 353
Width: 679
GlyphClass: 2
Flags: W
AnchorPoint: "Anchor-3" 425 700 basechar 0
AnchorPoint: "Anchor-1" 332 249 basechar 0
AnchorPoint: "Anchor-0" 285 0 basechar 0
LayerCount: 2
Fore
SplineSet
235 0 m 1,0,-1
 290 270 l 1,1,-1
 301 204 l 1,2,-1
 99 700 l 1,3,-1
 198 700 l 1,4,-1
 367 284 l 1,5,-1
 311 283 l 1,6,-1
 647 700 l 1,7,-1
 753 700 l 1,8,-1
 355 203 l 1,9,-1
 389 270 l 1,10,-1
 335 0 l 1,11,-1
 235 0 l 1,0,-1
58 505 m 1,12,-1
 73 584 l 1,13,-1
 733 584 l 1,14,-1
 718 505 l 1,15,-1
 58 505 l 1,12,-1
EndSplineSet
Substitution2: "'ss01' Style Set 1 lookup 50 subtable" uni024E.ss01
Substitution2: "'c2sc' Capitals to Small Capitals lookup 45 subtable" uni024F.sc
AlternateSubs2: "'aalt' Access All Alternates lookup 1 subtable" uni024F.sc uni024E.ss01
EndChar

StartChar: Z
Encoding: 90 90 355
Width: 657
GlyphClass: 2
Flags: W
AnchorPoint: "Anchor-3" 422 700 basechar 0
AnchorPoint: "Anchor-2" 574 0 basechar 0
AnchorPoint: "Anchor-0" 289 0 basechar 0
LayerCount: 2
Fore
SplineSet
-11 0 m 1,0,-1
 3 68 l 1,1,-1
 585 652 l 1,2,-1
 593 613 l 1,3,-1
 121 613 l 1,4,-1
 139 700 l 1,5,-1
 703 700 l 1,6,-1
 689 632 l 1,7,-1
 107 48 l 1,8,-1
 99 87 l 1,9,-1
 592 87 l 1,10,-1
 574 0 l 1,11,-1
 -11 0 l 1,0,-1
EndSplineSet
Substitution2: "'ss01' Style Set 1 lookup 50 subtable" Z.ss01
Substitution2: "'c2sc' Capitals to Small Capitals lookup 45 subtable" z.sc
AlternateSubs2: "'aalt' Access All Alternates lookup 1 subtable" z.sc Z.ss01
EndChar

StartChar: uni01B5
Encoding: 437 437 362
Width: 657
GlyphClass: 2
Flags: W
AnchorPoint: "Anchor-3" 422 700 basechar 0
AnchorPoint: "Anchor-0" 289 0 basechar 0
LayerCount: 2
Fore
SplineSet
-11 0 m 1,0,-1
 3 68 l 1,1,-1
 585 652 l 1,2,-1
 593 613 l 1,3,-1
 121 613 l 1,4,-1
 139 700 l 1,5,-1
 703 700 l 1,6,-1
 689 632 l 1,7,-1
 107 48 l 1,8,-1
 99 87 l 1,9,-1
 592 87 l 1,10,-1
 574 0 l 1,11,-1
 -11 0 l 1,0,-1
136 319 m 1,12,-1
 151 398 l 1,13,-1
 574 398 l 1,14,-1
 559 319 l 1,15,-1
 136 319 l 1,12,-1
EndSplineSet
Substitution2: "'c2sc' Capitals to Small Capitals lookup 45 subtable" uni01B6.sc
Substitution2: "'aalt' Access All Alternates lookup 0 subtable" uni01B6.sc
EndChar

StartChar: uniA78B
Encoding: 42891 42891 363
Width: 258
GlyphClass: 1
Flags: W
LayerCount: 2
Fore
SplineSet
86 297 m 1,0,-1
 167 700 l 1,1,-1
 264 700 l 1,2,-1
 174 297 l 1,3,-1
 86 297 l 1,0,-1
EndSplineSet
Substitution2: "'c2sc' Capitals to Small Capitals lookup 45 subtable" uniA78C.sc
Substitution2: "'aalt' Access All Alternates lookup 0 subtable" uniA78C.sc
EndChar

StartChar: uni0295.case
Encoding: 65538 -1 364
Width: 571
GlyphClass: 2
Flags: W
AnchorPoint: "Anchor-3" 406 700 basechar 0
AnchorPoint: "Anchor-0" 266 0 basechar 0
LayerCount: 2
Fore
SplineSet
316 0 m 1,0,-1
 217 0 l 1,1,-1
 248 152 l 2,2,3
 255 190 255 190 242.5 217 c 128,-1,4
 230 244 230 244 205 264.5 c 128,-1,5
 180 285 180 285 151.5 304.5 c 128,-1,6
 123 324 123 324 99 348.5 c 128,-1,7
 75 373 75 373 63.5 407.5 c 128,-1,8
 52 442 52 442 62 491 c 0,9,10
 73 546 73 546 105 587 c 128,-1,11
 137 628 137 628 183 654.5 c 128,-1,12
 229 681 229 681 283 694.5 c 128,-1,13
 337 708 337 708 393 708 c 0,14,15
 452 708 452 708 503.5 693 c 128,-1,16
 555 678 555 678 595.5 648 c 128,-1,17
 636 618 636 618 661 573 c 1,18,-1
 570 516 l 1,19,20
 554 552 554 552 523.5 575.5 c 128,-1,21
 493 599 493 599 454.5 610.5 c 128,-1,22
 416 622 416 622 374 622 c 0,23,24
 328 622 328 622 282.5 607.5 c 128,-1,25
 237 593 237 593 204.5 564.5 c 128,-1,26
 172 536 172 536 162 490 c 0,27,28
 155 452 155 452 168 426.5 c 128,-1,29
 181 401 181 401 206 382 c 128,-1,30
 231 363 231 363 259 344 c 128,-1,31
 287 325 287 325 311 301.5 c 128,-1,32
 335 278 335 278 346.5 243.5 c 128,-1,33
 358 209 358 209 348 157 c 2,34,-1
 316 0 l 1,0,-1
EndSplineSet
EndChar

StartChar: uni01B2.loclTOD0
Encoding: 65548 -1 374
Width: 745
GlyphClass: 2
Flags: W
AnchorPoint: "Anchor-3" 443 700 basechar 0
AnchorPoint: "Anchor-0" 303 0 basechar 0
LayerCount: 2
Fore
SplineSet
352 0 m 1,0,-1
 279 51 l 1,1,-1
 648 634 l 2,2,3
 678 682 678 682 710 708 c 128,-1,4
 742 734 742 734 773 742.5 c 128,-1,5
 804 751 804 751 832 744.5 c 128,-1,6
 860 738 860 738 884 721 c 1,7,-1
 843 650 l 1,8,9
 818 666 818 666 789 655.5 c 128,-1,10
 760 645 760 645 729 598 c 2,11,-1
 352 0 l 1,0,-1
254 0 m 1,12,-1
 86 700 l 1,13,-1
 189 700 l 1,14,-1
 342 54 l 1,15,-1
 352 0 l 1,16,-1
 254 0 l 1,12,-1
EndSplineSet
Substitution2: "'ss01' Style Set 1 lookup 50 subtable" uni01B2.loclTOD0.ss01
Substitution2: "'c2sc' Capitals to Small Capitals lookup 45 subtable" uni01B2.loclTOD0.sc
AlternateSubs2: "'aalt' Access All Alternates lookup 1 subtable" uni01B2.loclTOD0.sc uni01B2.loclTOD0.ss01
EndChar

StartChar: uni0181.loclXPE
Encoding: 65549 -1 375
Width: 723
GlyphClass: 1
Flags: W
LayerCount: 2
Fore
SplineSet
64 52 m 1,0,-1
 194 700 l 1,1,-1
 701 700 l 1,2,-1
 684 615 l 1,3,-1
 275 615 l 1,4,-1
 172 98 l 1,5,-1
 64 52 l 1,0,-1
359 -8 m 0,6,7
 282 -8 282 -8 204.5 9.5 c 128,-1,8
 127 27 127 27 64 52 c 1,9,-1
 161 115 l 1,10,11
 209 96 209 96 259.5 85.5 c 128,-1,12
 310 75 310 75 356 75 c 0,13,14
 411 75 411 75 454.5 86.5 c 128,-1,15
 498 98 498 98 526.5 124 c 128,-1,16
 555 150 555 150 564 193 c 0,17,18
 574 238 574 238 554 269 c 128,-1,19
 534 300 534 300 491 316.5 c 128,-1,20
 448 333 448 333 386 333 c 0,21,22
 344 333 344 333 296 325.5 c 128,-1,23
 248 318 248 318 197 302 c 1,24,-1
 210 379 l 1,25,26
 264 396 264 396 315.5 404.5 c 128,-1,27
 367 413 367 413 413 413 c 0,28,29
 500 413 500 413 561.5 385.5 c 128,-1,30
 623 358 623 358 650.5 306.5 c 128,-1,31
 678 255 678 255 664 184 c 0,32,33
 650 112 650 112 605 70 c 128,-1,34
 560 28 560 28 495.5 10 c 128,-1,35
 431 -8 431 -8 359 -8 c 0,6,7
EndSplineSet
EndChar

StartChar: A.ss01
Encoding: 65550 -1 376
Width: 777
GlyphClass: 2
Flags: W
AnchorPoint: "Anchor-3" 475 700 basechar 0
AnchorPoint: "Anchor-2" 637 0 basechar 0
AnchorPoint: "Anchor-0" 335 0 basechar 0
LayerCount: 2
Fore
SplineSet
35 0 m 1,0,-1
 115 403 l 2,1,2
 146 558 146 558 233 633 c 128,-1,3
 320 708 320 708 461 708 c 0,4,5
 557 708 557 708 620 670 c 128,-1,6
 683 632 683 632 708.5 561 c 128,-1,7
 734 490 734 490 714 390 c 2,8,-1
 636 0 l 1,9,-1
 537 0 l 1,10,-1
 616 396 l 2,11,12
 638 506 638 506 594.5 562.5 c 128,-1,13
 551 619 551 619 451 619 c 0,14,15
 354 619 354 619 295 567.5 c 128,-1,16
 236 516 236 516 213 401 c 2,17,-1
 133 0 l 1,18,-1
 35 0 l 1,0,-1
138 193 m 1,19,-1
 155 280 l 1,20,-1
 630 280 l 1,21,-1
 614 193 l 1,22,-1
 138 193 l 1,19,-1
EndSplineSet
EndChar

StartChar: uni023A.ss01
Encoding: 65579 -1 405
Width: 777
GlyphClass: 2
Flags: W
AnchorPoint: "Anchor-3" 475 700 basechar 0
AnchorPoint: "Anchor-2" 637 0 basechar 0
AnchorPoint: "Anchor-0" 335 0 basechar 0
LayerCount: 2
Fore
SplineSet
146 -70 m 1,0,-1
 694 770 l 1,1,-1
 776 770 l 1,2,-1
 229 -70 l 1,3,-1
 146 -70 l 1,0,-1
138 193 m 1,4,-1
 155 280 l 1,5,-1
 630 280 l 1,6,-1
 614 193 l 1,7,-1
 138 193 l 1,4,-1
35 0 m 1,8,-1
 115 403 l 2,9,10
 146 558 146 558 233 633 c 128,-1,11
 320 708 320 708 461 708 c 0,12,13
 557 708 557 708 620 670 c 128,-1,14
 683 632 683 632 708.5 561 c 128,-1,15
 734 490 734 490 714 390 c 2,16,-1
 636 0 l 1,17,-1
 537 0 l 1,18,-1
 616 396 l 2,19,20
 638 506 638 506 594.5 562.5 c 128,-1,21
 551 619 551 619 451 619 c 0,22,23
 354 619 354 619 295 567.5 c 128,-1,24
 236 516 236 516 213 401 c 2,25,-1
 133 0 l 1,26,-1
 35 0 l 1,8,-1
EndSplineSet
EndChar

StartChar: uni2C6F.ss01
Encoding: 65581 -1 407
Width: 777
GlyphClass: 2
Flags: W
AnchorPoint: "Anchor-3" 476 700 basechar 0
AnchorPoint: "Anchor-2" 175 700 basechar 0
AnchorPoint: "Anchor-0" 336 0 basechar 0
LayerCount: 2
Fore
SplineSet
776 700 m 1,0,-1
 696 297 l 2,1,2
 665 142 665 142 578 67 c 128,-1,3
 491 -8 491 -8 351 -8 c 0,4,5
 256 -8 256 -8 192 30 c 128,-1,6
 128 68 128 68 103 139 c 128,-1,7
 78 210 78 210 98 310 c 2,8,-1
 175 700 l 1,9,-1
 275 700 l 1,10,-1
 196 304 l 2,11,12
 174 194 174 194 217.5 137.5 c 128,-1,13
 261 81 261 81 360 81 c 0,14,15
 457 81 457 81 516.5 133 c 128,-1,16
 576 185 576 185 599 299 c 2,17,-1
 679 700 l 1,18,-1
 776 700 l 1,0,-1
673 507 m 1,19,-1
 657 420 l 1,20,-1
 181 420 l 1,21,-1
 198 507 l 1,22,-1
 673 507 l 1,19,-1
EndSplineSet
EndChar

StartChar: AE.ss01
Encoding: 65582 -1 408
Width: 1083
GlyphClass: 2
Flags: W
AnchorPoint: "Anchor-3" 620 700 basechar 0
AnchorPoint: "Anchor-0" 480 0 basechar 0
LayerCount: 2
Fore
SplineSet
473 0 m 1,0,-1
 613 700 l 1,1,-1
 1108 700 l 1,2,-1
 1090 615 l 1,3,-1
 694 615 l 1,4,-1
 650 396 l 1,5,-1
 1003 396 l 1,6,-1
 988 315 l 1,7,-1
 634 315 l 1,8,-1
 588 85 l 1,9,-1
 999 85 l 1,10,-1
 982 0 l 1,11,-1
 473 0 l 1,0,-1
141 203 m 1,12,-1
 158 287 l 1,13,-1
 580 287 l 1,14,-1
 563 203 l 1,15,-1
 141 203 l 1,12,-1
37 0 m 1,16,-1
 116 397 l 2,17,18
 145 544 145 544 235.5 622 c 128,-1,19
 326 700 326 700 466 700 c 2,20,-1
 663 700 l 1,21,-1
 644 610 l 1,22,-1
 462 610 l 2,23,24
 364 610 364 610 300 552.5 c 128,-1,25
 236 495 236 495 214 387 c 2,26,-1
 137 0 l 1,27,-1
 37 0 l 1,16,-1
EndSplineSet
EndChar

StartChar: E.ss01
Encoding: 65589 -1 415
Width: 644
GlyphClass: 2
Flags: W
AnchorPoint: "Anchor-3" 438 700 basechar 0
AnchorPoint: "Anchor-2" 541 0 basechar 0
AnchorPoint: "Anchor-0" 298 0 basechar 0
LayerCount: 2
Fore
SplineSet
305 -8 m 0,0,1
 223 -8 223 -8 162 14 c 128,-1,2
 101 36 101 36 67.5 77 c 128,-1,3
 34 118 34 118 34 175 c 0,4,5
 34 234 34 234 65.5 279 c 128,-1,6
 97 324 97 324 152 350 c 128,-1,7
 207 376 207 376 277 376 c 1,8,-1
 276 345 l 1,9,10
 232 345 232 345 199 363 c 128,-1,11
 166 381 166 381 147.5 413 c 128,-1,12
 129 445 129 445 129 486 c 0,13,14
 129 554 129 554 167.5 604 c 128,-1,15
 206 654 206 654 276 681 c 128,-1,16
 346 708 346 708 438 708 c 0,17,18
 508 708 508 708 567.5 694 c 128,-1,19
 627 680 627 680 670 653 c 1,20,-1
 635 574 l 1,21,22
 589 600 589 600 538 611 c 128,-1,23
 487 622 487 622 432 622 c 0,24,25
 369 622 369 622 323.5 605.5 c 128,-1,26
 278 589 278 589 253.5 559 c 128,-1,27
 229 529 229 529 229 488 c 0,28,29
 229 444 229 444 260.5 420.5 c 128,-1,30
 292 397 292 397 350 397 c 2,31,-1
 530 397 l 1,32,-1
 513 311 l 1,33,-1
 321 311 l 2,34,35
 236 311 236 311 185 278 c 128,-1,36
 134 245 134 245 134 186 c 0,37,38
 134 134 134 134 179 106 c 128,-1,39
 224 78 224 78 317 78 c 0,40,41
 392 78 392 78 457 97 c 128,-1,42
 522 116 522 116 563 149 c 1,43,-1
 596 71 l 1,44,45
 546 35 546 35 468.5 13.5 c 128,-1,46
 391 -8 391 -8 305 -8 c 0,0,1
EndSplineSet
EndChar

StartChar: Eogonek.ss01
Encoding: 65612 -1 438
Width: 644
GlyphClass: 1
Flags: W
LayerCount: 2
Fore
SplineSet
433 -224 m 0,0,1
 387 -224 387 -224 357 -200.5 c 128,-1,2
 327 -177 327 -177 327 -135 c 0,3,4
 327 -89 327 -89 357.5 -49.5 c 128,-1,5
 388 -10 388 -10 447 25 c 1,6,-1
 451 9 l 1,7,8
 418 1 418 1 381 -3.5 c 128,-1,9
 344 -8 344 -8 305 -8 c 0,10,11
 223 -8 223 -8 162 14 c 128,-1,12
 101 36 101 36 67.5 77 c 128,-1,13
 34 118 34 118 34 175 c 0,14,15
 34 234 34 234 65.5 279 c 128,-1,16
 97 324 97 324 152 350 c 128,-1,17
 207 376 207 376 277 376 c 1,18,-1
 276 345 l 1,19,20
 232 345 232 345 199 363 c 128,-1,21
 166 381 166 381 147.5 413 c 128,-1,22
 129 445 129 445 129 486 c 0,23,24
 129 554 129 554 167.5 604 c 128,-1,25
 206 654 206 654 276 681 c 128,-1,26
 346 708 346 708 438 708 c 0,27,28
 508 708 508 708 567.5 694 c 128,-1,29
 627 680 627 680 670 653 c 1,30,-1
 635 574 l 1,31,32
 589 600 589 600 538 611 c 128,-1,33
 487 622 487 622 432 622 c 0,34,35
 369 622 369 622 323.5 605.5 c 128,-1,36
 278 589 278 589 253.5 559 c 128,-1,37
 229 529 229 529 229 488 c 0,38,39
 229 444 229 444 260.5 420.5 c 128,-1,40
 292 397 292 397 350 397 c 2,41,-1
 530 397 l 1,42,-1
 513 311 l 1,43,-1
 321 311 l 2,44,45
 236 311 236 311 185 278 c 128,-1,46
 134 245 134 245 134 186 c 0,47,48
 134 134 134 134 179 106 c 128,-1,49
 224 78 224 78 317 78 c 0,50,51
 392 78 392 78 457 97.5 c 128,-1,52
 522 117 522 117 563 149 c 1,53,-1
 596 70 l 1,54,55
 523 25 523 25 479.5 -9.5 c 128,-1,56
 436 -44 436 -44 416.5 -72 c 128,-1,57
 397 -100 397 -100 397 -124 c 0,58,59
 397 -145 397 -145 411 -156.5 c 128,-1,60
 425 -168 425 -168 448 -168 c 0,61,62
 465 -168 465 -168 483 -163 c 128,-1,63
 501 -158 501 -158 515 -150 c 1,64,-1
 527 -200 l 1,65,66
 508 -211 508 -211 485 -217.5 c 128,-1,67
 462 -224 462 -224 433 -224 c 0,0,1
EndSplineSet
EndChar

StartChar: uni0246.ss01
Encoding: 65613 -1 439
Width: 644
GlyphClass: 2
Flags: W
AnchorPoint: "Anchor-3" 443 700 basechar 0
AnchorPoint: "Anchor-2" 388 0 basechar 0
AnchorPoint: "Anchor-0" 310 0 basechar 0
LayerCount: 2
Fore
SplineSet
73 -70 m 1,0,-1
 620 770 l 1,1,-1
 702 770 l 1,2,-1
 155 -70 l 1,3,-1
 73 -70 l 1,0,-1
305 -8 m 0,4,5
 223 -8 223 -8 162 14 c 128,-1,6
 101 36 101 36 67.5 77 c 128,-1,7
 34 118 34 118 34 175 c 0,8,9
 34 234 34 234 65.5 279 c 128,-1,10
 97 324 97 324 152 350 c 128,-1,11
 207 376 207 376 277 376 c 1,12,-1
 276 345 l 1,13,14
 232 345 232 345 199 363 c 128,-1,15
 166 381 166 381 147.5 413 c 128,-1,16
 129 445 129 445 129 486 c 0,17,18
 129 554 129 554 167.5 604 c 128,-1,19
 206 654 206 654 276 681 c 128,-1,20
 346 708 346 708 438 708 c 0,21,22
 508 708 508 708 567.5 694 c 128,-1,23
 627 680 627 680 670 653 c 1,24,-1
 635 574 l 1,25,26
 589 600 589 600 538 611 c 128,-1,27
 487 622 487 622 432 622 c 0,28,29
 369 622 369 622 323.5 605.5 c 128,-1,30
 278 589 278 589 253.5 559 c 128,-1,31
 229 529 229 529 229 488 c 0,32,33
 229 444 229 444 260.5 420.5 c 128,-1,34
 292 397 292 397 350 397 c 2,35,-1
 530 397 l 1,36,-1
 513 311 l 1,37,-1
 321 311 l 2,38,39
 236 311 236 311 185 278 c 128,-1,40
 134 245 134 245 134 186 c 0,41,42
 134 134 134 134 179 106 c 128,-1,43
 224 78 224 78 317 78 c 0,44,45
 392 78 392 78 457 97 c 128,-1,46
 522 116 522 116 563 149 c 1,47,-1
 596 71 l 1,48,49
 546 35 546 35 468.5 13.5 c 128,-1,50
 391 -8 391 -8 305 -8 c 0,4,5
EndSplineSet
EndChar

StartChar: uni018E.ss01
Encoding: 65616 -1 442
Width: 634
GlyphClass: 2
Flags: W
AnchorPoint: "Anchor-3" 370 700 basechar 0
AnchorPoint: "Anchor-0" 252 0 basechar 0
LayerCount: 2
Fore
SplineSet
240 -7 m 0,0,1
 187 -7 187 -7 133.5 3 c 128,-1,2
 80 13 80 13 35.5 31 c 128,-1,3
 -9 49 -9 49 -37 74 c 1,4,-1
 12 151 l 1,5,6
 37 129 37 129 75 112 c 128,-1,7
 113 95 113 95 159 86 c 128,-1,8
 205 77 205 77 250 77 c 0,9,10
 307 77 307 77 355.5 91.5 c 128,-1,11
 404 106 404 106 434.5 137 c 128,-1,12
 465 168 465 168 465 216 c 0,13,14
 465 272 465 272 424.5 296.5 c 128,-1,15
 384 321 384 321 319 321 c 2,16,-1
 154 321 l 1,17,-1
 169 402 l 1,18,-1
 330 402 l 2,19,20
 376 402 376 402 413 414 c 128,-1,21
 450 426 450 426 472 451.5 c 128,-1,22
 494 477 494 477 494 517 c 0,23,24
 494 555 494 555 474.5 577.5 c 128,-1,25
 455 600 455 600 421.5 610 c 128,-1,26
 388 620 388 620 348 620 c 0,27,28
 310 620 310 620 270 613 c 128,-1,29
 230 606 230 606 192.5 594 c 128,-1,30
 155 582 155 582 124 566 c 1,31,-1
 111 646 l 1,32,33
 147 665 147 665 189 678 c 128,-1,34
 231 691 231 691 274.5 698 c 128,-1,35
 318 705 318 705 361 705 c 0,36,37
 425 705 425 705 478.5 687.5 c 128,-1,38
 532 670 532 670 564.5 633 c 128,-1,39
 597 596 597 596 597 537 c 0,40,41
 597 481 597 481 568 437.5 c 128,-1,42
 539 394 539 394 491 370 c 128,-1,43
 443 346 443 346 387 346 c 1,44,-1
 397 375 l 1,45,46
 442 375 442 375 480 359 c 128,-1,47
 518 343 518 343 541.5 309 c 128,-1,48
 565 275 565 275 565 221 c 0,49,50
 565 165 565 165 539.5 122.5 c 128,-1,51
 514 80 514 80 468.5 51.5 c 128,-1,52
 423 23 423 23 364.5 8 c 128,-1,53
 306 -7 306 -7 240 -7 c 0,0,1
EndSplineSet
EndChar

StartChar: uni018F.ss01
Encoding: 65617 -1 443
Width: 817
GlyphClass: 2
Flags: W
AnchorPoint: "Anchor-3" 495 700 basechar 0
AnchorPoint: "Anchor-2" 409 0 basechar 0
AnchorPoint: "Anchor-0" 355 0 basechar 0
LayerCount: 2
Fore
SplineSet
378 -8 m 0,0,1
 296 -8 296 -8 230 19 c 128,-1,2
 164 46 164 46 121 98.5 c 128,-1,3
 78 151 78 151 63 228 c 1,4,-1
 702 470 l 1,5,-1
 714 382 l 1,6,-1
 125 160 l 1,7,-1
 160 240 l 1,8,9
 173 166 173 166 231.5 122 c 128,-1,10
 290 78 290 78 387 78 c 0,11,12
 456 78 456 78 512.5 104.5 c 128,-1,13
 569 131 569 131 608.5 176.5 c 128,-1,14
 648 222 648 222 669.5 281.5 c 128,-1,15
 691 341 691 341 691 407 c 0,16,17
 691 470 691 470 665 517.5 c 128,-1,18
 639 565 639 565 587.5 592 c 128,-1,19
 536 619 536 619 458 619 c 0,20,21
 393 619 393 619 334 598.5 c 128,-1,22
 275 578 275 578 232 540 c 1,23,-1
 183 613 l 1,24,25
 234 658 234 658 309 683 c 128,-1,26
 384 708 384 708 466 708 c 0,27,28
 571 708 571 708 643 671 c 128,-1,29
 715 634 715 634 753 567.5 c 128,-1,30
 791 501 791 501 791 413 c 0,31,32
 791 326 791 326 762 249.5 c 128,-1,33
 733 173 733 173 678.5 115 c 128,-1,34
 624 57 624 57 548 24.5 c 128,-1,35
 472 -8 472 -8 378 -8 c 0,0,1
EndSplineSet
EndChar

StartChar: F.ss01
Encoding: 65618 -1 444
Width: 595
GlyphClass: 1
Flags: W
LayerCount: 2
Fore
SplineSet
35 0 m 1,0,-1
 126 452 l 2,1,2
 150 577 150 577 231.5 642.5 c 128,-1,3
 313 708 313 708 456 708 c 0,4,5
 514 708 514 708 567 694.5 c 128,-1,6
 620 681 620 681 657 653 c 1,7,-1
 612 573 l 1,8,9
 580 597 580 597 539.5 608 c 128,-1,10
 499 619 499 619 452 619 c 0,11,12
 354 619 354 619 298 577.5 c 128,-1,13
 242 536 242 536 225 455 c 2,14,-1
 135 0 l 1,15,-1
 35 0 l 1,0,-1
154 282 m 1,16,-1
 172 369 l 1,17,-1
 529 369 l 1,18,-1
 511 282 l 1,19,-1
 154 282 l 1,16,-1
EndSplineSet
EndChar

StartChar: uni0191.ss01
Encoding: 65620 -1 446
Width: 655
GlyphClass: 1
Flags: W
LayerCount: 2
Fore
SplineSet
-116 -164 m 1,0,-1
 -81 -93 l 1,1,2
 -50 -109 -50 -109 -23 -114 c 128,-1,3
 4 -119 4 -119 25 -111.5 c 128,-1,4
 46 -104 46 -104 60 -86 c 128,-1,5
 74 -68 74 -68 80 -39 c 2,6,-1
 180 452 l 2,7,8
 205 577 205 577 285.5 642.5 c 128,-1,9
 366 708 366 708 510 708 c 0,10,11
 567 708 567 708 620.5 694.5 c 128,-1,12
 674 681 674 681 711 653 c 1,13,-1
 665 573 l 1,14,15
 634 597 634 597 593 608 c 128,-1,16
 552 619 552 619 505 619 c 0,17,18
 408 619 408 619 352 577.5 c 128,-1,19
 296 536 296 536 279 455 c 2,20,-1
 176 -55 l 2,21,22
 167 -105 167 -105 136.5 -139 c 128,-1,23
 106 -173 106 -173 64 -189 c 128,-1,24
 22 -205 22 -205 -24.5 -199.5 c 128,-1,25
 -71 -194 -71 -194 -116 -164 c 1,0,-1
208 282 m 1,26,-1
 225 369 l 1,27,-1
 582 369 l 1,28,-1
 565 282 l 1,29,-1
 208 282 l 1,26,-1
EndSplineSet
EndChar

StartChar: G.ss01
Encoding: 65621 -1 447
Width: 772
GlyphClass: 2
Flags: W
AnchorPoint: "Anchor-3" 497 700 basechar 0
AnchorPoint: "Anchor-0" 374 0 basechar 0
LayerCount: 2
Fore
SplineSet
377 -8 m 0,0,1
 281 -8 281 -8 210 28.5 c 128,-1,2
 139 65 139 65 99.5 131 c 128,-1,3
 60 197 60 197 60 286 c 0,4,5
 60 374 60 374 90 450.5 c 128,-1,6
 120 527 120 527 176.5 585 c 128,-1,7
 233 643 233 643 312.5 675.5 c 128,-1,8
 392 708 392 708 491 708 c 0,9,10
 583 708 583 708 651.5 680 c 128,-1,11
 720 652 720 652 761 600 c 1,12,-1
 689 539 l 1,13,14
 654 580 654 580 603.5 599.5 c 128,-1,15
 553 619 553 619 486 619 c 0,16,17
 412 619 412 619 352 593.5 c 128,-1,18
 292 568 292 568 249 523 c 128,-1,19
 206 478 206 478 183 419.5 c 128,-1,20
 160 361 160 361 160 294 c 0,21,22
 160 231 160 231 186 183 c 128,-1,23
 212 135 212 135 263 108 c 128,-1,24
 314 81 314 81 388 81 c 0,25,26
 444 81 444 81 496.5 102 c 128,-1,27
 549 123 549 123 589 167 c 1,28,-1
 621 97 l 1,29,30
 591 61 591 61 553 37.5 c 128,-1,31
 515 14 515 14 471 3 c 128,-1,32
 427 -8 427 -8 377 -8 c 0,0,1
545 0 m 1,33,-1
 561 83 l 1,34,-1
 556 93 l 1,35,-1
 608 354 l 1,36,-1
 704 354 l 1,37,-1
 632 0 l 1,38,-1
 545 0 l 1,33,-1
EndSplineSet
EndChar

StartChar: uni0193.ss01
Encoding: 65628 -1 454
Width: 763
GlyphClass: 2
Flags: W
AnchorPoint: "Anchor-3" 525 700 basechar 0
AnchorPoint: "Anchor-0" 375 0 basechar 0
LayerCount: 2
Fore
SplineSet
377 -8 m 0,0,1
 281 -8 281 -8 210 28.5 c 128,-1,2
 139 65 139 65 99.5 131 c 128,-1,3
 60 197 60 197 60 286 c 0,4,5
 60 374 60 374 90 450.5 c 128,-1,6
 120 527 120 527 176.5 585 c 128,-1,7
 233 643 233 643 312.5 675.5 c 128,-1,8
 392 708 392 708 491 708 c 0,9,10
 583 708 583 708 651 679.5 c 128,-1,11
 719 651 719 651 760 599 c 1,12,-1
 689 539 l 1,13,14
 654 580 654 580 603.5 599.5 c 128,-1,15
 553 619 553 619 486 619 c 0,16,17
 412 619 412 619 352 593.5 c 128,-1,18
 292 568 292 568 249 523 c 128,-1,19
 206 478 206 478 183 419.5 c 128,-1,20
 160 361 160 361 160 294 c 0,21,22
 160 231 160 231 186 183 c 128,-1,23
 212 135 212 135 263 108 c 128,-1,24
 314 81 314 81 388 81 c 0,25,26
 444 81 444 81 496.5 102 c 128,-1,27
 549 123 549 123 589 167 c 1,28,-1
 621 97 l 1,29,30
 591 61 591 61 553 37.5 c 128,-1,31
 515 14 515 14 471 3 c 128,-1,32
 427 -8 427 -8 377 -8 c 0,0,1
545 0 m 1,33,-1
 561 83 l 1,34,-1
 556 93 l 1,35,-1
 608 354 l 1,36,-1
 704 354 l 1,37,-1
 632 0 l 1,38,-1
 545 0 l 1,33,-1
668 599 m 1,39,-1
 682 674 l 2,40,41
 691 720 691 720 716 753 c 128,-1,42
 741 786 741 786 775 804.5 c 128,-1,43
 809 823 809 823 847 825.5 c 128,-1,44
 885 828 885 828 920 815 c 1,45,-1
 897 739 l 1,46,47
 867 748 867 748 840.5 741.5 c 128,-1,48
 814 735 814 735 796 713 c 128,-1,49
 778 691 778 691 770 655 c 2,50,-1
 760 599 l 1,51,-1
 668 599 l 1,39,-1
EndSplineSet
EndChar

StartChar: uni01E4.ss01
Encoding: 65630 -1 456
Width: 812
GlyphClass: 2
Flags: W
AnchorPoint: "Anchor-3" 497 700 basechar 0
AnchorPoint: "Anchor-0" 380 0 basechar 0
LayerCount: 2
Fore
SplineSet
377 -8 m 0,0,1
 281 -8 281 -8 210 28.5 c 128,-1,2
 139 65 139 65 99.5 131 c 128,-1,3
 60 197 60 197 60 286 c 0,4,5
 60 374 60 374 90 450.5 c 128,-1,6
 120 527 120 527 176.5 585 c 128,-1,7
 233 643 233 643 312.5 675.5 c 128,-1,8
 392 708 392 708 491 708 c 0,9,10
 583 708 583 708 651.5 680 c 128,-1,11
 720 652 720 652 761 600 c 1,12,-1
 689 539 l 1,13,14
 654 580 654 580 603.5 599.5 c 128,-1,15
 553 619 553 619 486 619 c 0,16,17
 412 619 412 619 352 593.5 c 128,-1,18
 292 568 292 568 249 523 c 128,-1,19
 206 478 206 478 183 419.5 c 128,-1,20
 160 361 160 361 160 294 c 0,21,22
 160 231 160 231 186 183 c 128,-1,23
 212 135 212 135 263 108 c 128,-1,24
 314 81 314 81 388 81 c 0,25,26
 444 81 444 81 496.5 102 c 128,-1,27
 549 123 549 123 589 167 c 1,28,-1
 621 97 l 1,29,30
 591 61 591 61 553 37.5 c 128,-1,31
 515 14 515 14 471 3 c 128,-1,32
 427 -8 427 -8 377 -8 c 0,0,1
545 0 m 1,33,-1
 561 83 l 1,34,-1
 556 93 l 1,35,-1
 608 354 l 1,36,-1
 704 354 l 1,37,-1
 632 0 l 1,38,-1
 545 0 l 1,33,-1
426 209 m 1,39,-1
 441 288 l 1,40,-1
 794 288 l 1,41,-1
 779 209 l 1,42,-1
 426 209 l 1,39,-1
EndSplineSet
EndChar

StartChar: I.ss01
Encoding: 65631 -1 457
Width: 456
GlyphClass: 2
Flags: W
AnchorPoint: "Anchor-3" 315 700 basechar 0
AnchorPoint: "Anchor-2" 225 0 basechar 0
AnchorPoint: "Anchor-0" 175 0 basechar 0
LayerCount: 2
Fore
SplineSet
128 14 m 1,0,-1
 263 687 l 1,1,-1
 362 687 l 1,2,-1
 228 14 l 1,3,-1
 128 14 l 1,0,-1
-11 0 m 1,4,-1
 5 84 l 1,5,-1
 377 84 l 1,6,-1
 361 0 l 1,7,-1
 -11 0 l 1,4,-1
113 616 m 1,8,-1
 129 700 l 1,9,-1
 501 700 l 1,10,-1
 485 616 l 1,11,-1
 113 616 l 1,8,-1
EndSplineSet
EndChar

StartChar: IJ.ss01
Encoding: 65632 -1 458
Width: 709
GlyphClass: 2
Flags: W
AnchorPoint: "Anchor-3" 253 700 basechar 0
LayerCount: 2
Fore
SplineSet
275 -108 m 0,0,1
 195 -108 195 -108 133 -88.5 c 128,-1,2
 71 -69 71 -69 28 -36 c 1,3,-1
 78 44 l 1,4,5
 120 13 120 13 172 -3 c 128,-1,6
 224 -19 224 -19 282 -19 c 0,7,8
 376 -19 376 -19 430.5 33 c 128,-1,9
 485 85 485 85 508 202 c 2,10,-1
 607 700 l 1,11,-1
 706 700 l 1,12,-1
 607 196 l 2,13,14
 576 42 576 42 494 -33 c 128,-1,15
 412 -108 412 -108 275 -108 c 0,0,1
88 209 m 1,16,-1
 185 700 l 1,17,-1
 285 700 l 1,18,-1
 187 209 l 1,19,-1
 88 209 l 1,16,-1
EndSplineSet
EndChar

StartChar: uni0197.ss01
Encoding: 65646 -1 472
Width: 456
GlyphClass: 2
Flags: W
AnchorPoint: "Anchor-3" 315 700 basechar 0
AnchorPoint: "Anchor-2" 225 0 basechar 0
AnchorPoint: "Anchor-0" 175 0 basechar 0
LayerCount: 2
Fore
SplineSet
128 14 m 1,0,-1
 263 687 l 1,1,-1
 362 687 l 1,2,-1
 228 14 l 1,3,-1
 128 14 l 1,0,-1
-11 0 m 1,4,-1
 5 84 l 1,5,-1
 377 84 l 1,6,-1
 361 0 l 1,7,-1
 -11 0 l 1,4,-1
113 616 m 1,8,-1
 129 700 l 1,9,-1
 501 700 l 1,10,-1
 485 616 l 1,11,-1
 113 616 l 1,8,-1
85 319 m 1,12,-1
 100 398 l 1,13,-1
 408 398 l 1,14,-1
 393 319 l 1,15,-1
 85 319 l 1,12,-1
EndSplineSet
EndChar

StartChar: J.ss01
Encoding: 65649 -1 475
Width: 502
GlyphClass: 2
Flags: W
AnchorPoint: "Anchor-3" 325 700 basechar 0
LayerCount: 2
Fore
SplineSet
142 -108 m 0,0,1
 71 -108 71 -108 18.5 -81 c 128,-1,2
 -34 -54 -34 -54 -61 -6 c 1,3,-1
 8 59 l 1,4,5
 28 22 28 22 62.5 0 c 128,-1,6
 97 -22 97 -22 144 -22 c 0,7,8
 201 -22 201 -22 237 9.5 c 128,-1,9
 273 41 273 41 287 115 c 2,10,-1
 386 613 l 1,11,-1
 133 613 l 1,12,-1
 151 700 l 1,13,-1
 501 700 l 1,14,-1
 385 119 l 2,15,16
 361 -7 361 -7 300.5 -57.5 c 128,-1,17
 240 -108 240 -108 142 -108 c 0,0,1
EndSplineSet
EndChar

StartChar: uniA7B2.ss01
Encoding: 65651 -1 477
Width: 548
GlyphClass: 2
Flags: W
AnchorPoint: "Anchor-3" 336 700 basechar 0
LayerCount: 2
Fore
SplineSet
163 -106 m 0,0,1
 102 -106 102 -106 59.5 -83.5 c 128,-1,2
 17 -61 17 -61 -2 -22.5 c 128,-1,3
 -21 16 -21 16 -12 65 c 0,4,5
 2 124 2 124 53.5 156 c 128,-1,6
 105 188 105 188 188 188 c 2,7,-1
 489 188 l 1,8,-1
 472 108 l 1,9,-1
 186 108 l 2,10,11
 143 108 143 108 115.5 93.5 c 128,-1,12
 88 79 88 79 81 52 c 0,13,14
 73 20 73 20 96 -3 c 128,-1,15
 119 -26 119 -26 163 -26 c 0,16,17
 195 -26 195 -26 221 -11 c 128,-1,18
 247 4 247 4 265 32.5 c 128,-1,19
 283 61 283 61 291 101 c 2,20,-1
 395 613 l 1,21,-1
 142 613 l 1,22,-1
 159 700 l 1,23,-1
 511 700 l 1,24,-1
 387 81 l 2,25,26
 376 24 376 24 345 -18 c 128,-1,27
 314 -60 314 -60 268 -83 c 128,-1,28
 222 -106 222 -106 163 -106 c 0,0,1
EndSplineSet
EndChar

StartChar: uni0248.ss01
Encoding: 65652 -1 478
Width: 502
GlyphClass: 2
Flags: W
AnchorPoint: "Anchor-3" 325 700 basechar 0
LayerCount: 2
Fore
SplineSet
142 -108 m 0,0,1
 71 -108 71 -108 18.5 -81 c 128,-1,2
 -34 -54 -34 -54 -61 -6 c 1,3,-1
 8 59 l 1,4,5
 28 22 28 22 62.5 0 c 128,-1,6
 97 -22 97 -22 144 -22 c 0,7,8
 201 -22 201 -22 236.5 9.5 c 128,-1,9
 272 41 272 41 287 115 c 2,10,-1
 386 613 l 1,11,-1
 133 613 l 1,12,-1
 151 700 l 1,13,-1
 501 700 l 1,14,-1
 385 119 l 2,15,16
 361 -7 361 -7 300.5 -57.5 c 128,-1,17
 240 -108 240 -108 142 -108 c 0,0,1
174 319 m 1,18,-1
 189 398 l 1,19,-1
 545 398 l 1,20,-1
 530 319 l 1,21,-1
 174 319 l 1,18,-1
EndSplineSet
EndChar

StartChar: M.ss01
Encoding: 65654 -1 480
Width: 1197
GlyphClass: 2
Flags: W
AnchorPoint: "Anchor-3" 693 700 basechar 0
AnchorPoint: "Anchor-0" 557 0 basechar 0
LayerCount: 2
Fore
SplineSet
52 0 m 1,0,-1
 194 700 l 1,1,-1
 290 700 l 1,2,-1
 261 560 l 1,3,-1
 243 574 l 1,4,5
 281 637 281 637 344 672.5 c 128,-1,6
 407 708 407 708 491 708 c 0,7,8
 582 708 582 708 638.5 668.5 c 128,-1,9
 695 629 695 629 701 559 c 1,10,-1
 670 561 l 1,11,12
 712 632 712 632 778.5 670 c 128,-1,13
 845 708 845 708 933 708 c 0,14,15
 1013 708 1013 708 1066.5 677 c 128,-1,16
 1120 646 1120 646 1140.5 585.5 c 128,-1,17
 1161 525 1161 525 1143 435 c 2,18,-1
 1056 0 l 1,19,-1
 956 0 l 1,20,-1
 1044 432 l 2,21,22
 1063 528 1063 528 1024.5 573.5 c 128,-1,23
 986 619 986 619 907 619 c 256,24,25
 828 619 828 619 768.5 571 c 128,-1,26
 709 523 709 523 688 418 c 2,27,-1
 604 0 l 1,28,-1
 504 0 l 1,29,-1
 592 432 l 2,30,31
 611 528 611 528 575 573.5 c 128,-1,32
 539 619 539 619 460 619 c 0,33,34
 408 619 408 619 362.5 598.5 c 128,-1,35
 317 578 317 578 284 535 c 128,-1,36
 251 492 251 492 237 422 c 2,37,-1
 152 0 l 1,38,-1
 52 0 l 1,0,-1
EndSplineSet
EndChar

StartChar: N.ss01
Encoding: 65656 -1 482
Width: 787
GlyphClass: 2
Flags: W
AnchorPoint: "Anchor-3" 489 700 basechar 0
AnchorPoint: "Anchor-0" 348 0 basechar 0
LayerCount: 2
Fore
SplineSet
501 708 m 0,0,1
 585 708 585 708 642 671.5 c 128,-1,2
 699 635 699 635 722.5 566.5 c 128,-1,3
 746 498 746 498 726 398 c 2,4,-1
 646 0 l 1,5,-1
 547 0 l 1,6,-1
 627 402 l 2,7,8
 649 511 649 511 608.5 565 c 128,-1,9
 568 619 568 619 473 619 c 0,10,11
 386 619 386 619 320.5 568 c 128,-1,12
 255 517 255 517 233 408 c 2,13,-1
 152 0 l 1,14,-1
 52 0 l 1,15,-1
 192 700 l 1,16,-1
 288 700 l 1,17,-1
 254 529 l 1,18,-1
 243 572 l 1,19,20
 285 639 285 639 350.5 673.5 c 128,-1,21
 416 708 416 708 501 708 c 0,0,1
EndSplineSet
EndChar

StartChar: Eng.ss01
Encoding: 65668 -1 494
Width: 787
GlyphClass: 2
Flags: W
AnchorPoint: "Anchor-3" 481 700 basechar 0
AnchorPoint: "Anchor-0" 302 -194 basechar 0
LayerCount: 2
Fore
SplineSet
501 708 m 0,0,1
 585 708 585 708 642 671.5 c 128,-1,2
 699 635 699 635 722.5 566.5 c 128,-1,3
 746 498 746 498 726 398 c 2,4,-1
 654 37 l 2,5,6
 636 -53 636 -53 602 -104.5 c 128,-1,7
 568 -156 568 -156 519.5 -178 c 128,-1,8
 471 -200 471 -200 407 -200 c 0,9,10
 347 -200 347 -200 298 -179 c 128,-1,11
 249 -158 249 -158 222 -118 c 1,12,-1
 284 -47 l 1,13,14
 302 -77 302 -77 335 -95 c 128,-1,15
 368 -113 368 -113 414 -113 c 0,16,17
 467 -113 467 -113 502 -80.5 c 128,-1,18
 537 -48 537 -48 553 29 c 2,19,-1
 627 402 l 2,20,21
 649 511 649 511 608.5 565 c 128,-1,22
 568 619 568 619 473 619 c 0,23,24
 386 619 386 619 320.5 568 c 128,-1,25
 255 517 255 517 233 408 c 2,26,-1
 152 0 l 1,27,-1
 52 0 l 1,28,-1
 192 700 l 1,29,-1
 288 700 l 1,30,-1
 254 529 l 1,31,-1
 243 572 l 1,32,33
 285 639 285 639 350.5 673.5 c 128,-1,34
 416 708 416 708 501 708 c 0,0,1
EndSplineSet
EndChar

StartChar: Q.ss01
Encoding: 65669 -1 495
Width: 840
GlyphClass: 2
Flags: W
AnchorPoint: "Anchor-3" 508 700 basechar 0
LayerCount: 2
Fore
SplineSet
389 -8 m 0,0,1
 285 -8 285 -8 211 29 c 128,-1,2
 137 66 137 66 98.5 132.5 c 128,-1,3
 60 199 60 199 60 287 c 0,4,5
 60 374 60 374 90 450.5 c 128,-1,6
 120 527 120 527 176 585 c 128,-1,7
 232 643 232 643 310 675.5 c 128,-1,8
 388 708 388 708 485 708 c 0,9,10
 590 708 590 708 664 671 c 128,-1,11
 738 634 738 634 776.5 567.5 c 128,-1,12
 815 501 815 501 815 413 c 0,13,14
 815 326 815 326 785 249.5 c 128,-1,15
 755 173 755 173 699 115 c 128,-1,16
 643 57 643 57 564.5 24.5 c 128,-1,17
 486 -8 486 -8 389 -8 c 0,0,1
290 -135 m 1,18,-1
 319 9 l 1,19,-1
 328 44 l 1,20,-1
 370 250 l 1,21,-1
 463 250 l 1,22,-1
 421 44 l 1,23,-1
 419 11 l 1,24,-1
 390 -135 l 1,25,-1
 290 -135 l 1,18,-1
398 81 m 0,26,27
 470 81 470 81 529 106.5 c 128,-1,28
 588 132 588 132 629 177.5 c 128,-1,29
 670 223 670 223 692 282 c 128,-1,30
 714 341 714 341 714 407 c 0,31,32
 714 470 714 470 687 517.5 c 128,-1,33
 660 565 660 565 607 592 c 128,-1,34
 554 619 554 619 477 619 c 0,35,36
 404 619 404 619 345.5 593.5 c 128,-1,37
 287 568 287 568 245.5 522.5 c 128,-1,38
 204 477 204 477 182 418 c 128,-1,39
 160 359 160 359 160 293 c 0,40,41
 160 230 160 230 187.5 182.5 c 128,-1,42
 215 135 215 135 267.5 108 c 128,-1,43
 320 81 320 81 398 81 c 0,26,27
EndSplineSet
EndChar

StartChar: T.ss01
Encoding: 65670 -1 496
Width: 598
GlyphClass: 2
Flags: W
AnchorPoint: "Anchor-3" 387 700 basechar 0
AnchorPoint: "Anchor-1" 318 358 basechar 0
AnchorPoint: "Anchor-0" 245 0 basechar 0
LayerCount: 2
Fore
SplineSet
93 551 m 1,0,-1
 65 630 l 1,1,2
 107 656 107 656 157.5 673 c 128,-1,3
 208 690 208 690 263 699 c 128,-1,4
 318 708 318 708 373 708 c 0,5,6
 460 708 460 708 536.5 688 c 128,-1,7
 613 668 613 668 673 628 c 1,8,-1
 628 549 l 1,9,10
 572 584 572 584 505.5 602 c 128,-1,11
 439 620 439 620 358 620 c 0,12,13
 285 620 285 620 216.5 602.5 c 128,-1,14
 148 585 148 585 93 551 c 1,0,-1
196 0 m 1,15,-1
 327 655 l 1,16,-1
 427 655 l 1,17,-1
 295 0 l 1,18,-1
 196 0 l 1,15,-1
EndSplineSet
EndChar

StartChar: Tbar.ss01
Encoding: 65671 -1 497
Width: 598
GlyphClass: 2
Flags: W
AnchorPoint: "Anchor-3" 387 700 basechar 0
AnchorPoint: "Anchor-1" 318 358 basechar 0
AnchorPoint: "Anchor-0" 245 0 basechar 0
LayerCount: 2
Fore
SplineSet
93 551 m 1,0,-1
 65 630 l 1,1,2
 107 656 107 656 157.5 673 c 128,-1,3
 208 690 208 690 263 699 c 128,-1,4
 318 708 318 708 373 708 c 0,5,6
 460 708 460 708 536.5 688 c 128,-1,7
 613 668 613 668 673 628 c 1,8,-1
 628 549 l 1,9,10
 572 584 572 584 505.5 602 c 128,-1,11
 439 620 439 620 358 620 c 0,12,13
 285 620 285 620 216.5 602.5 c 128,-1,14
 148 585 148 585 93 551 c 1,0,-1
196 0 m 1,15,-1
 327 655 l 1,16,-1
 427 655 l 1,17,-1
 295 0 l 1,18,-1
 196 0 l 1,15,-1
108 319 m 1,19,-1
 123 398 l 1,20,-1
 527 398 l 1,21,-1
 512 319 l 1,22,-1
 108 319 l 1,19,-1
EndSplineSet
EndChar

StartChar: uni023E.ss01
Encoding: 65676 -1 502
Width: 598
GlyphClass: 2
Flags: W
AnchorPoint: "Anchor-3" 390 700 basechar 0
AnchorPoint: "Anchor-1" 318 341 basechar 0
AnchorPoint: "Anchor-0" 250 0 basechar 0
LayerCount: 2
Fore
SplineSet
36 -70 m 1,0,-1
 583 770 l 1,1,-1
 661 770 l 1,2,-1
 114 -70 l 1,3,-1
 36 -70 l 1,0,-1
198 0 m 1,4,-1
 329 655 l 1,5,-1
 428 655 l 1,6,-1
 297 0 l 1,7,-1
 198 0 l 1,4,-1
628 549 m 1,8,9
 572 584 572 584 505.5 602 c 128,-1,10
 439 620 439 620 358 620 c 0,11,12
 285 620 285 620 216.5 602.5 c 128,-1,13
 148 585 148 585 93 551 c 1,14,-1
 65 630 l 1,15,16
 107 656 107 656 157.5 673 c 128,-1,17
 208 690 208 690 263 699 c 128,-1,18
 318 708 318 708 373 708 c 0,19,20
 460 708 460 708 536.5 688 c 128,-1,21
 613 668 613 668 673 628 c 1,22,-1
 628 549 l 1,8,9
EndSplineSet
EndChar

StartChar: uni01AC.ss01
Encoding: 65679 -1 505
Width: 618
GlyphClass: 2
Flags: W
AnchorPoint: "Anchor-3" 406 700 basechar 0
AnchorPoint: "Anchor-1" 337 341 basechar 0
AnchorPoint: "Anchor-0" 268 0 basechar 0
LayerCount: 2
Fore
SplineSet
75 397 m 1,0,1
 39 466 39 466 44.5 523 c 128,-1,2
 50 580 50 580 91.5 621.5 c 128,-1,3
 133 663 133 663 208.5 685.5 c 128,-1,4
 284 708 284 708 388 708 c 0,5,6
 475 708 475 708 555.5 686 c 128,-1,7
 636 664 636 664 693 625 c 1,8,-1
 648 556 l 1,9,10
 608 579 608 579 565 595 c 128,-1,11
 522 611 522 611 475.5 619 c 128,-1,12
 429 627 429 627 377 627 c 0,13,14
 269 627 269 627 205.5 604.5 c 128,-1,15
 142 582 142 582 126 537 c 128,-1,16
 110 492 110 492 144 424 c 1,17,-1
 75 397 l 1,0,1
219 0 m 1,18,-1
 351 659 l 1,19,-1
 450 659 l 1,20,-1
 319 0 l 1,21,-1
 219 0 l 1,18,-1
EndSplineSet
EndChar

StartChar: uni01AE.ss01
Encoding: 65681 -1 507
Width: 622
GlyphClass: 2
Flags: W
AnchorPoint: "Anchor-3" 398 700 basechar 0
AnchorPoint: "Anchor-0" 258 0 basechar 0
LayerCount: 2
Fore
SplineSet
426 -187 m 1,0,1
 388 -198 388 -198 351 -199 c 128,-1,2
 314 -200 314 -200 282 -190 c 128,-1,3
 250 -180 250 -180 227.5 -159 c 128,-1,4
 205 -138 205 -138 195.5 -106 c 128,-1,5
 186 -74 186 -74 195 -31 c 2,6,-1
 332 655 l 1,7,-1
 431 655 l 1,8,-1
 294 -27 l 2,9,10
 288 -56 288 -56 295.5 -76.5 c 128,-1,11
 303 -97 303 -97 320.5 -107 c 128,-1,12
 338 -117 338 -117 363.5 -117 c 128,-1,13
 389 -117 389 -117 420 -109 c 1,14,-1
 426 -187 l 1,0,1
633 549 m 1,15,16
 577 584 577 584 510 602 c 128,-1,17
 443 620 443 620 363 620 c 0,18,19
 290 620 290 620 221.5 602.5 c 128,-1,20
 153 585 153 585 98 551 c 1,21,-1
 70 630 l 1,22,23
 112 656 112 656 162.5 673 c 128,-1,24
 213 690 213 690 268 699 c 128,-1,25
 323 708 323 708 378 708 c 0,26,27
 465 708 465 708 541 688 c 128,-1,28
 617 668 617 668 678 628 c 1,29,-1
 633 549 l 1,15,16
EndSplineSet
EndChar

StartChar: uniA7B1.ss01
Encoding: 65682 -1 508
Width: 598
GlyphClass: 1
Flags: W
LayerCount: 2
Fore
SplineSet
534 157 m 1,0,-1
 561 78 l 1,1,2
 520 52 520 52 469 35 c 128,-1,3
 418 18 418 18 363.5 9 c 128,-1,4
 309 0 309 0 254 0 c 0,5,6
 166 0 166 0 90.5 20.5 c 128,-1,7
 15 41 15 41 -46 80 c 1,8,-1
 -1 159 l 1,9,10
 54 124 54 124 121 106 c 128,-1,11
 188 88 188 88 268 88 c 0,12,13
 341 88 341 88 410 105.5 c 128,-1,14
 479 123 479 123 534 157 c 1,0,-1
430 708 m 1,15,-1
 299 53 l 1,16,-1
 200 53 l 1,17,-1
 331 708 l 1,18,-1
 430 708 l 1,15,-1
EndSplineSet
EndChar

StartChar: U.ss01
Encoding: 65683 -1 509
Width: 784
GlyphClass: 2
Flags: W
AnchorPoint: "Anchor-4" 724 700 basechar 0
AnchorPoint: "Anchor-3" 470 700 basechar 0
AnchorPoint: "Anchor-2" 626 0 basechar 0
AnchorPoint: "Anchor-0" 330 0 basechar 0
LayerCount: 2
Fore
SplineSet
319 -8 m 0,0,1
 235 -8 235 -8 178 28.5 c 128,-1,2
 121 65 121 65 98.5 134 c 128,-1,3
 76 203 76 203 96 302 c 2,4,-1
 175 700 l 1,5,-1
 274 700 l 1,6,-1
 194 298 l 2,7,8
 172 190 172 190 212.5 135.5 c 128,-1,9
 253 81 253 81 346 81 c 0,10,11
 434 81 434 81 498.5 132 c 128,-1,12
 563 183 563 183 585 292 c 2,13,-1
 666 700 l 1,14,-1
 766 700 l 1,15,-1
 626 0 l 1,16,-1
 530 0 l 1,17,-1
 564 171 l 1,18,-1
 575 128 l 1,19,20
 533 62 533 62 468.5 27 c 128,-1,21
 404 -8 404 -8 319 -8 c 0,0,1
EndSplineSet
EndChar

StartChar: uni0244.ss01
Encoding: 65685 -1 511
Width: 795
GlyphClass: 2
Flags: W
AnchorPoint: "Anchor-4" 728 700 basechar 0
AnchorPoint: "Anchor-3" 474 700 basechar 0
AnchorPoint: "Anchor-2" 629 0 basechar 0
AnchorPoint: "Anchor-0" 334 0 basechar 0
LayerCount: 2
Fore
SplineSet
323 -8 m 0,0,1
 239 -8 239 -8 182 28.5 c 128,-1,2
 125 65 125 65 102 134 c 128,-1,3
 79 203 79 203 99 302 c 2,4,-1
 179 700 l 1,5,-1
 278 700 l 1,6,-1
 198 298 l 2,7,8
 176 190 176 190 216 135.5 c 128,-1,9
 256 81 256 81 350 81 c 0,10,11
 438 81 438 81 502 132 c 128,-1,12
 566 183 566 183 588 292 c 2,13,-1
 670 700 l 1,14,-1
 769 700 l 1,15,-1
 629 0 l 1,16,-1
 533 0 l 1,17,-1
 568 171 l 1,18,-1
 579 128 l 1,19,20
 537 62 537 62 472.5 27 c 128,-1,21
 408 -8 408 -8 323 -8 c 0,0,1
0 319 m 1,22,-1
 15 398 l 1,23,-1
 812 398 l 1,24,-1
 797 319 l 1,25,-1
 0 319 l 1,22,-1
EndSplineSet
EndChar

StartChar: W.ss01
Encoding: 65715 -1 541
Width: 1177
GlyphClass: 2
Flags: W
AnchorPoint: "Anchor-3" 679 700 basechar 0
AnchorPoint: "Anchor-0" 540 0 basechar 0
LayerCount: 2
Fore
SplineSet
324 -8 m 0,0,1
 236 -8 236 -8 177 25 c 128,-1,2
 118 58 118 58 94.5 122 c 128,-1,3
 71 186 71 186 90 277 c 2,4,-1
 180 700 l 1,5,-1
 281 700 l 1,6,-1
 188 268 l 2,7,8
 168 172 168 172 206 126.5 c 128,-1,9
 244 81 244 81 326 81 c 0,10,11
 406 81 406 81 461.5 129 c 128,-1,12
 517 177 517 177 540 283 c 2,13,-1
 630 700 l 1,14,-1
 728 700 l 1,15,-1
 636 268 l 2,16,17
 616 172 616 172 652.5 126.5 c 128,-1,18
 689 81 689 81 772 81 c 0,19,20
 860 81 860 81 913 128 c 128,-1,21
 966 175 966 175 988 277 c 2,22,-1
 1077 700 l 1,23,-1
 1177 700 l 1,24,-1
 1087 278 l 2,25,26
 1056 130 1056 130 977 61 c 128,-1,27
 898 -8 898 -8 757 -8 c 0,28,29
 672 -8 672 -8 617 26 c 128,-1,30
 562 60 562 60 545 126 c 1,31,-1
 579 126 l 1,32,33
 537 57 537 57 470 24.5 c 128,-1,34
 403 -8 403 -8 324 -8 c 0,0,1
EndSplineSet
EndChar

StartChar: uni2C72.ss01
Encoding: 65722 -1 548
Width: 1172
GlyphClass: 2
Flags: W
AnchorPoint: "Anchor-3" 676 700 basechar 0
AnchorPoint: "Anchor-0" 536 0 basechar 0
LayerCount: 2
Fore
SplineSet
324 -8 m 0,0,1
 256 -8 256 -8 205.5 11.5 c 128,-1,2
 155 31 155 31 124.5 68 c 128,-1,3
 94 105 94 105 85 158 c 128,-1,4
 76 211 76 211 90 277 c 2,5,-1
 180 700 l 1,6,-1
 281 700 l 1,7,-1
 188 268 l 2,8,9
 168 177 168 177 204 129 c 128,-1,10
 240 81 240 81 326 81 c 0,11,12
 410 81 410 81 464.5 131.5 c 128,-1,13
 519 182 519 182 540 283 c 2,14,-1
 630 700 l 1,15,-1
 728 700 l 1,16,-1
 636 268 l 2,17,18
 616 177 616 177 651 129 c 128,-1,19
 686 81 686 81 772 81 c 0,20,21
 862 81 862 81 914.5 129 c 128,-1,22
 967 177 967 177 988 277 c 2,23,-1
 1057 602 l 2,24,25
 1065 641 1065 641 1083.5 671 c 128,-1,26
 1102 701 1102 701 1128.5 721 c 128,-1,27
 1155 741 1155 741 1184.5 748 c 128,-1,28
 1214 755 1214 755 1246 749 c 128,-1,29
 1278 743 1278 743 1308 721 c 1,30,-1
 1267 650 l 1,31,32
 1244 665 1244 665 1220 661.5 c 128,-1,33
 1196 658 1196 658 1178 640 c 128,-1,34
 1160 622 1160 622 1153 592 c 2,35,-1
 1087 278 l 2,36,37
 1056 129 1056 129 976.5 60.5 c 128,-1,38
 897 -8 897 -8 757 -8 c 0,39,40
 671 -8 671 -8 616 26 c 128,-1,41
 561 60 561 60 545 126 c 1,42,-1
 579 126 l 1,43,44
 539 60 539 60 473 26 c 128,-1,45
 407 -8 407 -8 324 -8 c 0,0,1
EndSplineSet
EndChar

StartChar: Y.ss01
Encoding: 65723 -1 549
Width: 765
GlyphClass: 2
Flags: W
AnchorPoint: "Anchor-3" 467 700 basechar 0
AnchorPoint: "Anchor-2" 363 -100 basechar 0
AnchorPoint: "Anchor-0" 611 0 basechar 0
LayerCount: 2
Fore
SplineSet
665 700 m 1,0,-1
 764 700 l 1,1,-1
 664 198 l 2,2,3
 633 43 633 43 542.5 -31.5 c 128,-1,4
 452 -106 452 -106 314 -106 c 0,5,6
 222 -106 222 -106 155.5 -78.5 c 128,-1,7
 89 -51 89 -51 48 -2 c 1,8,-1
 100 75 l 1,9,10
 180 -16 180 -16 318 -16 c 0,11,12
 417 -16 417 -16 479.5 37 c 128,-1,13
 542 90 542 90 565 204 c 2,14,-1
 595 351 l 1,15,-1
 610 308 l 1,16,17
 568 243 568 243 503 208 c 128,-1,18
 438 173 438 173 353 173 c 0,19,20
 269 173 269 173 211 209 c 128,-1,21
 153 245 153 245 130 314.5 c 128,-1,22
 107 384 107 384 127 482 c 2,23,-1
 170 700 l 1,24,-1
 269 700 l 1,25,-1
 225 479 l 2,26,27
 203 371 203 371 245 316.5 c 128,-1,28
 287 262 287 262 381 262 c 0,29,30
 468 262 468 262 532.5 312.5 c 128,-1,31
 597 363 597 363 619 473 c 2,32,-1
 665 700 l 1,0,-1
EndSplineSet
EndChar

StartChar: uni01B3.ss01
Encoding: 65730 -1 556
Width: 804
GlyphClass: 2
Flags: W
AnchorPoint: "Anchor-3" 467 700 basechar 0
AnchorPoint: "Anchor-0" 599 0 basechar 0
LayerCount: 2
Fore
SplineSet
314 -106 m 0,0,1
 222 -106 222 -106 155.5 -78.5 c 128,-1,2
 89 -51 89 -51 48 -2 c 1,3,-1
 100 75 l 1,4,5
 180 -16 180 -16 318 -16 c 0,6,7
 417 -16 417 -16 479.5 37 c 128,-1,8
 542 90 542 90 565 204 c 2,9,-1
 595 351 l 1,10,-1
 610 308 l 1,11,12
 568 243 568 243 503 208 c 128,-1,13
 438 173 438 173 353 173 c 0,14,15
 269 173 269 173 211 209 c 128,-1,16
 153 245 153 245 130 314.5 c 128,-1,17
 107 384 107 384 127 482 c 2,18,-1
 170 700 l 1,19,-1
 269 700 l 1,20,-1
 225 479 l 2,21,22
 203 371 203 371 245 316.5 c 128,-1,23
 287 262 287 262 381 262 c 0,24,25
 468 262 468 262 533 312.5 c 128,-1,26
 598 363 598 363 619 473 c 2,27,-1
 642 586 l 2,28,29
 652 638 652 638 678 674.5 c 128,-1,30
 704 711 704 711 740 730 c 128,-1,31
 776 749 776 749 816.5 747.5 c 128,-1,32
 857 746 857 746 896 721 c 1,33,-1
 856 650 l 1,34,35
 830 665 830 665 806 659 c 128,-1,36
 782 653 782 653 764 630.5 c 128,-1,37
 746 608 746 608 738 572 c 2,38,-1
 664 198 l 2,39,40
 633 43 633 43 542.5 -31.5 c 128,-1,41
 452 -106 452 -106 314 -106 c 0,0,1
EndSplineSet
EndChar

StartChar: uni024E.ss01
Encoding: 65733 -1 559
Width: 766
GlyphClass: 2
Flags: W
AnchorPoint: "Anchor-3" 467 700 basechar 0
AnchorPoint: "Anchor-0" 611 0 basechar 0
LayerCount: 2
Fore
SplineSet
665 700 m 1,0,-1
 764 700 l 1,1,-1
 664 198 l 2,2,3
 633 43 633 43 542.5 -31.5 c 128,-1,4
 452 -106 452 -106 314 -106 c 0,5,6
 222 -106 222 -106 155.5 -78.5 c 128,-1,7
 89 -51 89 -51 48 -2 c 1,8,-1
 100 75 l 1,9,10
 180 -16 180 -16 318 -16 c 0,11,12
 417 -16 417 -16 479.5 37 c 128,-1,13
 542 90 542 90 565 204 c 2,14,-1
 595 351 l 1,15,-1
 610 308 l 1,16,17
 568 243 568 243 503 208 c 128,-1,18
 438 173 438 173 353 173 c 0,19,20
 269 173 269 173 211 209 c 128,-1,21
 153 245 153 245 130 314.5 c 128,-1,22
 107 384 107 384 127 482 c 2,23,-1
 170 700 l 1,24,-1
 269 700 l 1,25,-1
 225 479 l 2,26,27
 203 371 203 371 245 316.5 c 128,-1,28
 287 262 287 262 381 262 c 0,29,30
 468 262 468 262 532.5 312.5 c 128,-1,31
 597 363 597 363 619 473 c 2,32,-1
 665 700 l 1,0,-1
29 505 m 1,33,-1
 44 584 l 1,34,-1
 845 584 l 1,35,-1
 830 505 l 1,36,-1
 29 505 l 1,33,-1
EndSplineSet
EndChar

StartChar: Z.ss01
Encoding: 65735 -1 561
Width: 667
GlyphClass: 2
Flags: W
AnchorPoint: "Anchor-3" 427 700 basechar 0
AnchorPoint: "Anchor-0" 294 0 basechar 0
LayerCount: 2
Fore
SplineSet
-6 0 m 1,0,-1
 8 68 l 1,1,-1
 590 652 l 1,2,-1
 598 613 l 1,3,-1
 126 613 l 1,4,-1
 144 700 l 1,5,-1
 708 700 l 1,6,-1
 694 632 l 1,7,-1
 112 48 l 1,8,-1
 104 87 l 1,9,-1
 597 87 l 1,10,-1
 579 0 l 1,11,-1
 -6 0 l 1,0,-1
119 315 m 1,12,-1
 135 398 l 1,13,-1
 378 398 l 1,14,-1
 404 396 l 1,15,-1
 583 396 l 1,16,-1
 566 313 l 1,17,-1
 338 313 l 1,18,-1
 312 315 l 1,19,-1
 119 315 l 1,12,-1
EndSplineSet
EndChar

StartChar: uni01B2.loclTOD0.ss01
Encoding: 65746 -1 572
Width: 722
GlyphClass: 2
Flags: W
AnchorPoint: "Anchor-3" 443 700 basechar 0
AnchorPoint: "Anchor-0" 303 0 basechar 0
LayerCount: 2
Fore
SplineSet
352 0 m 1,0,-1
 279 51 l 1,1,-1
 702 719 l 2,2,3
 733 767 733 767 764.5 793 c 128,-1,4
 796 819 796 819 827 827.5 c 128,-1,5
 858 836 858 836 886.5 829.5 c 128,-1,6
 915 823 915 823 938 806 c 1,7,-1
 897 735 l 1,8,9
 872 752 872 752 843 741.5 c 128,-1,10
 814 731 814 731 783 683 c 2,11,-1
 352 0 l 1,0,-1
254 0 m 1,12,-1
 86 700 l 1,13,-1
 189 700 l 1,14,-1
 342 54 l 1,15,-1
 352 0 l 1,16,-1
 254 0 l 1,12,-1
EndSplineSet
EndChar

StartChar: T_h
Encoding: 65747 -1 573
Width: 1201
GlyphClass: 3
LigCaretCntFixed: 1
Flags: W
AnchorPoint: "Anchor-8" 388 700 baselig 0
AnchorPoint: "Anchor-6" 318 350 baselig 0
AnchorPoint: "Anchor-5" 248 0 baselig 0
AnchorPoint: "Anchor-8" 988 700 baselig 1
AnchorPoint: "Anchor-5" 848 0 baselig 1
AnchorPoint: "Anchor-6" 918 350 baselig 1
LayerCount: 2
Fore
SplineSet
191 0 m 1,0,-1
 313 613 l 1,1,-1
 74 613 l 1,2,-1
 91 700 l 1,3,-1
 722 700 l 1,4,-1
 704 613 l 1,5,-1
 413 613 l 1,6,-1
 290 0 l 1,7,-1
 191 0 l 1,0,-1
935 535 m 256,8,9
 1006 535 1006 535 1052.5 507 c 128,-1,10
 1099 479 1099 479 1118 425.5 c 128,-1,11
 1137 372 1137 372 1121 297 c 2,12,-1
 1062 0 l 1,13,-1
 966 0 l 1,14,-1
 1025 297 l 2,15,16
 1040 369 1040 369 1011 409 c 128,-1,17
 982 449 982 449 907 449 c 0,18,19
 830 449 830 449 779.5 407.5 c 128,-1,20
 729 366 729 366 711 280 c 2,21,-1
 655 0 l 1,22,-1
 559 0 l 1,23,-1
 699 700 l 1,24,-1
 795 700 l 1,25,-1
 731 378 l 1,26,-1
 709 419 l 1,27,28
 747 479 747 479 805.5 507 c 128,-1,29
 864 535 864 535 935 535 c 256,8,9
EndSplineSet
Ligature2: "'dlig' Discretionary Ligatures lookup 48 subtable" T h
LCarets2: 1 601
EndChar

StartChar: Iacute_J.loclNLD.ss01
Encoding: 65748 -1 574
Width: 720
GlyphClass: 2
LigCaretCntFixed: 1
Flags: W
LayerCount: 2
Fore
SplineSet
272 -106 m 0,0,1
 193 -106 193 -106 132 -85.5 c 128,-1,2
 71 -65 71 -65 28 -33 c 1,3,-1
 78 46 l 1,4,5
 119 16 119 16 169 -0.5 c 128,-1,6
 219 -17 219 -17 275 -17 c 0,7,8
 372 -17 372 -17 428.5 35.5 c 128,-1,9
 485 88 485 88 508 204 c 2,10,-1
 607 700 l 1,11,-1
 706 700 l 1,12,-1
 606 198 l 2,13,14
 575 44 575 44 492 -31 c 128,-1,15
 409 -106 409 -106 272 -106 c 0,0,1
86 209 m 1,16,-1
 185 700 l 1,17,-1
 285 700 l 1,18,-1
 186 209 l 1,19,-1
 86 209 l 1,16,-1
197 757 m 1,20,-1
 360 887 l 1,21,-1
 465 887 l 1,22,-1
 272 757 l 1,23,-1
 197 757 l 1,20,-1
621 757 m 1,24,-1
 784 887 l 1,25,-1
 888 887 l 1,26,-1
 695 757 l 1,27,-1
 621 757 l 1,24,-1
EndSplineSet
LCarets2: 1 360
EndChar

StartChar: uni026A
Encoding: 618 618 575
Width: 355
GlyphClass: 2
Flags: W
AnchorPoint: "Anchor-3" 230 530 basechar 0
AnchorPoint: "Anchor-2" 173 0 basechar 0
AnchorPoint: "Anchor-0" 125 0 basechar 0
LayerCount: 2
Fore
SplineSet
69 451 m 1,0,-1
 85 530 l 1,1,-1
 376 530 l 1,2,-1
 360 451 l 1,3,-1
 69 451 l 1,0,-1
-21 0 m 1,4,-1
 -5 79 l 1,5,-1
 286 79 l 1,6,-1
 270 0 l 1,7,-1
 -21 0 l 1,4,-1
77 0 m 1,8,-1
 182 530 l 1,9,-1
 278 530 l 1,10,-1
 173 0 l 1,11,-1
 77 0 l 1,8,-1
EndSplineSet
Substitution2: "'smcp' Lowercase to Small Capitals lookup 46 subtable" uni026A.sc
Substitution2: "'aalt' Access All Alternates lookup 0 subtable" uni026A.sc
EndChar

StartChar: uni1D7B
Encoding: 7547 7547 576
Width: 394
GlyphClass: 2
Flags: W
AnchorPoint: "Anchor-3" 247 530 basechar 0
AnchorPoint: "Anchor-2" 189 0 basechar 0
AnchorPoint: "Anchor-0" 141 0 basechar 0
LayerCount: 2
Fore
SplineSet
86 451 m 1,0,-1
 102 530 l 1,1,-1
 392 530 l 1,2,-1
 377 451 l 1,3,-1
 86 451 l 1,0,-1
-4 0 m 1,4,-1
 12 79 l 1,5,-1
 303 79 l 1,6,-1
 287 0 l 1,7,-1
 -4 0 l 1,4,-1
93 0 m 1,8,-1
 199 530 l 1,9,-1
 295 530 l 1,10,-1
 189 0 l 1,11,-1
 93 0 l 1,8,-1
45 237 m 1,12,-1
 59 305 l 1,13,-1
 347 305 l 1,14,-1
 333 237 l 1,15,-1
 45 237 l 1,12,-1
EndSplineSet
Substitution2: "'smcp' Lowercase to Small Capitals lookup 46 subtable" uni1D7B.sc
Substitution2: "'aalt' Access All Alternates lookup 0 subtable" uni1D7B.sc
EndChar

StartChar: uni0274
Encoding: 628 628 577
Width: 662
GlyphClass: 2
Flags: W
AnchorPoint: "Anchor-3" 384 530 basechar 0
AnchorPoint: "Anchor-0" 278 0 basechar 0
LayerCount: 2
Fore
SplineSet
27 0 m 1,0,-1
 133 530 l 1,1,-1
 213 530 l 1,2,-1
 487 116 l 1,3,-1
 456 119 l 1,4,-1
 538 530 l 1,5,-1
 634 530 l 1,6,-1
 528 0 l 1,7,-1
 449 0 l 1,8,-1
 174 414 l 1,9,-1
 205 411 l 1,10,-1
 123 0 l 1,11,-1
 27 0 l 1,0,-1
EndSplineSet
Substitution2: "'smcp' Lowercase to Small Capitals lookup 46 subtable" uni0274.sc
Substitution2: "'aalt' Access All Alternates lookup 0 subtable" uni0274.sc
EndChar

StartChar: uni0280
Encoding: 640 640 578
Width: 596
GlyphClass: 2
Flags: W
AnchorPoint: "Anchor-3" 356 530 basechar 0
AnchorPoint: "Anchor-0" 250 0 basechar 0
LayerCount: 2
Fore
SplineSet
27 0 m 1,0,-1
 133 530 l 1,1,-1
 352 530 l 2,2,3
 454 530 454 530 511.5 487.5 c 128,-1,4
 569 445 569 445 569 367 c 0,5,6
 569 301 569 301 536.5 254 c 128,-1,7
 504 207 504 207 443.5 181.5 c 128,-1,8
 383 156 383 156 300 156 c 2,9,-1
 113 156 l 1,10,-1
 164 199 l 1,11,-1
 125 0 l 1,12,-1
 27 0 l 1,0,-1
406 0 m 1,13,-1
 286 192 l 1,14,-1
 389 192 l 1,15,-1
 509 0 l 1,16,-1
 406 0 l 1,13,-1
162 189 m 1,17,-1
 128 235 l 1,18,-1
 304 235 l 2,19,20
 383 235 383 235 427 266.5 c 128,-1,21
 471 298 471 298 471 358 c 0,22,23
 471 405 471 405 437 427 c 128,-1,24
 403 449 403 449 342 449 c 2,25,-1
 173 449 l 1,26,-1
 224 497 l 1,27,-1
 162 189 l 1,17,-1
EndSplineSet
Substitution2: "'smcp' Lowercase to Small Capitals lookup 46 subtable" uni0280.sc
Substitution2: "'aalt' Access All Alternates lookup 0 subtable" uni0280.sc
EndChar

StartChar: a
Encoding: 97 97 580
Width: 682
GlyphClass: 2
Flags: W
AnchorPoint: "Anchor-3" 387 530 basechar 0
AnchorPoint: "Anchor-2" 538 0 basechar 0
AnchorPoint: "Anchor-0" 283 0 basechar 0
LayerCount: 2
Fore
SplineSet
272 -6 m 0,0,1
 205 -6 205 -6 152 21.5 c 128,-1,2
 99 49 99 49 68.5 100 c 128,-1,3
 38 151 38 151 38 223 c 0,4,5
 38 291 38 291 60.5 348 c 128,-1,6
 83 405 83 405 123.5 447 c 128,-1,7
 164 489 164 489 219 512 c 128,-1,8
 274 535 274 535 338 535 c 0,9,10
 407 535 407 535 455 511 c 128,-1,11
 503 487 503 487 529 440.5 c 128,-1,12
 555 394 555 394 555 327 c 0,13,14
 555 229 555 229 521 153.5 c 128,-1,15
 487 78 487 78 423.5 36 c 128,-1,16
 360 -6 360 -6 272 -6 c 0,0,1
293 78 m 0,17,18
 353 78 353 78 400 107 c 128,-1,19
 447 136 447 136 473.5 186.5 c 128,-1,20
 500 237 500 237 500 302 c 0,21,22
 500 372 500 372 459 411.5 c 128,-1,23
 418 451 418 451 342 451 c 0,24,25
 283 451 283 451 236 422.5 c 128,-1,26
 189 394 189 394 162 343.5 c 128,-1,27
 135 293 135 293 135 227 c 0,28,29
 135 158 135 158 176 118 c 128,-1,30
 217 78 217 78 293 78 c 0,17,18
446 0 m 1,31,-1
 474 137 l 1,32,-1
 506 260 l 1,33,-1
 519 386 l 1,34,-1
 547 530 l 1,35,-1
 643 530 l 1,36,-1
 538 0 l 1,37,-1
 446 0 l 1,31,-1
EndSplineSet
Substitution2: "'ss01' Style Set 1 lookup 50 subtable" a.ss01
Substitution2: "'smcp' Lowercase to Small Capitals lookup 46 subtable" a.sc
Substitution2: "Single Substitution lookup 39 subtable" ordfeminine
AlternateSubs2: "'aalt' Access All Alternates lookup 1 subtable" ordfeminine a.sc a.ss01
EndChar

StartChar: uni2C65
Encoding: 11365 11365 611
Width: 682
GlyphClass: 2
Flags: W
AnchorPoint: "Anchor-3" 387 530 basechar 0
AnchorPoint: "Anchor-2" 538 0 basechar 0
AnchorPoint: "Anchor-0" 283 0 basechar 0
LayerCount: 2
Fore
SplineSet
272 -6 m 0,0,1
 205 -6 205 -6 152 21.5 c 128,-1,2
 99 49 99 49 68.5 100 c 128,-1,3
 38 151 38 151 38 223 c 0,4,5
 38 291 38 291 60.5 348 c 128,-1,6
 83 405 83 405 123.5 447 c 128,-1,7
 164 489 164 489 219 512 c 128,-1,8
 274 535 274 535 338 535 c 0,9,10
 407 535 407 535 455 511 c 128,-1,11
 503 487 503 487 529 440.5 c 128,-1,12
 555 394 555 394 555 327 c 0,13,14
 555 229 555 229 521 153.5 c 128,-1,15
 487 78 487 78 423.5 36 c 128,-1,16
 360 -6 360 -6 272 -6 c 0,0,1
293 78 m 0,17,18
 353 78 353 78 400 107 c 128,-1,19
 447 136 447 136 473.5 186.5 c 128,-1,20
 500 237 500 237 500 302 c 0,21,22
 500 372 500 372 459 411.5 c 128,-1,23
 418 451 418 451 342 451 c 0,24,25
 283 451 283 451 236 422.5 c 128,-1,26
 189 394 189 394 162 343.5 c 128,-1,27
 135 293 135 293 135 227 c 0,28,29
 135 158 135 158 176 118 c 128,-1,30
 217 78 217 78 293 78 c 0,17,18
446 0 m 1,31,-1
 474 137 l 1,32,-1
 506 260 l 1,33,-1
 519 386 l 1,34,-1
 547 530 l 1,35,-1
 643 530 l 1,36,-1
 538 0 l 1,37,-1
 446 0 l 1,31,-1
70 -80 m 1,38,-1
 492 609 l 1,39,-1
 557 609 l 1,40,-1
 135 -80 l 1,41,-1
 70 -80 l 1,38,-1
EndSplineSet
Substitution2: "'ss01' Style Set 1 lookup 50 subtable" uni2C65.ss01
Substitution2: "'smcp' Lowercase to Small Capitals lookup 46 subtable" uni2C65.sc
AlternateSubs2: "'aalt' Access All Alternates lookup 1 subtable" uni2C65.sc uni2C65.ss01
EndChar

StartChar: uni0250
Encoding: 592 592 613
Width: 595
GlyphClass: 2
Flags: W
AnchorPoint: "Anchor-3" 323 530 basechar 0
AnchorPoint: "Anchor-0" 217 0 basechar 0
LayerCount: 2
Fore
SplineSet
236 530 m 1,0,-1
 213 418 l 1,1,-1
 213 396 l 1,2,-1
 175 205 l 2,3,4
 163 144 163 144 193.5 111 c 128,-1,5
 224 78 224 78 294 78 c 0,6,7
 340 78 340 78 387.5 93 c 128,-1,8
 435 108 435 108 471 134 c 1,9,-1
 498 63 l 1,10,11
 450 29 450 29 394 11.5 c 128,-1,12
 338 -6 338 -6 276 -6 c 0,13,14
 161 -6 161 -6 110 49.5 c 128,-1,15
 59 105 59 105 80 210 c 2,16,-1
 144 530 l 1,17,-1
 236 530 l 1,0,-1
396 535 m 0,18,19
 458 535 458 535 500.5 513 c 128,-1,20
 543 491 543 491 563 452.5 c 128,-1,21
 583 414 583 414 575 363 c 0,22,23
 564 296 564 296 505.5 260 c 128,-1,24
 447 224 447 224 340 224 c 2,25,-1
 164 224 l 1,26,-1
 177 294 l 1,27,-1
 349 294 l 2,28,29
 410 294 410 294 442 312.5 c 128,-1,30
 474 331 474 331 479 369 c 0,31,32
 485 410 485 410 455.5 435.5 c 128,-1,33
 426 461 426 461 369 461 c 0,34,35
 316 461 316 461 275.5 437 c 128,-1,36
 235 413 235 413 208 367 c 1,37,-1
 202 434 l 1,38,39
 230 482 230 482 280 508.5 c 128,-1,40
 330 535 330 535 396 535 c 0,18,19
EndSplineSet
Substitution2: "'smcp' Lowercase to Small Capitals lookup 46 subtable" uni0250.sc
Substitution2: "'aalt' Access All Alternates lookup 0 subtable" uni0250.sc
EndChar

StartChar: ae
Encoding: 230 230 614
Width: 989
GlyphClass: 2
Flags: W
AnchorPoint: "Anchor-3" 513 529 basechar 0
AnchorPoint: "Anchor-2" 722 0 basechar 0
LayerCount: 2
Fore
SplineSet
225 -6 m 0,0,1
 162 -6 162 -6 118 12 c 128,-1,2
 74 30 74 30 50.5 63 c 128,-1,3
 27 96 27 96 27 140 c 0,4,5
 27 214 27 214 84.5 259.5 c 128,-1,6
 142 305 142 305 257 305 c 2,7,-1
 430 305 l 1,8,-1
 420 236 l 1,9,-1
 249 236 l 2,10,11
 188 236 188 236 155 212 c 128,-1,12
 122 188 122 188 122 146 c 0,13,14
 122 109 122 109 149.5 88.5 c 128,-1,15
 177 68 177 68 234 68 c 0,16,17
 275 68 275 68 309 82.5 c 128,-1,18
 343 97 343 97 367 126.5 c 128,-1,19
 391 156 391 156 401 201 c 2,20,-1
 425 321 l 2,21,22
 438 384 438 384 408 417.5 c 128,-1,23
 378 451 378 451 305 451 c 0,24,25
 257 451 257 451 210.5 436 c 128,-1,26
 164 421 164 421 131 396 c 1,27,-1
 102 472 l 1,28,29
 131 493 131 493 167.5 507 c 128,-1,30
 204 521 204 521 243 528 c 128,-1,31
 282 535 282 535 320 535 c 0,32,33
 413 535 413 535 462.5 497.5 c 128,-1,34
 512 460 512 460 516 391 c 1,35,-1
 467 397 l 1,36,37
 492 441 492 441 530.5 472 c 128,-1,38
 569 503 569 503 616 519 c 128,-1,39
 663 535 663 535 712 535 c 0,40,41
 784 535 784 535 838 507.5 c 128,-1,42
 892 480 892 480 922 429 c 128,-1,43
 952 378 952 378 952 306 c 0,44,45
 952 288 952 288 950 270 c 128,-1,46
 948 252 948 252 945 236 c 1,47,-1
 483 236 l 1,48,-1
 495 305 l 1,49,-1
 898 305 l 1,50,-1
 857 281 l 1,51,52
 866 337 866 337 849 375.5 c 128,-1,53
 832 414 832 414 795.5 434.5 c 128,-1,54
 759 455 759 455 708 455 c 0,55,56
 650 455 650 455 604 426.5 c 128,-1,57
 558 398 558 398 532.5 347.5 c 128,-1,58
 507 297 507 297 507 229 c 0,59,60
 507 152 507 152 549 115 c 128,-1,61
 591 78 591 78 675 78 c 0,62,63
 728 78 728 78 768.5 94 c 128,-1,64
 809 110 809 110 839 139 c 1,65,-1
 881 70 l 1,66,67
 841 33 841 33 784 13.5 c 128,-1,68
 727 -6 727 -6 666 -6 c 0,69,70
 606 -6 606 -6 555 13.5 c 128,-1,71
 504 33 504 33 470 73 c 128,-1,72
 436 113 436 113 424 175 c 1,73,-1
 479 173 l 1,74,75
 460 106 460 106 420.5 67 c 128,-1,76
 381 28 381 28 331 11 c 128,-1,77
 281 -6 281 -6 225 -6 c 0,0,1
EndSplineSet
Substitution2: "'ss01' Style Set 1 lookup 50 subtable" ae.ss01
Substitution2: "'smcp' Lowercase to Small Capitals lookup 46 subtable" ae.sc
AlternateSubs2: "'aalt' Access All Alternates lookup 1 subtable" ae.sc ae.ss01
EndChar

StartChar: b
Encoding: 98 98 617
Width: 682
GlyphClass: 2
Flags: W
AnchorPoint: "Anchor-3" 429 530 basechar 0
AnchorPoint: "Anchor-0" 298 0 basechar 0
LayerCount: 2
Fore
SplineSet
39 0 m 1,0,-1
 187 742 l 1,1,-1
 283 742 l 1,2,-1
 212 391 l 1,3,-1
 177 270 l 1,4,-1
 162 156 l 1,5,-1
 130 0 l 1,6,-1
 39 0 l 1,0,-1
344 -6 m 0,7,8
 276 -6 276 -6 227.5 18.5 c 128,-1,9
 179 43 179 43 153 89.5 c 128,-1,10
 127 136 127 136 127 202 c 0,11,12
 127 276 127 276 146 337.5 c 128,-1,13
 165 399 165 399 202.5 443 c 128,-1,14
 240 487 240 487 292 511 c 128,-1,15
 344 535 344 535 410 535 c 0,16,17
 478 535 478 535 530.5 508 c 128,-1,18
 583 481 583 481 613.5 429.5 c 128,-1,19
 644 378 644 378 644 307 c 0,20,21
 644 239 644 239 621.5 182 c 128,-1,22
 599 125 599 125 558.5 83 c 128,-1,23
 518 41 518 41 463 17.5 c 128,-1,24
 408 -6 408 -6 344 -6 c 0,7,8
340 78 m 0,25,26
 400 78 400 78 446.5 107 c 128,-1,27
 493 136 493 136 520 186.5 c 128,-1,28
 547 237 547 237 547 302 c 0,29,30
 547 372 547 372 506 411.5 c 128,-1,31
 465 451 465 451 389 451 c 0,32,33
 330 451 330 451 282.5 422.5 c 128,-1,34
 235 394 235 394 208.5 343.5 c 128,-1,35
 182 293 182 293 182 227 c 0,36,37
 182 158 182 158 223 118 c 128,-1,38
 264 78 264 78 340 78 c 0,25,26
EndSplineSet
Substitution2: "'smcp' Lowercase to Small Capitals lookup 46 subtable" b.sc
Substitution2: "'aalt' Access All Alternates lookup 0 subtable" b.sc
EndChar

StartChar: uniA7B5
Encoding: 42933 42933 620
Width: 682
GlyphClass: 1
Flags: W
LayerCount: 2
Fore
SplineSet
0 -194 m 1,0,-1
 143 522 l 2,1,2
 164 631 164 631 235 690.5 c 128,-1,3
 306 750 306 750 413 750 c 0,4,5
 471 750 471 750 516 733.5 c 128,-1,6
 561 717 561 717 591 687 c 128,-1,7
 621 657 621 657 633 617.5 c 128,-1,8
 645 578 645 578 635 531 c 0,9,10
 624 479 624 479 589.5 438 c 128,-1,11
 555 397 555 397 507 376 c 128,-1,12
 459 355 459 355 406 359 c 1,13,-1
 444 395 l 1,14,15
 510 390 510 390 555 360.5 c 128,-1,16
 600 331 600 331 618.5 283 c 128,-1,17
 637 235 637 235 625 175 c 0,18,19
 608 90 608 90 540 41.5 c 128,-1,20
 472 -7 472 -7 371 -7 c 0,21,22
 294 -7 294 -7 226 20.5 c 128,-1,23
 158 48 158 48 117 96 c 1,24,-1
 164 166 l 1,25,26
 187 140 187 140 220 120 c 128,-1,27
 253 100 253 100 292 88.5 c 128,-1,28
 331 77 331 77 370 77 c 0,29,30
 435 77 435 77 477 107.5 c 128,-1,31
 519 138 519 138 529 191 c 0,32,33
 538 234 538 234 521 266.5 c 128,-1,34
 504 299 504 299 466 317 c 128,-1,35
 428 335 428 335 373 335 c 2,36,-1
 338 335 l 1,37,-1
 354 418 l 1,38,-1
 388 418 l 2,39,40
 426 418 426 418 458.5 432.5 c 128,-1,41
 491 447 491 447 513 474 c 128,-1,42
 535 501 535 501 541 536 c 0,43,44
 549 575 549 575 534.5 605 c 128,-1,45
 520 635 520 635 487 652 c 128,-1,46
 454 669 454 669 407 669 c 0,47,48
 338 669 338 669 296 631.5 c 128,-1,49
 254 594 254 594 239 522 c 2,50,-1
 96 -194 l 1,51,-1
 0 -194 l 1,0,-1
EndSplineSet
Substitution2: "'smcp' Lowercase to Small Capitals lookup 46 subtable" uniA7B5.sc
Substitution2: "'aalt' Access All Alternates lookup 0 subtable" uniA7B5.sc
EndChar

StartChar: uni0253
Encoding: 595 595 621
Width: 684
GlyphClass: 1
Flags: W
LayerCount: 2
Fore
SplineSet
41 0 m 1,0,-1
 156 577 l 2,1,2
 168 633 168 633 194.5 670.5 c 128,-1,3
 221 708 221 708 263.5 728 c 128,-1,4
 306 748 306 748 360 748 c 0,5,6
 405 748 405 748 443 735.5 c 128,-1,7
 481 723 481 723 508 699 c 1,8,-1
 465 626 l 1,9,10
 444 646 444 646 415.5 657 c 128,-1,11
 387 668 387 668 355 668 c 0,12,13
 314 668 314 668 287 644 c 128,-1,14
 260 620 260 620 252 576 c 2,15,-1
 214 389 l 1,16,-1
 179 266 l 1,17,-1
 161 143 l 1,18,-1
 132 0 l 1,19,-1
 41 0 l 1,0,-1
346 -6 m 0,20,21
 243 -6 243 -6 186 49 c 128,-1,22
 129 104 129 104 129 202 c 0,23,24
 129 303 129 303 163.5 377.5 c 128,-1,25
 198 452 198 452 262 493.5 c 128,-1,26
 326 535 326 535 412 535 c 0,27,28
 482 535 482 535 535 506.5 c 128,-1,29
 588 478 588 478 617 427 c 128,-1,30
 646 376 646 376 646 307 c 0,31,32
 646 240 646 240 623.5 183 c 128,-1,33
 601 126 601 126 561 83.5 c 128,-1,34
 521 41 521 41 466 17.5 c 128,-1,35
 411 -6 411 -6 346 -6 c 0,20,21
342 78 m 0,36,37
 402 78 402 78 448.5 107 c 128,-1,38
 495 136 495 136 522 187 c 128,-1,39
 549 238 549 238 549 302 c 0,40,41
 549 373 549 373 507.5 412 c 128,-1,42
 466 451 466 451 391 451 c 0,43,44
 331 451 331 451 284.5 422.5 c 128,-1,45
 238 394 238 394 211 343.5 c 128,-1,46
 184 293 184 293 184 227 c 0,47,48
 184 157 184 157 225.5 117.5 c 128,-1,49
 267 78 267 78 342 78 c 0,36,37
EndSplineSet
Substitution2: "'smcp' Lowercase to Small Capitals lookup 46 subtable" uni0253.sc
Substitution2: "'aalt' Access All Alternates lookup 0 subtable" uni0253.sc
EndChar

StartChar: uni0298
Encoding: 664 664 622
Width: 840
GlyphClass: 2
Flags: W
AnchorPoint: "Anchor-4" 725 700 basechar 0
AnchorPoint: "Anchor-3" 434 368 basechar 0
AnchorPoint: "Anchor-2" 445 0 basechar 0
AnchorPoint: "Anchor-1" 437 350 basechar 0
AnchorPoint: "Anchor-0" 367 0 basechar 0
LayerCount: 2
Fore
SplineSet
389 -8 m 0,0,1
 285 -8 285 -8 211 29 c 128,-1,2
 137 66 137 66 98.5 132.5 c 128,-1,3
 60 199 60 199 60 287 c 0,4,5
 60 374 60 374 90 450.5 c 128,-1,6
 120 527 120 527 176 585 c 128,-1,7
 232 643 232 643 310 675.5 c 128,-1,8
 388 708 388 708 485 708 c 0,9,10
 590 708 590 708 664 671 c 128,-1,11
 738 634 738 634 776.5 567.5 c 128,-1,12
 815 501 815 501 815 413 c 0,13,14
 815 326 815 326 785 249.5 c 128,-1,15
 755 173 755 173 699 115 c 128,-1,16
 643 57 643 57 564.5 24.5 c 128,-1,17
 486 -8 486 -8 389 -8 c 0,0,1
398 81 m 0,18,19
 470 81 470 81 529 106.5 c 128,-1,20
 588 132 588 132 629 177.5 c 128,-1,21
 670 223 670 223 692 282 c 128,-1,22
 714 341 714 341 714 407 c 0,23,24
 714 470 714 470 687 517.5 c 128,-1,25
 660 565 660 565 607 592 c 128,-1,26
 554 619 554 619 477 619 c 0,27,28
 404 619 404 619 345.5 593.5 c 128,-1,29
 287 568 287 568 245.5 522.5 c 128,-1,30
 204 477 204 477 182 418 c 128,-1,31
 160 359 160 359 160 293 c 0,32,33
 160 230 160 230 187.5 182.5 c 128,-1,34
 215 135 215 135 267.5 108 c 128,-1,35
 320 81 320 81 398 81 c 0,18,19
427 281 m 0,36,37
 400 281 400 281 382 297.5 c 128,-1,38
 364 314 364 314 364 340 c 0,39,40
 364 373 364 373 385 394.5 c 128,-1,41
 406 416 406 416 436 416 c 0,42,43
 464 416 464 416 481 398.5 c 128,-1,44
 498 381 498 381 498 355 c 0,45,46
 498 322 498 322 477.5 301.5 c 128,-1,47
 457 281 457 281 427 281 c 0,36,37
EndSplineSet
Substitution2: "'smcp' Lowercase to Small Capitals lookup 46 subtable" uni0298.sc
Substitution2: "'aalt' Access All Alternates lookup 0 subtable" uni0298.sc
EndChar

StartChar: uni0180
Encoding: 384 384 624
Width: 690
GlyphClass: 2
Flags: W
AnchorPoint: "Anchor-3" 409 530 basechar 0
AnchorPoint: "Anchor-1" 349 265 basechar 0
AnchorPoint: "Anchor-0" 296 0 basechar 0
LayerCount: 2
Fore
SplineSet
47 0 m 1,0,-1
 195 742 l 1,1,-1
 291 742 l 1,2,-1
 221 391 l 1,3,-1
 185 270 l 1,4,-1
 170 156 l 1,5,-1
 139 0 l 1,6,-1
 47 0 l 1,0,-1
352 -6 m 0,7,8
 284 -6 284 -6 235.5 18.5 c 128,-1,9
 187 43 187 43 161 89.5 c 128,-1,10
 135 136 135 136 135 202 c 0,11,12
 135 276 135 276 154 337.5 c 128,-1,13
 173 399 173 399 210.5 443 c 128,-1,14
 248 487 248 487 300 511 c 128,-1,15
 352 535 352 535 418 535 c 0,16,17
 486 535 486 535 538.5 508 c 128,-1,18
 591 481 591 481 621.5 429.5 c 128,-1,19
 652 378 652 378 652 307 c 0,20,21
 652 239 652 239 629.5 182 c 128,-1,22
 607 125 607 125 566.5 83 c 128,-1,23
 526 41 526 41 471.5 17.5 c 128,-1,24
 417 -6 417 -6 352 -6 c 0,7,8
348 78 m 0,25,26
 408 78 408 78 454.5 107 c 128,-1,27
 501 136 501 136 528 186.5 c 128,-1,28
 555 237 555 237 555 302 c 0,29,30
 555 372 555 372 514 411.5 c 128,-1,31
 473 451 473 451 397 451 c 0,32,33
 338 451 338 451 291 422.5 c 128,-1,34
 244 394 244 394 217 343.5 c 128,-1,35
 190 293 190 293 190 227 c 0,36,37
 190 158 190 158 231 118 c 128,-1,38
 272 78 272 78 348 78 c 0,25,26
71 601 m 1,39,-1
 84 669 l 1,40,-1
 450 669 l 1,41,-1
 437 601 l 1,42,-1
 71 601 l 1,39,-1
EndSplineSet
Substitution2: "'smcp' Lowercase to Small Capitals lookup 46 subtable" uni0180.sc
Substitution2: "'aalt' Access All Alternates lookup 0 subtable" uni0180.sc
EndChar

StartChar: uni0183
Encoding: 387 387 625
Width: 688
GlyphClass: 1
Flags: W
LayerCount: 2
Fore
SplineSet
40 0 m 1,0,-1
 188 742 l 1,1,-1
 284 742 l 1,2,-1
 213 390 l 1,3,-1
 179 268 l 1,4,-1
 163 156 l 1,5,-1
 131 0 l 1,6,-1
 40 0 l 1,0,-1
342 -6 m 0,7,8
 275 -6 275 -6 225.5 19.5 c 128,-1,9
 176 45 176 45 151 93.5 c 128,-1,10
 126 142 126 142 128 211 c 0,11,12
 130 283 130 283 150.5 343 c 128,-1,13
 171 403 171 403 208.5 446 c 128,-1,14
 246 489 246 489 297.5 512 c 128,-1,15
 349 535 349 535 413 535 c 0,16,17
 482 535 482 535 535 506.5 c 128,-1,18
 588 478 588 478 617.5 425 c 128,-1,19
 647 372 647 372 644 299 c 0,20,21
 643 232 643 232 619.5 176.5 c 128,-1,22
 596 121 596 121 555 80 c 128,-1,23
 514 39 514 39 459.5 16.5 c 128,-1,24
 405 -6 405 -6 342 -6 c 0,7,8
339 78 m 0,25,26
 397 78 397 78 443 106 c 128,-1,27
 489 134 489 134 517 182.5 c 128,-1,28
 545 231 545 231 547 294 c 0,29,30
 550 343 550 343 532 378 c 128,-1,31
 514 413 514 413 478.5 432 c 128,-1,32
 443 451 443 451 392 451 c 0,33,34
 335 451 335 451 288.5 423.5 c 128,-1,35
 242 396 242 396 214 347.5 c 128,-1,36
 186 299 186 299 183 235 c 0,37,38
 181 187 181 187 199 152 c 128,-1,39
 217 117 217 117 252.5 97.5 c 128,-1,40
 288 78 288 78 339 78 c 0,25,26
220 663 m 1,41,-1
 188 742 l 1,42,-1
 615 742 l 1,43,-1
 600 663 l 1,44,-1
 220 663 l 1,41,-1
EndSplineSet
Substitution2: "'smcp' Lowercase to Small Capitals lookup 46 subtable" uni0183.sc
Substitution2: "'aalt' Access All Alternates lookup 0 subtable" uni0183.sc
EndChar

StartChar: c
Encoding: 99 99 626
Width: 571
GlyphClass: 2
Flags: W
AnchorPoint: "Anchor-3" 355 530 basechar 0
AnchorPoint: "Anchor-0" 277 0 basechar 0
LayerCount: 2
Fore
SplineSet
290 -6 m 0,0,1
 213 -6 213 -6 156.5 22.5 c 128,-1,2
 100 51 100 51 69 102.5 c 128,-1,3
 38 154 38 154 38 223 c 0,4,5
 38 313 38 313 78 383.5 c 128,-1,6
 118 454 118 454 189 494.5 c 128,-1,7
 260 535 260 535 350 535 c 0,8,9
 427 535 427 535 482 506.5 c 128,-1,10
 537 478 537 478 568 420 c 1,11,-1
 487 375 l 1,12,13
 467 414 467 414 430.5 432.5 c 128,-1,14
 394 451 394 451 343 451 c 0,15,16
 283 451 283 451 236 422.5 c 128,-1,17
 189 394 189 394 162 343.5 c 128,-1,18
 135 293 135 293 135 227 c 0,19,20
 135 158 135 158 176.5 118 c 128,-1,21
 218 78 218 78 294 78 c 0,22,23
 341 78 341 78 382.5 97 c 128,-1,24
 424 116 424 116 452 153 c 1,25,-1
 522 103 l 1,26,27
 486 52 486 52 424 23 c 128,-1,28
 362 -6 362 -6 290 -6 c 0,0,1
EndSplineSet
Substitution2: "'smcp' Lowercase to Small Capitals lookup 46 subtable" c.sc
Substitution2: "'aalt' Access All Alternates lookup 0 subtable" c.sc
EndChar

StartChar: uniA793
Encoding: 42899 42899 628
Width: 629
GlyphClass: 2
Flags: W
AnchorPoint: "Anchor-3" 413 530 basechar 0
AnchorPoint: "Anchor-0" 335 0 basechar 0
LayerCount: 2
Fore
SplineSet
348 -6 m 0,0,1
 271 -6 271 -6 214.5 22.5 c 128,-1,2
 158 51 158 51 127 102.5 c 128,-1,3
 96 154 96 154 96 223 c 0,4,5
 96 313 96 313 136 383.5 c 128,-1,6
 176 454 176 454 247 494.5 c 128,-1,7
 318 535 318 535 408 535 c 0,8,9
 485 535 485 535 540 506.5 c 128,-1,10
 595 478 595 478 626 420 c 1,11,-1
 545 375 l 1,12,13
 525 414 525 414 488.5 432.5 c 128,-1,14
 452 451 452 451 401 451 c 0,15,16
 341 451 341 451 294 422.5 c 128,-1,17
 247 394 247 394 220 343.5 c 128,-1,18
 193 293 193 293 193 227 c 0,19,20
 193 158 193 158 234.5 118 c 128,-1,21
 276 78 276 78 352 78 c 0,22,23
 399 78 399 78 440.5 97 c 128,-1,24
 482 116 482 116 510 153 c 1,25,-1
 580 103 l 1,26,27
 544 52 544 52 482 23 c 128,-1,28
 420 -6 420 -6 348 -6 c 0,0,1
-2 237 m 1,29,-1
 13 305 l 1,30,-1
 360 305 l 1,31,-1
 346 237 l 1,32,-1
 -2 237 l 1,29,-1
EndSplineSet
Substitution2: "'smcp' Lowercase to Small Capitals lookup 46 subtable" uniA793.sc
Substitution2: "'aalt' Access All Alternates lookup 0 subtable" uniA793.sc
EndChar

StartChar: uniAB53
Encoding: 43859 43859 634
Width: 550
GlyphClass: 1
Flags: W
LayerCount: 2
Fore
SplineSet
559 -142 m 1,0,1
 536 -174 536 -174 501.5 -189 c 128,-1,2
 467 -204 467 -204 432 -201.5 c 128,-1,3
 397 -199 397 -199 369 -179.5 c 128,-1,4
 341 -160 341 -160 330 -124 c 2,5,-1
 252 129 l 1,6,-1
 232 169 l 1,7,-1
 150 418 l 2,8,9
 142 444 142 444 125.5 452.5 c 128,-1,10
 109 461 109 461 88 454.5 c 128,-1,11
 67 448 67 448 47 427 c 1,12,-1
 2 476 l 1,13,14
 26 508 26 508 59.5 523 c 128,-1,15
 93 538 93 538 126.5 535.5 c 128,-1,16
 160 533 160 533 187 514 c 128,-1,17
 214 495 214 495 226 458 c 2,18,-1
 295 242 l 1,19,-1
 314 205 l 1,20,-1
 407 -84 l 2,21,22
 415 -109 415 -109 433 -118 c 128,-1,23
 451 -127 451 -127 473 -120 c 128,-1,24
 495 -113 495 -113 515 -92 c 1,25,-1
 559 -142 l 1,0,1
-65 -194 m 1,26,-1
 252 217 l 1,27,-1
 263 219 l 1,28,-1
 499 530 l 1,29,-1
 603 530 l 1,30,-1
 305 154 l 1,31,-1
 293 148 l 1,32,-1
 37 -194 l 1,33,-1
 -65 -194 l 1,26,-1
EndSplineSet
Substitution2: "'smcp' Lowercase to Small Capitals lookup 46 subtable" uniAB53.sc
Substitution2: "'aalt' Access All Alternates lookup 0 subtable" uniAB53.sc
EndChar

StartChar: uni0188
Encoding: 392 392 635
Width: 575
GlyphClass: 2
Flags: W
AnchorPoint: "Anchor-3" 355 530 basechar 0
AnchorPoint: "Anchor-0" 246 0 basechar 0
LayerCount: 2
Fore
SplineSet
290 -6 m 0,0,1
 213 -6 213 -6 156.5 22.5 c 128,-1,2
 100 51 100 51 69 102.5 c 128,-1,3
 38 154 38 154 38 223 c 0,4,5
 38 313 38 313 78 383.5 c 128,-1,6
 118 454 118 454 189 494.5 c 128,-1,7
 260 535 260 535 350 535 c 0,8,9
 427 535 427 535 482 506.5 c 128,-1,10
 537 478 537 478 568 420 c 1,11,-1
 487 375 l 1,12,13
 467 414 467 414 430.5 432.5 c 128,-1,14
 394 451 394 451 343 451 c 0,15,16
 283 451 283 451 236 422.5 c 128,-1,17
 189 394 189 394 162 343.5 c 128,-1,18
 135 293 135 293 135 227 c 0,19,20
 135 158 135 158 176.5 118 c 128,-1,21
 218 78 218 78 294 78 c 0,22,23
 341 78 341 78 382.5 97 c 128,-1,24
 424 116 424 116 452 153 c 1,25,-1
 522 103 l 1,26,27
 486 52 486 52 424 23 c 128,-1,28
 362 -6 362 -6 290 -6 c 0,0,1
477 420 m 1,29,-1
 512 595 l 2,30,31
 521 640 521 640 546 673 c 128,-1,32
 571 706 571 706 605 725 c 128,-1,33
 639 744 639 744 677.5 747.5 c 128,-1,34
 716 751 716 751 751 738 c 1,35,-1
 727 661 l 1,36,37
 698 671 698 671 672 663.5 c 128,-1,38
 646 656 646 656 627 633.5 c 128,-1,39
 608 611 608 611 600 575 c 2,40,-1
 568 420 l 1,41,-1
 477 420 l 1,29,-1
EndSplineSet
Substitution2: "'smcp' Lowercase to Small Capitals lookup 46 subtable" uni0188.sc
Substitution2: "'aalt' Access All Alternates lookup 0 subtable" uni0188.sc
EndChar

StartChar: uni023C
Encoding: 572 572 637
Width: 571
GlyphClass: 2
Flags: W
AnchorPoint: "Anchor-3" 355 530 basechar 0
AnchorPoint: "Anchor-0" 277 0 basechar 0
LayerCount: 2
Fore
SplineSet
290 -6 m 0,0,1
 213 -6 213 -6 156.5 22.5 c 128,-1,2
 100 51 100 51 69 102.5 c 128,-1,3
 38 154 38 154 38 223 c 0,4,5
 38 313 38 313 78 383.5 c 128,-1,6
 118 454 118 454 189 494.5 c 128,-1,7
 260 535 260 535 350 535 c 0,8,9
 427 535 427 535 482 506.5 c 128,-1,10
 537 478 537 478 568 420 c 1,11,-1
 487 375 l 1,12,13
 467 414 467 414 430.5 432.5 c 128,-1,14
 394 451 394 451 343 451 c 0,15,16
 283 451 283 451 236 422.5 c 128,-1,17
 189 394 189 394 162 343.5 c 128,-1,18
 135 293 135 293 135 227 c 0,19,20
 135 158 135 158 176.5 118 c 128,-1,21
 218 78 218 78 294 78 c 0,22,23
 341 78 341 78 382.5 97 c 128,-1,24
 424 116 424 116 452 153 c 1,25,-1
 522 103 l 1,26,27
 486 52 486 52 424 23 c 128,-1,28
 362 -6 362 -6 290 -6 c 0,0,1
69 -80 m 1,29,-1
 490 609 l 1,30,-1
 555 609 l 1,31,-1
 134 -80 l 1,32,-1
 69 -80 l 1,29,-1
EndSplineSet
Substitution2: "'smcp' Lowercase to Small Capitals lookup 46 subtable" uni023C.sc
Substitution2: "'aalt' Access All Alternates lookup 0 subtable" uni023C.sc
EndChar

StartChar: d
Encoding: 100 100 638
Width: 682
GlyphClass: 2
Flags: W
AnchorPoint: "Anchor-4" 775 742 basechar 0
AnchorPoint: "Anchor-3" 357 530 basechar 0
AnchorPoint: "Anchor-1" 557 634 basechar 0
AnchorPoint: "Anchor-0" 292 0 basechar 0
LayerCount: 2
Fore
SplineSet
272 -6 m 0,0,1
 205 -6 205 -6 152 21.5 c 128,-1,2
 99 49 99 49 68.5 100 c 128,-1,3
 38 151 38 151 38 223 c 0,4,5
 38 291 38 291 60.5 348 c 128,-1,6
 83 405 83 405 123.5 447 c 128,-1,7
 164 489 164 489 219 512 c 128,-1,8
 274 535 274 535 338 535 c 0,9,10
 407 535 407 535 455 511 c 128,-1,11
 503 487 503 487 529 440.5 c 128,-1,12
 555 394 555 394 555 327 c 0,13,14
 555 253 555 253 536 192 c 128,-1,15
 517 131 517 131 479.5 86.5 c 128,-1,16
 442 42 442 42 390 18 c 128,-1,17
 338 -6 338 -6 272 -6 c 0,0,1
293 78 m 0,18,19
 353 78 353 78 400 107 c 128,-1,20
 447 136 447 136 473.5 186.5 c 128,-1,21
 500 237 500 237 500 302 c 0,22,23
 500 372 500 372 459 411.5 c 128,-1,24
 418 451 418 451 342 451 c 0,25,26
 283 451 283 451 236 422.5 c 128,-1,27
 189 394 189 394 162 343.5 c 128,-1,28
 135 293 135 293 135 227 c 0,29,30
 135 158 135 158 176 118 c 128,-1,31
 217 78 217 78 293 78 c 0,18,19
446 0 m 1,32,-1
 474 137 l 1,33,-1
 505 260 l 1,34,-1
 519 386 l 1,35,-1
 590 742 l 1,36,-1
 686 742 l 1,37,-1
 538 0 l 1,38,-1
 446 0 l 1,32,-1
EndSplineSet
Substitution2: "'ss01' Style Set 1 lookup 50 subtable" d.ss01
Substitution2: "'smcp' Lowercase to Small Capitals lookup 46 subtable" d.sc
AlternateSubs2: "'aalt' Access All Alternates lookup 1 subtable" d.sc d.ss01
EndChar

StartChar: uni0257
Encoding: 599 599 645
Width: 661
GlyphClass: 2
Flags: W
AnchorPoint: "Anchor-4" 776 742 basechar 0
AnchorPoint: "Anchor-1" 558 634 basechar 0
AnchorPoint: "Anchor-0" 294 0 basechar 0
LayerCount: 2
Fore
SplineSet
272 -6 m 0,0,1
 205 -6 205 -6 152 21.5 c 128,-1,2
 99 49 99 49 68.5 100 c 128,-1,3
 38 151 38 151 38 223 c 0,4,5
 38 291 38 291 60.5 348 c 128,-1,6
 83 405 83 405 123.5 447 c 128,-1,7
 164 489 164 489 219 512 c 128,-1,8
 274 535 274 535 338 535 c 0,9,10
 407 535 407 535 455 511 c 128,-1,11
 503 487 503 487 529 440.5 c 128,-1,12
 555 394 555 394 555 327 c 0,13,14
 555 253 555 253 536 192 c 128,-1,15
 517 131 517 131 479.5 86.5 c 128,-1,16
 442 42 442 42 390 18 c 128,-1,17
 338 -6 338 -6 272 -6 c 0,0,1
293 78 m 0,18,19
 353 78 353 78 400 107 c 128,-1,20
 447 136 447 136 473.5 186.5 c 128,-1,21
 500 237 500 237 500 302 c 0,22,23
 500 372 500 372 459 411.5 c 128,-1,24
 418 451 418 451 342 451 c 0,25,26
 283 451 283 451 236 422.5 c 128,-1,27
 189 394 189 394 162 343.5 c 128,-1,28
 135 293 135 293 135 227 c 0,29,30
 135 158 135 158 176 118 c 128,-1,31
 217 78 217 78 293 78 c 0,18,19
446 0 m 1,32,-1
 475 143 l 1,33,-1
 505 266 l 1,34,-1
 520 389 l 1,35,-1
 561 595 l 2,36,37
 569 641 569 641 595 673.5 c 128,-1,38
 621 706 621 706 656 725 c 128,-1,39
 691 744 691 744 730 747.5 c 128,-1,40
 769 751 769 751 804 737 c 1,41,-1
 780 661 l 1,42,43
 751 671 751 671 725 663.5 c 128,-1,44
 699 656 699 656 680 634 c 128,-1,45
 661 612 661 612 653 576 c 2,46,-1
 538 0 l 1,47,-1
 446 0 l 1,32,-1
EndSplineSet
Substitution2: "'ss01' Style Set 1 lookup 50 subtable" uni0257.ss01
Substitution2: "'smcp' Lowercase to Small Capitals lookup 46 subtable" uni0257.sc
AlternateSubs2: "'aalt' Access All Alternates lookup 1 subtable" uni0257.sc uni0257.ss01
EndChar

StartChar: uni1D91
Encoding: 7569 7569 646
Width: 678
GlyphClass: 2
Flags: W
AnchorPoint: "Anchor-4" 776 742 basechar 0
AnchorPoint: "Anchor-1" 558 634 basechar 0
AnchorPoint: "Anchor-0" 294 0 basechar 0
LayerCount: 2
Fore
SplineSet
635 -186 m 1,0,1
 590 -201 590 -201 549.5 -198.5 c 128,-1,2
 509 -196 509 -196 479.5 -178 c 128,-1,3
 450 -160 450 -160 437.5 -124.5 c 128,-1,4
 425 -89 425 -89 435 -37 c 2,5,-1
 469 141 l 1,6,-1
 504 265 l 1,7,-1
 519 389 l 1,8,-1
 561 595 l 2,9,10
 569 640 569 640 595 673 c 128,-1,11
 621 706 621 706 656 725 c 128,-1,12
 691 744 691 744 730 747.5 c 128,-1,13
 769 751 769 751 804 738 c 1,14,-1
 780 661 l 1,15,16
 751 671 751 671 724.5 663.5 c 128,-1,17
 698 656 698 656 679 633.5 c 128,-1,18
 660 611 660 611 653 575 c 2,19,-1
 531 -37 l 2,20,21
 520 -88 520 -88 550.5 -108 c 128,-1,22
 581 -128 581 -128 631 -110 c 1,23,-1
 635 -186 l 1,0,1
272 -6 m 0,24,25
 205 -6 205 -6 152 21.5 c 128,-1,26
 99 49 99 49 68.5 100 c 128,-1,27
 38 151 38 151 38 223 c 0,28,29
 38 291 38 291 60.5 348 c 128,-1,30
 83 405 83 405 123.5 447 c 128,-1,31
 164 489 164 489 219 512 c 128,-1,32
 274 535 274 535 338 535 c 0,33,34
 407 535 407 535 455 511 c 128,-1,35
 503 487 503 487 529 440.5 c 128,-1,36
 555 394 555 394 555 327 c 0,37,38
 555 253 555 253 536 192 c 128,-1,39
 517 131 517 131 479.5 86.5 c 128,-1,40
 442 42 442 42 390 18 c 128,-1,41
 338 -6 338 -6 272 -6 c 0,24,25
293 78 m 0,42,43
 353 78 353 78 400 107 c 128,-1,44
 447 136 447 136 473.5 186.5 c 128,-1,45
 500 237 500 237 500 302 c 0,46,47
 500 372 500 372 459 411.5 c 128,-1,48
 418 451 418 451 342 451 c 0,49,50
 283 451 283 451 236 422.5 c 128,-1,51
 189 394 189 394 162 343.5 c 128,-1,52
 135 293 135 293 135 227 c 0,53,54
 135 158 135 158 176 118 c 128,-1,55
 217 78 217 78 293 78 c 0,42,43
EndSplineSet
Substitution2: "'smcp' Lowercase to Small Capitals lookup 46 subtable" uni1D91.sc
Substitution2: "'aalt' Access All Alternates lookup 0 subtable" uni1D91.sc
EndChar

StartChar: uni0256
Encoding: 598 598 648
Width: 678
GlyphClass: 2
Flags: W
AnchorPoint: "Anchor-3" 397 530 basechar 0
AnchorPoint: "Anchor-0" 291 0 basechar 0
LayerCount: 2
Fore
SplineSet
272 -6 m 0,0,1
 205 -6 205 -6 152 21.5 c 128,-1,2
 99 49 99 49 68.5 100 c 128,-1,3
 38 151 38 151 38 223 c 0,4,5
 38 291 38 291 60.5 348 c 128,-1,6
 83 405 83 405 123.5 447 c 128,-1,7
 164 489 164 489 219 512 c 128,-1,8
 274 535 274 535 338 535 c 0,9,10
 407 535 407 535 455 511 c 128,-1,11
 503 487 503 487 529 440.5 c 128,-1,12
 555 394 555 394 555 327 c 0,13,14
 555 229 555 229 521 153.5 c 128,-1,15
 487 78 487 78 423.5 36 c 128,-1,16
 360 -6 360 -6 272 -6 c 0,0,1
293 78 m 0,17,18
 353 78 353 78 400 107 c 128,-1,19
 447 136 447 136 473.5 186.5 c 128,-1,20
 500 237 500 237 500 302 c 0,21,22
 500 372 500 372 459 411.5 c 128,-1,23
 418 451 418 451 342 451 c 0,24,25
 283 451 283 451 236 422.5 c 128,-1,26
 189 394 189 394 162 343.5 c 128,-1,27
 135 293 135 293 135 227 c 0,28,29
 135 158 135 158 176 118 c 128,-1,30
 217 78 217 78 293 78 c 0,17,18
635 -186 m 1,31,32
 590 -201 590 -201 550 -198.5 c 128,-1,33
 510 -196 510 -196 480 -178 c 128,-1,34
 450 -160 450 -160 437.5 -124.5 c 128,-1,35
 425 -89 425 -89 435 -37 c 2,36,-1
 470 141 l 1,37,-1
 505 264 l 1,38,-1
 523 387 l 1,39,-1
 594 742 l 1,40,-1
 686 742 l 1,41,-1
 531 -37 l 2,42,43
 520 -88 520 -88 550.5 -108 c 128,-1,44
 581 -128 581 -128 632 -110 c 1,45,-1
 635 -186 l 1,31,32
EndSplineSet
Substitution2: "'smcp' Lowercase to Small Capitals lookup 46 subtable" uni0256.sc
Substitution2: "'aalt' Access All Alternates lookup 0 subtable" uni0256.sc
EndChar

StartChar: uni018C
Encoding: 396 396 649
Width: 684
GlyphClass: 2
Flags: W
AnchorPoint: "Anchor-4" 776 742 basechar 0
AnchorPoint: "Anchor-3" 391 530 basechar 0
AnchorPoint: "Anchor-0" 294 0 basechar 0
LayerCount: 2
Fore
SplineSet
243 663 m 1,0,-1
 258 742 l 1,1,-1
 686 742 l 1,2,-1
 621 663 l 1,3,-1
 243 663 l 1,0,-1
272 -6 m 0,4,5
 205 -6 205 -6 152 21.5 c 128,-1,6
 99 49 99 49 68.5 100 c 128,-1,7
 38 151 38 151 38 223 c 0,8,9
 38 291 38 291 60.5 348 c 128,-1,10
 83 405 83 405 123.5 447 c 128,-1,11
 164 489 164 489 219 512 c 128,-1,12
 274 535 274 535 338 535 c 0,13,14
 407 535 407 535 455 511 c 128,-1,15
 503 487 503 487 529 440.5 c 128,-1,16
 555 394 555 394 555 327 c 0,17,18
 555 253 555 253 536 192 c 128,-1,19
 517 131 517 131 479.5 86.5 c 128,-1,20
 442 42 442 42 390 18 c 128,-1,21
 338 -6 338 -6 272 -6 c 0,4,5
293 78 m 0,22,23
 353 78 353 78 400 107 c 128,-1,24
 447 136 447 136 473.5 186.5 c 128,-1,25
 500 237 500 237 500 302 c 0,26,27
 500 372 500 372 459 411.5 c 128,-1,28
 418 451 418 451 342 451 c 0,29,30
 283 451 283 451 236 422.5 c 128,-1,31
 189 394 189 394 162 343.5 c 128,-1,32
 135 293 135 293 135 227 c 0,33,34
 135 158 135 158 176 118 c 128,-1,35
 217 78 217 78 293 78 c 0,22,23
446 0 m 1,36,-1
 474 137 l 1,37,-1
 505 260 l 1,38,-1
 519 386 l 1,39,-1
 590 742 l 1,40,-1
 686 742 l 1,41,-1
 538 0 l 1,42,-1
 446 0 l 1,36,-1
EndSplineSet
Substitution2: "'ss01' Style Set 1 lookup 50 subtable" uni018C.ss01
Substitution2: "'smcp' Lowercase to Small Capitals lookup 46 subtable" uni018C.sc
AlternateSubs2: "'aalt' Access All Alternates lookup 1 subtable" uni018C.sc uni018C.ss01
EndChar

StartChar: eth
Encoding: 240 240 652
Width: 590
GlyphClass: 1
Flags: W
LayerCount: 2
Fore
SplineSet
262 -3 m 0,0,1
 158 -3 158 -3 95.5 51.5 c 128,-1,2
 33 106 33 106 33 199 c 0,3,4
 33 272 33 272 64 326.5 c 128,-1,5
 95 381 95 381 150.5 412 c 128,-1,6
 206 443 206 443 278 443 c 0,7,8
 340 443 340 443 390.5 417 c 128,-1,9
 441 391 441 391 461 347 c 1,10,11
 451 414 451 414 414 480.5 c 128,-1,12
 377 547 377 547 319 605 c 128,-1,13
 261 663 261 663 188 705 c 1,14,-1
 257 747 l 1,15,16
 349 697 349 697 415 625.5 c 128,-1,17
 481 554 481 554 516.5 471 c 128,-1,18
 552 388 552 388 552 300 c 0,19,20
 552 208 552 208 516 140 c 128,-1,21
 480 72 480 72 415 34.5 c 128,-1,22
 350 -3 350 -3 262 -3 c 0,0,1
266 76 m 0,23,24
 317 76 317 76 356 97 c 128,-1,25
 395 118 395 118 416.5 155.5 c 128,-1,26
 438 193 438 193 438 241 c 0,27,28
 438 299 438 299 400.5 333 c 128,-1,29
 363 367 363 367 296 367 c 0,30,31
 247 367 247 367 209 346 c 128,-1,32
 171 325 171 325 148.5 287 c 128,-1,33
 126 249 126 249 126 201 c 0,34,35
 126 144 126 144 163.5 110 c 128,-1,36
 201 76 201 76 266 76 c 0,23,24
162 494 m 1,37,-1
 141 544 l 1,38,-1
 541 712 l 1,39,-1
 563 662 l 1,40,-1
 162 494 l 1,37,-1
EndSplineSet
Substitution2: "'smcp' Lowercase to Small Capitals lookup 46 subtable" eth.sc
Substitution2: "'aalt' Access All Alternates lookup 0 subtable" eth.sc
EndChar

StartChar: e
Encoding: 101 101 653
Width: 611
GlyphClass: 2
Flags: W
AnchorPoint: "Anchor-3" 353 529 basechar 0
AnchorPoint: "Anchor-2" 450 0 basechar 0
AnchorPoint: "Anchor-0" 281 0 basechar 0
LayerCount: 2
Fore
SplineSet
292 -6 m 0,0,1
 214 -6 214 -6 157 22.5 c 128,-1,2
 100 51 100 51 69 102.5 c 128,-1,3
 38 154 38 154 38 224 c 0,4,5
 38 314 38 314 77 384 c 128,-1,6
 116 454 116 454 183.5 494.5 c 128,-1,7
 251 535 251 535 337 535 c 0,8,9
 409 535 409 535 462 507.5 c 0,10,11
 510 482 510 482 544.5 429 c 0,12,13
 581.359781122 370.238030096 581.359781122 370.238030096 571 277 c 5,14,-1
 63 182 l 5,15,-1
 75 252 l 5,16,-1
 525 347 l 5,17,-1
 482 281 l 1,18,19
 491 337 491 337 474 375.5 c 128,-1,20
 457 414 457 414 420.5 434.5 c 128,-1,21
 384 455 384 455 333 455 c 0,22,23
 273 455 273 455 227.5 426.5 c 128,-1,24
 182 398 182 398 157 347.5 c 128,-1,25
 132 297 132 297 132 229 c 0,26,27
 132 157 132 157 173.5 117.5 c 128,-1,28
 215 78 215 78 300 78 c 0,29,30
 350 78 350 78 393 94.5 c 128,-1,31
 436 111 436 111 464 139 c 1,32,-1
 505 70 l 1,33,34
 467 33 467 33 410 13.5 c 128,-1,35
 353 -6 353 -6 292 -6 c 0,0,1
EndSplineSet
Substitution2: "'ss01' Style Set 1 lookup 50 subtable" e.ss01
Substitution2: "'smcp' Lowercase to Small Capitals lookup 46 subtable" e.sc
AlternateSubs2: "'aalt' Access All Alternates lookup 1 subtable" e.sc e.ss01
EndChar

StartChar: eogonek
Encoding: 281 281 676
Width: 611
GlyphClass: 2
Flags: WO
AnchorPoint: "Anchor-3" 354 529 basechar 0
LayerCount: 2
Fore
SplineSet
346 -224 m 0,0,1
 302 -224 302 -224 273 -201 c 128,-1,2
 244 -178 244 -178 244 -136 c 0,3,4
 244 -106 244 -106 255.5 -79.5 c 128,-1,5
 267 -53 267 -53 291 -28.5 c 128,-1,6
 315 -4 315 -4 352 17 c 1,7,-1
 372 3 l 1,8,9
 347 -2 347 -2 327.5 -4 c 128,-1,10
 308 -6 308 -6 292 -6 c 0,11,12
 214 -6 214 -6 157 22.5 c 128,-1,13
 100 51 100 51 69 102.5 c 128,-1,14
 38 154 38 154 38 224 c 0,15,16
 38 314 38 314 77 384 c 128,-1,17
 116 454 116 454 183.5 494.5 c 128,-1,18
 251 535 251 535 337 535 c 0,19,20
 409 535 409 535 462 507.5 c 0,21,22
 514.35128519 480.336597307 514.35128519 480.336597307 545 429 c 0,23,24
 584 362 584 362 571 277 c 1,25,-1
 63 182 l 1,26,-1
 75 252 l 1,27,-1
 526 347 l 1,28,-1
 482 281 l 1,29,30
 491 337 491 337 474 375.5 c 128,-1,31
 457 414 457 414 420.5 434.5 c 128,-1,32
 384 455 384 455 333 455 c 0,33,34
 273 455 273 455 228 426.5 c 128,-1,35
 183 398 183 398 157.5 347.5 c 128,-1,36
 132 297 132 297 132 229 c 0,37,38
 132 157 132 157 173.5 117.5 c 128,-1,39
 215 78 215 78 300 78 c 0,40,41
 350 78 350 78 393 94 c 128,-1,42
 436 110 436 110 465 139 c 1,43,-1
 506 70 l 1,44,45
 495 60 495 60 483 51.5 c 128,-1,46
 471 43 471 43 462 37 c 0,47,48
 380 -8 380 -8 345.5 -48 c 128,-1,49
 311 -88 311 -88 311 -122 c 0,50,51
 311 -144 311 -144 324.5 -156 c 128,-1,52
 338 -168 338 -168 361 -168 c 0,53,54
 378 -168 378 -168 394.5 -163 c 128,-1,55
 411 -158 411 -158 426 -150 c 1,56,-1
 437 -200 l 1,57,58
 418 -211 418 -211 395.5 -217.5 c 128,-1,59
 373 -224 373 -224 346 -224 c 0,0,1
EndSplineSet
Substitution2: "'ss01' Style Set 1 lookup 50 subtable" eogonek.ss01
Substitution2: "'smcp' Lowercase to Small Capitals lookup 46 subtable" eogonek.sc
Substitution2: "'locl' Localized Forms in Latin lookup 15 subtable" eogonek.loclNAV
AlternateSubs2: "'aalt' Access All Alternates lookup 1 subtable" eogonek.loclNAV eogonek.sc eogonek.ss01
EndChar

StartChar: uni025B
Encoding: 603 603 677
Width: 559
GlyphClass: 2
Flags: W
AnchorPoint: "Anchor-3" 354 530 basechar 0
AnchorPoint: "Anchor-2" 303 0 basechar 0
AnchorPoint: "Anchor-0" 249 0 basechar 0
LayerCount: 2
Fore
SplineSet
246 -7 m 0,0,1
 188 -7 188 -7 138 9.5 c 128,-1,2
 88 26 88 26 58 59.5 c 128,-1,3
 28 93 28 93 28 144 c 256,4,5
 28 195 28 195 57.5 228.5 c 128,-1,6
 87 262 87 262 137 278.5 c 128,-1,7
 187 295 187 295 248 295 c 1,8,-1
 247 268 l 1,9,10
 178 268 178 268 135 296.5 c 128,-1,11
 92 325 92 325 92 383 c 0,12,13
 92 423 92 423 112 451.5 c 128,-1,14
 132 480 132 480 167 499 c 128,-1,15
 202 518 202 518 245.5 527 c 128,-1,16
 289 536 289 536 335 536 c 0,17,18
 392 536 392 536 446 523.5 c 128,-1,19
 500 511 500 511 539 488 c 1,20,-1
 499 414 l 1,21,22
 478 426 478 426 449 435.5 c 128,-1,23
 420 445 420 445 388.5 449.5 c 128,-1,24
 357 454 357 454 325 454 c 0,25,26
 289 454 289 454 257.5 446 c 128,-1,27
 226 438 226 438 207 420.5 c 128,-1,28
 188 403 188 403 188 374 c 0,29,30
 188 352 188 352 200.5 337.5 c 128,-1,31
 213 323 213 323 236.5 315.5 c 128,-1,32
 260 308 260 308 291 308 c 2,33,-1
 391 308 l 1,34,-1
 378 239 l 1,35,-1
 263 238 l 2,36,37
 224 238 224 238 194.5 229 c 128,-1,38
 165 220 165 220 148 202 c 128,-1,39
 131 184 131 184 131 156 c 0,40,41
 131 126 131 126 149 108.5 c 128,-1,42
 167 91 167 91 197 83.5 c 128,-1,43
 227 76 227 76 262 76 c 0,44,45
 296 76 296 76 331.5 82 c 128,-1,46
 367 88 367 88 400.5 100 c 128,-1,47
 434 112 434 112 459 126 c 1,48,-1
 479 52 l 1,49,50
 424 22 424 22 364.5 7.5 c 128,-1,51
 305 -7 305 -7 246 -7 c 0,0,1
EndSplineSet
Substitution2: "'smcp' Lowercase to Small Capitals lookup 46 subtable" uni025B.sc
Substitution2: "'aalt' Access All Alternates lookup 0 subtable" uni025B.sc
EndChar

StartChar: uni0258
Encoding: 600 600 679
Width: 611
GlyphClass: 2
Flags: W
AnchorPoint: "Anchor-3" 352 528 basechar 0
AnchorPoint: "Anchor-0" 246 0 basechar 0
LayerCount: 2
Fore
SplineSet
319 535 m 0,0,1
 398 535 398 535 454.5 506.5 c 128,-1,2
 511 478 511 478 542 427 c 128,-1,3
 573 376 573 376 573 306 c 0,4,5
 573 216 573 216 534 146 c 128,-1,6
 495 76 495 76 428 35 c 128,-1,7
 361 -6 361 -6 274 -6 c 0,8,9
 203 -6 203 -6 149.5 22 c 128,-1,10
 96 50 96 50 66.5 101 c 128,-1,11
 37 152 37 152 37 224 c 0,12,13
 37 243 37 243 39 260.5 c 128,-1,14
 41 278 41 278 44 294 c 1,15,-1
 503 294 l 1,16,-1
 491 225 l 1,17,-1
 90 225 l 1,18,-1
 129 249 l 1,19,20
 120 194 120 194 137 155 c 128,-1,21
 154 116 154 116 191 95.5 c 128,-1,22
 228 75 228 75 278 75 c 0,23,24
 339 75 339 75 384 103.5 c 128,-1,25
 429 132 429 132 454 183 c 128,-1,26
 479 234 479 234 479 301 c 0,27,28
 479 373 479 373 438 412 c 128,-1,29
 397 451 397 451 311 451 c 0,30,31
 261 451 261 451 218.5 435 c 128,-1,32
 176 419 176 419 146 390 c 1,33,-1
 106 460 l 1,34,35
 145 497 145 497 201.5 516 c 128,-1,36
 258 535 258 535 319 535 c 0,0,1
EndSplineSet
Substitution2: "'ss01' Style Set 1 lookup 50 subtable" uni0258.ss01
Substitution2: "'smcp' Lowercase to Small Capitals lookup 46 subtable" uni0258.sc
AlternateSubs2: "'aalt' Access All Alternates lookup 1 subtable" uni0258.sc uni0258.ss01
EndChar

StartChar: uni0283
Encoding: 643 643 680
Width: 285
GlyphClass: 1
Flags: W
LayerCount: 2
Fore
SplineSet
-61 -200 m 0,0,1
 -94 -200 -94 -200 -121 -193 c 128,-1,2
 -148 -186 -148 -186 -169 -173 c 1,3,-1
 -128 -99 l 1,4,5
 -115 -108 -115 -108 -97 -113.5 c 128,-1,6
 -79 -119 -79 -119 -60 -119 c 0,7,8
 -20 -119 -20 -119 3 -96.5 c 128,-1,9
 26 -74 26 -74 36 -25 c 2,10,-1
 156 573 l 2,11,12
 190 748 190 748 349 748 c 0,13,14
 382 748 382 748 409.5 741 c 128,-1,15
 437 734 437 734 457 721 c 1,16,-1
 416 647 l 1,17,18
 403 656 403 656 385 661.5 c 128,-1,19
 367 667 367 667 348 667 c 0,20,21
 309 667 309 667 285.5 644.5 c 128,-1,22
 262 622 262 622 252 573 c 2,23,-1
 132 -25 l 2,24,25
 115 -112 115 -112 67 -156 c 128,-1,26
 19 -200 19 -200 -61 -200 c 0,0,1
EndSplineSet
Substitution2: "'smcp' Lowercase to Small Capitals lookup 46 subtable" uni0283.sc
Substitution2: "'aalt' Access All Alternates lookup 0 subtable" uni0283.sc
EndChar

